<svg xmlns="http://www.w3.org/2000/svg" width="81.744" height="106.623" viewBox="0 0 81.744 106.623">
  <g id="Grupo_10258" data-name="Grupo 10258" transform="translate(-191.163 -1661.459)">
    <path id="Trazado_2203" data-name="Trazado 2203" d="M255.136,1663.236H196.494a3.555,3.555,0,0,0-3.554,3.555v95.96a3.554,3.554,0,0,0,3.554,3.554h71.082a3.554,3.554,0,0,0,3.554-3.554V1679.23l-15.994-15.994Z" fill="#f2f2f2"/>
    <path id="Trazado_2204" data-name="Trazado 2204" d="M255.136,1663.236v15.994a1.777,1.777,0,0,0,1.777,1.777H271.13v-1.777l-15.994-15.994Z" fill="#c5d9e3"/>
    <path id="Trazado_2205" data-name="Trazado 2205" d="M203.6,1688.115h42.649v35.541H203.6v-35.541Z" fill="#69d6f4"/>
    <path id="Trazado_2206" data-name="Trazado 2206" d="M203.6,1723.656v-1.777l12.439-12.439,3.554,3.554,12.439-12.439,14.216,14.216v8.885Z" fill="#7ac943"/>
    <path id="Trazado_2207" data-name="Trazado 2207" d="M235.589,1734.318h24.879v21.325H235.589v-21.325Z" fill="#ffe194"/>
    <path id="Trazado_2208" data-name="Trazado 2208" d="M269.353,1762.751a1.777,1.777,0,0,1-1.777,1.777H196.494a1.776,1.776,0,0,1-1.777-1.777v-95.96a1.776,1.776,0,0,1,1.777-1.777h56.865v12.439a5.331,5.331,0,0,0,5.331,5.331H265.8v-3.554H258.69a1.778,1.778,0,0,1-1.777-1.777v-9.92l11.921,11.948a1.76,1.76,0,0,1,.519,1.252v82.018Zm2-85.781-13.914-13.945a5.285,5.285,0,0,0-3.775-1.566H196.494a5.331,5.331,0,0,0-5.331,5.332v95.96a5.33,5.33,0,0,0,5.331,5.331h71.082a5.331,5.331,0,0,0,5.331-5.331v-82.018a5.3,5.3,0,0,0-1.557-3.763Z" fill="#717377"/>
    <path id="Trazado_2209" data-name="Trazado 2209" d="M201.825,1672.122h3.554v3.554h-3.554v-3.554Z" fill="#717377"/>
    <path id="Trazado_2210" data-name="Trazado 2210" d="M208.933,1672.122h35.541v3.554H208.933v-3.554Z" fill="#717377"/>
    <path id="Trazado_2211" data-name="Trazado 2211" d="M201.825,1679.23h42.649v3.554H201.825v-3.554Z" fill="#717377"/>
    <path id="Trazado_2212" data-name="Trazado 2212" d="M258.69,1753.866H237.366V1736.1H258.69v17.77Zm1.778-21.325H235.589a1.777,1.777,0,0,0-1.777,1.777v21.325a1.777,1.777,0,0,0,1.777,1.777h24.879a1.778,1.778,0,0,0,1.777-1.777v-21.325a1.778,1.778,0,0,0-1.777-1.777Z" fill="#717377"/>
    <path id="Trazado_2213" data-name="Trazado 2213" d="M251.582,1686.338h3.554v3.554h-3.554v-3.554Z" fill="#717377"/>
    <path id="Trazado_2214" data-name="Trazado 2214" d="M258.69,1686.338h3.554v3.554H258.69v-3.554Z" fill="#717377"/>
    <path id="Trazado_2215" data-name="Trazado 2215" d="M251.582,1693.446h10.662V1697H251.582v-3.554Z" fill="#717377"/>
    <path id="Trazado_2216" data-name="Trazado 2216" d="M251.582,1700.554h10.662v3.554H251.582v-3.554Z" fill="#717377"/>
    <path id="Trazado_2217" data-name="Trazado 2217" d="M251.582,1707.663h10.662v3.554H251.582v-3.554Z" fill="#717377"/>
    <path id="Trazado_2218" data-name="Trazado 2218" d="M251.582,1714.771h10.662v3.554H251.582v-3.554Z" fill="#717377"/>
    <path id="Trazado_2219" data-name="Trazado 2219" d="M251.582,1721.879h10.662v3.554H251.582v-3.554Z" fill="#717377"/>
    <path id="Trazado_2220" data-name="Trazado 2220" d="M201.825,1732.541h3.554v3.554h-3.554v-3.554Z" fill="#717377"/>
    <path id="Trazado_2221" data-name="Trazado 2221" d="M208.933,1732.541h21.325v3.554H208.933v-3.554Z" fill="#717377"/>
    <path id="Trazado_2222" data-name="Trazado 2222" d="M201.825,1739.65h28.433v3.554H201.825v-3.554Z" fill="#717377"/>
    <path id="Trazado_2223" data-name="Trazado 2223" d="M201.825,1746.758h28.433v3.554H201.825v-3.554Z" fill="#717377"/>
    <path id="Trazado_2224" data-name="Trazado 2224" d="M201.825,1753.866h28.433v3.554H201.825v-3.554Z" fill="#717377"/>
    <path id="Trazado_2225" data-name="Trazado 2225" d="M244.474,1689.892v20.589l-11.195-11.195a1.777,1.777,0,0,0-2.513,0L219.6,1710.474l-2.328-2.323a1.829,1.829,0,0,0-2.512,0l-9.376,9.378v-27.637Zm-38.42,31.987,9.952-9.951,5.882,5.883a1.771,1.771,0,0,0,1.261.514h7.109v-3.554h-6.373l-1.777-1.777,9.927-9.934,12.439,12.439v6.38Zm-2.452,3.554h42.649a1.776,1.776,0,0,0,1.777-1.777v-35.541a1.777,1.777,0,0,0-1.777-1.777H203.6a1.777,1.777,0,0,0-1.777,1.777v35.541a1.776,1.776,0,0,0,1.777,1.777Z" fill="#717377"/>
  </g>
</svg>
