<svg xmlns="http://www.w3.org/2000/svg" width="76.5" height="101.765" viewBox="0 0 76.5 101.765">
  <g id="Grupo_10027" data-name="Grupo 10027" transform="translate(-1721.558 -3155.579)">
    <path id="Trazado_1550" data-name="Trazado 1550" d="M1758.232,3183.2l9.745,9.745a6.084,6.084,0,0,1,1.624-4.872,6.89,6.89,0,1,1,9.745,9.744,6.207,6.207,0,0,1-4.873,1.625l9.745,9.744-9.745,9.745c2.811-.076,5.315.906,6.337,4.154a7.155,7.155,0,0,1-1.558,7.307,6.89,6.89,0,0,1-9.651-.092,5.82,5.82,0,0,1-1.624-4.872l-9.745,9.745-9.745-9.745a6.208,6.208,0,0,0,4.873-1.625,6.89,6.89,0,1,0-9.745-9.744,6.084,6.084,0,0,0-1.624,4.872l-9.745-9.745Z" fill="none" stroke="#26a79a" stroke-linecap="round" stroke-linejoin="round" stroke-width="3"/>
    <path id="Trazado_1551" data-name="Trazado 1551" d="M1723.058,3255.844h73.5v-98.765H1736.84l-13.781,13.781Z" fill="none" stroke="#26a79a" stroke-linecap="round" stroke-linejoin="round" stroke-width="3"/>
    <path id="Trazado_1552" data-name="Trazado 1552" d="M1727.652,3173.157h11.484v-11.484" fill="none" stroke="#26a79a" stroke-linecap="round" stroke-linejoin="round" stroke-width="3"/>
  </g>
</svg>
