<svg xmlns="http://www.w3.org/2000/svg" width="1096.207" height="1065.253" viewBox="0 0 1096.207 1065.253">
  <g id="Grupo_10252" data-name="Grupo 10252" transform="translate(-171.843 -2965.895)">
    <rect id="Rectángulo_2918" data-name="Rectángulo 2918" width="53.163" height="804.828" transform="translate(516.469 3225.067)" fill="none" stroke="#e7eaed" stroke-miterlimit="10" stroke-width="2"/>
    <rect id="Rectángulo_2919" data-name="Rectángulo 2919" width="53.163" height="804.828" transform="translate(618.542 3225.067)" fill="none" stroke="#e7eaed" stroke-miterlimit="10" stroke-width="2"/>
    <rect id="Rectángulo_2920" data-name="Rectángulo 2920" width="53.163" height="804.828" transform="translate(820.704 3225.067)" fill="none" stroke="#e7eaed" stroke-miterlimit="10" stroke-width="2"/>
    <rect id="Rectángulo_2921" data-name="Rectángulo 2921" width="53.163" height="804.828" transform="translate(720.616 3225.067)" fill="none" stroke="#e7eaed" stroke-miterlimit="10" stroke-width="2"/>
    <rect id="Rectángulo_2922" data-name="Rectángulo 2922" width="53.163" height="804.828" transform="translate(1044.686 3225.067)" fill="none" stroke="#e7eaed" stroke-miterlimit="10" stroke-width="2"/>
    <rect id="Rectángulo_2923" data-name="Rectángulo 2923" width="53.163" height="804.828" transform="translate(1145.767 3225.067)" fill="none" stroke="#e7eaed" stroke-miterlimit="10" stroke-width="2"/>
    <rect id="Rectángulo_2924" data-name="Rectángulo 2924" width="811.486" height="200.553" transform="translate(455.521 2966.937)" fill="none" stroke="#e7eaed" stroke-miterlimit="10" stroke-width="2"/>
    <line id="Línea_106" data-name="Línea 106" y1="806.081" transform="translate(1267.008 3225.067)" fill="none" stroke="#e7eaed" stroke-miterlimit="10" stroke-width="2"/>
    <line id="Línea_107" data-name="Línea 107" y1="806.081" transform="translate(462.266 3225.067)" fill="none" stroke="#e7eaed" stroke-miterlimit="10" stroke-width="2"/>
    <line id="Línea_108" data-name="Línea 108" y1="806.081" transform="translate(172.843 3225.067)" fill="none" stroke="#e7eaed" stroke-miterlimit="10" stroke-width="2"/>
    <rect id="Rectángulo_2925" data-name="Rectángulo 2925" width="64.492" height="804.828" transform="translate(927.031 3225.067)" fill="none" stroke="#e7eaed" stroke-miterlimit="10" stroke-width="2"/>
    <rect id="Rectángulo_2926" data-name="Rectángulo 2926" width="53.163" height="182.402" transform="translate(516.469 2965.895)" fill="#e7eaed"/>
    <rect id="Rectángulo_2927" data-name="Rectángulo 2927" width="53.163" height="182.402" transform="translate(618.542 2965.895)" fill="#e7eaed"/>
    <rect id="Rectángulo_2928" data-name="Rectángulo 2928" width="53.163" height="182.402" transform="translate(720.616 2965.895)" fill="#e7eaed"/>
    <rect id="Rectángulo_2929" data-name="Rectángulo 2929" width="53.163" height="182.402" transform="translate(820.704 2965.895)" fill="#e7eaed"/>
    <rect id="Rectángulo_2930" data-name="Rectángulo 2930" width="64.492" height="182.402" transform="translate(927.031 2965.895)" fill="#e7eaed"/>
    <rect id="Rectángulo_2931" data-name="Rectángulo 2931" width="53.163" height="182.402" transform="translate(1044.686 2965.895)" fill="#e7eaed"/>
    <rect id="Rectángulo_2932" data-name="Rectángulo 2932" width="53.163" height="182.402" transform="translate(1145.767 2965.895)" fill="#e7eaed"/>
    <rect id="Rectángulo_2933" data-name="Rectángulo 2933" width="1096" height="38.385" transform="translate(1268.049 3186.682) rotate(180)" fill="#26a79a"/>
    <rect id="Rectángulo_2934" data-name="Rectángulo 2934" width="1096" height="38.385" transform="translate(1268.049 3225.067) rotate(180)" fill="#51b9ae"/>
    <rect id="Rectángulo_2935" data-name="Rectángulo 2935" width="107.12" height="182.402" transform="translate(462.266 3148.297) rotate(180)" fill="#51b9ae"/>
    <rect id="Rectángulo_2936" data-name="Rectángulo 2936" width="1096" height="38.385" transform="translate(1268.049 3301.837) rotate(180)" fill="#e7eaed"/>
    <rect id="Rectángulo_2937" data-name="Rectángulo 2937" width="1096" height="38.385" transform="translate(1268.049 3378.606) rotate(180)" fill="#e7eaed"/>
    <rect id="Rectángulo_2938" data-name="Rectángulo 2938" width="1096" height="38.385" transform="translate(1268.049 3455.376) rotate(180)" fill="#e7eaed"/>
    <rect id="Rectángulo_2939" data-name="Rectángulo 2939" width="1096" height="38.385" transform="translate(1268.049 3532.145) rotate(180)" fill="#e7eaed"/>
    <rect id="Rectángulo_2940" data-name="Rectángulo 2940" width="1096" height="38.385" transform="translate(1268.049 3608.915) rotate(180)" fill="#e7eaed"/>
    <rect id="Rectángulo_2941" data-name="Rectángulo 2941" width="1096" height="38.385" transform="translate(1268.049 3685.684) rotate(180)" fill="#51b9ae"/>
    <rect id="Rectángulo_2942" data-name="Rectángulo 2942" width="1096" height="38.385" transform="translate(1268.049 3762.454) rotate(180)" fill="#e7eaed"/>
    <rect id="Rectángulo_2943" data-name="Rectángulo 2943" width="1096" height="38.385" transform="translate(1268.049 3839.224) rotate(180)" fill="#e7eaed"/>
    <rect id="Rectángulo_2944" data-name="Rectángulo 2944" width="1096" height="38.385" transform="translate(1268.049 3877.608) rotate(180)" fill="#51b9ae"/>
    <rect id="Rectángulo_2945" data-name="Rectángulo 2945" width="1096" height="38.385" transform="translate(1268.049 3954.378) rotate(180)" fill="#e7eaed"/>
    <rect id="Rectángulo_2946" data-name="Rectángulo 2946" width="1096" height="38.385" transform="translate(1268.049 4031.147) rotate(180)" fill="#e7eaed"/>
    <text id="Partes_del_Trabajo" data-name="Partes del Trabajo" transform="translate(183.555 3174.243)" fill="#fff" font-size="18.845" font-family="OpenSans-Bold, Open Sans" font-weight="700"><tspan x="0" y="0">Partes del Trabajo</tspan></text>
    <text id="Preliminares" transform="translate(183.555 3212.955)" fill="#fff" font-size="18.845" font-family="OpenSans-Bold, Open Sans" font-weight="700"><tspan x="0" y="0">Preliminares</tspan></text>
    <text id="Tipo_de_trabajo" data-name="Tipo de
trabajo" transform="translate(371.542 3051.5)" fill="#fff" font-size="18.845" font-family="OpenSans-Bold, Open Sans" font-weight="700"><tspan x="0" y="0">Tipo de</tspan><tspan x="0" y="21.821">trabajo</tspan></text>
    <text id="Tesis" transform="translate(498.817 3082.056) rotate(-90)" fill="#00223d" font-size="18.845" font-family="OpenSans-Bold, Open Sans" font-weight="700"><tspan x="0" y="0">Tesis</tspan></text>
    <text id="Monografía" transform="translate(549.357 3115.509) rotate(-90)" fill="#00223d" font-size="18.845" font-family="OpenSans-Bold, Open Sans" font-weight="700"><tspan x="0" y="0">Monografía</tspan></text>
    <text id="Protocolo" transform="translate(599.898 3105.887) rotate(-90)" fill="#00223d" font-size="18.845" font-family="OpenSans-Bold, Open Sans" font-weight="700"><tspan x="0" y="0">Protocolo</tspan></text>
    <text id="Proyecto" transform="translate(650.438 3101.983) rotate(-90)" fill="#00223d" font-size="18.845" font-family="OpenSans-Bold, Open Sans" font-weight="700"><tspan x="0" y="0">Proyecto</tspan></text>
    <text id="Informe" transform="translate(700.979 3097.846) rotate(-90)" fill="#00223d" font-size="18.845" font-family="OpenSans-Bold, Open Sans" font-weight="700"><tspan x="0" y="0">Informe</tspan></text>
    <text id="Manual" transform="translate(751.52 3095.293) rotate(-90)" fill="#00223d" font-size="18.845" font-family="OpenSans-Bold, Open Sans" font-weight="700"><tspan x="0" y="0">Manual</tspan></text>
    <text id="Relatoria" transform="translate(802.059 3103.493) rotate(-90)" fill="#00223d" font-size="18.845" font-family="OpenSans-Bold, Open Sans" font-weight="700"><tspan x="0" y="0">Relatoria</tspan></text>
    <text id="Resumen" transform="translate(852.6 3104.089) rotate(-90)" fill="#00223d" font-size="18.845" font-family="OpenSans-Bold, Open Sans" font-weight="700"><tspan x="0" y="0">Resumen</tspan></text>
    <text id="Reseña" transform="translate(903.14 3093.56) rotate(-90)" fill="#00223d" font-size="18.845" font-family="OpenSans-Bold, Open Sans" font-weight="700"><tspan x="0" y="0">Reseña</tspan></text>
    <text id="Ayuda_de_memoria" data-name="Ayuda de
memoria" transform="translate(953.681 3104.099) rotate(-90)" fill="#00223d" font-size="18.845" font-family="OpenSans-Bold, Open Sans" font-weight="700"><tspan x="0" y="0">Ayuda de</tspan><tspan x="0" y="21.821">memoria</tspan></text>
    <text id="Ensayo" transform="translate(1026.042 3092.606) rotate(-90)" fill="#00223d" font-size="18.845" font-family="OpenSans-Bold, Open Sans" font-weight="700"><tspan x="0" y="0">Ensayo</tspan></text>
    <text id="Artículo" transform="translate(1076.582 3097.414) rotate(-90)" fill="#00223d" font-size="18.845" font-family="OpenSans-Bold, Open Sans" font-weight="700"><tspan x="0" y="0">Artículo</tspan></text>
    <text id="Sintesis" transform="translate(1127.123 3095.973) rotate(-90)" fill="#00223d" font-size="18.845" font-family="OpenSans-Bold, Open Sans" font-weight="700"><tspan x="0" y="0">Sintesis</tspan></text>
    <text id="Ponencia" transform="translate(1177.663 3103.483) rotate(-90)" fill="#00223d" font-size="18.845" font-family="OpenSans-Bold, Open Sans" font-weight="700"><tspan x="0" y="0">Ponencia</tspan></text>
    <text id="RAE_resumen_Académico_" data-name="RAE (resumen
Académico)" transform="translate(1228.204 3127.514) rotate(-90)" fill="#00223d" font-size="18.845" font-family="OpenSans-Bold, Open Sans" font-weight="700"><tspan x="0" y="0">RAE (resumen</tspan><tspan x="0" y="21.821">Académico)</tspan></text>
    <text id="Tapas_o_pastas" data-name="Tapas o pastas" transform="translate(183.555 3251.667)" fill="#00223d" font-size="18.845" font-family="OpenSans-Regular, Open Sans"><tspan x="0" y="0">Tapas o pastas</tspan></text>
    <text id="Guardas" transform="translate(183.555 3289.966)" fill="#00223d" font-size="18.845" font-family="OpenSans-Regular, Open Sans"><tspan x="0" y="0">Guardas</tspan></text>
    <text id="Cubierta" transform="translate(183.555 3328.265)" fill="#00223d" font-size="18.845" font-family="OpenSans-Regular, Open Sans"><tspan x="0" y="0">Cubierta</tspan></text>
    <text id="Portada" transform="translate(183.555 3366.563)" fill="#00223d" font-size="18.845" font-family="OpenSans-Regular, Open Sans"><tspan x="0" y="0">Portada</tspan></text>
    <text id="Página_de_aceptación" data-name="Página de aceptación" transform="translate(183.555 3404.862)" fill="#00223d" font-size="18.845" font-family="OpenSans-Regular, Open Sans"><tspan x="0" y="0">Página de aceptación</tspan></text>
    <text id="Página_de_dedicación" data-name="Página de dedicación" transform="translate(183.555 3443.161)" fill="#00223d" font-size="18.845" font-family="OpenSans-Regular, Open Sans"><tspan x="0" y="0">Página de dedicación</tspan></text>
    <text id="Página_de_agradecimientos" data-name="Página de agradecimientos" transform="translate(183.555 3481.459)" fill="#00223d" font-size="18.845" font-family="OpenSans-Regular, Open Sans"><tspan x="0" y="0">Página de agradecimientos</tspan></text>
    <text id="Contenido" transform="translate(183.555 3519.758)" fill="#00223d" font-size="18.845" font-family="OpenSans-Regular, Open Sans"><tspan x="0" y="0">Contenido</tspan></text>
    <text id="Listas_especiales" data-name="Listas especiales" transform="translate(183.555 3558.057)" fill="#00223d" font-size="18.845" font-family="OpenSans-Regular, Open Sans"><tspan x="0" y="0">Listas especiales</tspan></text>
    <text id="Glosario" transform="translate(183.555 3596.355)" fill="#00223d" font-size="18.845" font-family="OpenSans-Regular, Open Sans"><tspan x="0" y="0">Glosario</tspan></text>
    <text id="Resumen-2" data-name="Resumen" transform="translate(183.555 3634.654)" fill="#00223d" font-size="18.845" font-family="OpenSans-Regular, Open Sans"><tspan x="0" y="0">Resumen</tspan></text>
    <text id="Cuerpo_del_documento" data-name="Cuerpo del documento" transform="translate(183.555 3672.953)" fill="#fff" font-size="18.845" font-family="OpenSans-Bold, Open Sans" font-weight="700"><tspan x="0" y="0">Cuerpo del documento</tspan></text>
    <text id="Introducción" transform="translate(183.555 3711.665)" fill="#00223d" font-size="18.845" font-family="OpenSans-Regular, Open Sans"><tspan x="0" y="0">Introducción</tspan></text>
    <text id="Capítulos" transform="translate(183.555 3749.963)" fill="#00223d" font-size="18.845" font-family="OpenSans-Regular, Open Sans"><tspan x="0" y="0">Capítulos</tspan></text>
    <text id="Conclusiones" transform="translate(183.555 3788.263)" fill="#00223d" font-size="18.845" font-family="OpenSans-Regular, Open Sans"><tspan x="0" y="0">Conclusiones</tspan></text>
    <text id="Recomendaciones" transform="translate(183.555 3826.561)" fill="#00223d" font-size="18.845" font-family="OpenSans-Regular, Open Sans"><tspan x="0" y="0">Recomendaciones</tspan></text>
    <text id="Complementarios" transform="translate(183.555 3864.859)" fill="#fff" font-size="18.845" font-family="OpenSans-Bold, Open Sans" font-weight="700"><tspan x="0" y="0">Complementarios</tspan></text>
    <text id="Bibliografía" transform="translate(183.555 3903.572)" fill="#00223d" font-size="18.845" font-family="OpenSans-Regular, Open Sans"><tspan x="0" y="0">Bibliografía</tspan></text>
    <text id="Bibliografía_complementaria" data-name="Bibliografía complementaria" transform="translate(183.555 3941.871)" fill="#00223d" font-size="18.845" font-family="OpenSans-Regular, Open Sans"><tspan x="0" y="0">Bibliografía complementaria</tspan></text>
    <text id="Indice" transform="translate(183.555 3980.169)" fill="#00223d" font-size="18.845" font-family="OpenSans-Regular, Open Sans"><tspan x="0" y="0">Indice</tspan></text>
    <text id="Anexos" transform="translate(183.555 4018.468)" fill="#00223d" font-size="18.845" font-family="OpenSans-Regular, Open Sans"><tspan x="0" y="0">Anexos</tspan></text>
    <circle id="Elipse_250" data-name="Elipse 250" cx="5.951" cy="5.951" r="5.951" transform="translate(588.632 3238.397)" fill="#999"/>
    <circle id="Elipse_251" data-name="Elipse 251" cx="5.951" cy="5.951" r="5.951" transform="translate(639.173 3238.397)" fill="#999"/>
    <circle id="Elipse_252" data-name="Elipse 252" cx="5.951" cy="5.951" r="5.951" transform="translate(689.713 3238.397)" fill="#999"/>
    <circle id="Elipse_253" data-name="Elipse 253" cx="5.951" cy="5.951" r="5.951" transform="translate(796.108 3238.397)" fill="#999"/>
    <circle id="Elipse_254" data-name="Elipse 254" cx="5.951" cy="5.951" r="5.951" transform="translate(841.335 3238.397)" fill="#999"/>
    <circle id="Elipse_255" data-name="Elipse 255" cx="5.951" cy="5.951" r="5.951" transform="translate(891.875 3238.397)" fill="#999"/>
    <circle id="Elipse_256" data-name="Elipse 256" cx="5.951" cy="5.951" r="5.951" transform="translate(953.326 3238.397)" fill="#999"/>
    <circle id="Elipse_257" data-name="Elipse 257" cx="5.951" cy="5.951" r="5.951" transform="translate(1014.777 3238.397)" fill="#999"/>
    <circle id="Elipse_258" data-name="Elipse 258" cx="5.951" cy="5.951" r="5.951" transform="translate(1065.317 3238.397)" fill="#999"/>
    <circle id="Elipse_259" data-name="Elipse 259" cx="5.951" cy="5.951" r="5.951" transform="translate(1115.857 3238.397)" fill="#999"/>
    <circle id="Elipse_260" data-name="Elipse 260" cx="5.951" cy="5.951" r="5.951" transform="translate(1166.397 3238.397)" fill="#999"/>
    <circle id="Elipse_261" data-name="Elipse 261" cx="5.951" cy="5.951" r="5.951" transform="translate(1227.848 3238.397)" fill="#999"/>
    <g id="Grupo_10141" data-name="Grupo 10141">
      <path id="Trazado_2092" data-name="Trazado 2092" d="M488.493,3256.473l-9.584-9.584a2.72,2.72,0,0,1,0-3.849h0a2.721,2.721,0,0,1,3.849,0l5.734,5.734,15.752-15.752a2.723,2.723,0,0,1,3.85,0h0a2.723,2.723,0,0,1,0,3.85Z" fill="#33acb9"/>
    </g>
    <g id="Grupo_10142" data-name="Grupo 10142">
      <path id="Trazado_2093" data-name="Trazado 2093" d="M539.033,3256.473l-9.583-9.584a2.719,2.719,0,0,1,0-3.849h0a2.721,2.721,0,0,1,3.849,0l5.734,5.734,15.752-15.752a2.723,2.723,0,0,1,3.85,0h0a2.723,2.723,0,0,1,0,3.85Z" fill="#33acb9"/>
    </g>
    <g id="Grupo_10143" data-name="Grupo 10143">
      <path id="Trazado_2094" data-name="Trazado 2094" d="M741.2,3256.473l-9.584-9.584a2.721,2.721,0,0,1,0-3.849h0a2.722,2.722,0,0,1,3.85,0l5.734,5.734,15.752-15.752a2.723,2.723,0,0,1,3.85,0h0a2.723,2.723,0,0,1,0,3.85Z" fill="#33acb9"/>
    </g>
    <g id="Grupo_10144" data-name="Grupo 10144">
      <path id="Trazado_2095" data-name="Trazado 2095" d="M741.2,3294.769l-9.584-9.584a2.723,2.723,0,0,1,0-3.85h0a2.723,2.723,0,0,1,3.85,0l5.734,5.733,15.752-15.751a2.721,2.721,0,0,1,3.85,0h0a2.721,2.721,0,0,1,0,3.849Z" fill="#33acb9"/>
    </g>
    <g id="Grupo_10145" data-name="Grupo 10145">
      <path id="Trazado_2096" data-name="Trazado 2096" d="M741.2,3371.36l-9.584-9.584a2.722,2.722,0,0,1,0-3.85h0a2.723,2.723,0,0,1,3.85,0l5.734,5.733,15.752-15.751a2.723,2.723,0,0,1,3.85,0h0a2.721,2.721,0,0,1,0,3.849Z" fill="#33acb9"/>
    </g>
    <g id="Grupo_10146" data-name="Grupo 10146">
      <path id="Trazado_2097" data-name="Trazado 2097" d="M693.312,3371.36l-9.584-9.584a2.722,2.722,0,0,1,0-3.85h0a2.723,2.723,0,0,1,3.85,0l5.734,5.733,15.752-15.751a2.723,2.723,0,0,1,3.85,0h0a2.722,2.722,0,0,1,0,3.849Z" fill="#33acb9"/>
    </g>
    <g id="Grupo_10147" data-name="Grupo 10147">
      <path id="Trazado_2098" data-name="Trazado 2098" d="M892.817,3371.36l-9.584-9.584a2.722,2.722,0,0,1,0-3.85h0a2.723,2.723,0,0,1,3.85,0l5.734,5.733,15.752-15.751a2.723,2.723,0,0,1,3.85,0h0a2.722,2.722,0,0,1,0,3.849Z" fill="#33acb9"/>
    </g>
    <g id="Grupo_10148" data-name="Grupo 10148">
      <path id="Trazado_2099" data-name="Trazado 2099" d="M1015.718,3524.542l-9.583-9.584a2.723,2.723,0,0,1,0-3.85h0a2.723,2.723,0,0,1,3.85,0l5.733,5.734,15.753-15.752a2.723,2.723,0,0,1,3.85,0h0a2.722,2.722,0,0,1,0,3.85Z" fill="#33acb9"/>
    </g>
    <g id="Grupo_10149" data-name="Grupo 10149">
      <path id="Trazado_2100" data-name="Trazado 2100" d="M1167.339,3524.542l-9.584-9.584a2.723,2.723,0,0,1,0-3.85h0a2.721,2.721,0,0,1,3.849,0l5.734,5.734,15.752-15.752a2.723,2.723,0,0,1,3.85,0h0a2.722,2.722,0,0,1,0,3.85Z" fill="#33acb9"/>
    </g>
    <g id="Grupo_10150" data-name="Grupo 10150">
      <path id="Trazado_2101" data-name="Trazado 2101" d="M1015.718,3371.36l-9.583-9.584a2.722,2.722,0,0,1,0-3.85h0a2.723,2.723,0,0,1,3.85,0l5.733,5.733,15.753-15.751a2.723,2.723,0,0,1,3.85,0h0a2.722,2.722,0,0,1,0,3.849Z" fill="#33acb9"/>
    </g>
    <g id="Grupo_10151" data-name="Grupo 10151">
      <path id="Trazado_2102" data-name="Trazado 2102" d="M1167.339,3371.36l-9.584-9.584a2.722,2.722,0,0,1,0-3.85h0a2.721,2.721,0,0,1,3.849,0l5.734,5.733,15.752-15.751a2.723,2.723,0,0,1,3.85,0h0a2.722,2.722,0,0,1,0,3.849Z" fill="#33acb9"/>
    </g>
    <g id="Grupo_10152" data-name="Grupo 10152">
      <path id="Trazado_2103" data-name="Trazado 2103" d="M1167.339,3639.429l-9.584-9.584a2.722,2.722,0,0,1,0-3.85h0a2.721,2.721,0,0,1,3.849,0l5.734,5.733,15.752-15.752a2.723,2.723,0,0,1,3.85,0h0a2.722,2.722,0,0,1,0,3.85Z" fill="#33acb9"/>
    </g>
    <g id="Grupo_10153" data-name="Grupo 10153">
      <path id="Trazado_2104" data-name="Trazado 2104" d="M1066.258,3639.429l-9.583-9.584a2.722,2.722,0,0,1,0-3.85h0a2.722,2.722,0,0,1,3.85,0l5.733,5.733,15.753-15.752a2.723,2.723,0,0,1,3.85,0h0a2.722,2.722,0,0,1,0,3.85Z" fill="#33acb9"/>
    </g>
    <g id="Grupo_10154" data-name="Grupo 10154">
      <path id="Trazado_2105" data-name="Trazado 2105" d="M1228.79,3371.36l-9.584-9.584a2.722,2.722,0,0,1,0-3.85h0a2.723,2.723,0,0,1,3.85,0l5.734,5.733,15.752-15.751a2.723,2.723,0,0,1,3.85,0h0a2.722,2.722,0,0,1,0,3.849Z" fill="#33acb9"/>
    </g>
    <g id="Grupo_10155" data-name="Grupo 10155">
      <path id="Trazado_2106" data-name="Trazado 2106" d="M842.276,3371.36l-9.583-9.584a2.722,2.722,0,0,1,0-3.85h0a2.723,2.723,0,0,1,3.85,0l5.733,5.733,15.753-15.751a2.723,2.723,0,0,1,3.85,0h0a2.722,2.722,0,0,1,0,3.849Z" fill="#33acb9"/>
    </g>
    <g id="Grupo_10156" data-name="Grupo 10156">
      <path id="Trazado_2107" data-name="Trazado 2107" d="M640.115,3371.36l-9.584-9.584a2.722,2.722,0,0,1,0-3.85h0a2.723,2.723,0,0,1,3.85,0l5.734,5.733,15.752-15.751a2.723,2.723,0,0,1,3.85,0h0a2.721,2.721,0,0,1,0,3.849Z" fill="#33acb9"/>
    </g>
    <g id="Grupo_10157" data-name="Grupo 10157">
      <path id="Trazado_2108" data-name="Trazado 2108" d="M589.574,3371.36l-9.584-9.584a2.722,2.722,0,0,1,0-3.85h0a2.723,2.723,0,0,1,3.85,0l5.734,5.733,15.752-15.751a2.723,2.723,0,0,1,3.85,0h0a2.722,2.722,0,0,1,0,3.849Z" fill="#33acb9"/>
    </g>
    <g id="Grupo_10158" data-name="Grupo 10158">
      <path id="Trazado_2109" data-name="Trazado 2109" d="M741.2,3524.542l-9.584-9.584a2.723,2.723,0,0,1,0-3.85h0a2.723,2.723,0,0,1,3.85,0l5.734,5.734,15.752-15.752a2.723,2.723,0,0,1,3.85,0h0a2.722,2.722,0,0,1,0,3.85Z" fill="#33acb9"/>
    </g>
    <g id="Grupo_10159" data-name="Grupo 10159">
      <path id="Trazado_2110" data-name="Trazado 2110" d="M693.312,3524.542l-9.584-9.584a2.723,2.723,0,0,1,0-3.85h0a2.723,2.723,0,0,1,3.85,0l5.734,5.734,15.752-15.752a2.723,2.723,0,0,1,3.85,0h0a2.722,2.722,0,0,1,0,3.85Z" fill="#33acb9"/>
    </g>
    <g id="Grupo_10160" data-name="Grupo 10160">
      <path id="Trazado_2111" data-name="Trazado 2111" d="M640.115,3524.542l-9.584-9.584a2.723,2.723,0,0,1,0-3.85h0a2.723,2.723,0,0,1,3.85,0l5.734,5.734,15.752-15.752a2.723,2.723,0,0,1,3.85,0h0a2.722,2.722,0,0,1,0,3.85Z" fill="#33acb9"/>
    </g>
    <g id="Grupo_10161" data-name="Grupo 10161">
      <path id="Trazado_2112" data-name="Trazado 2112" d="M741.2,3601.133l-9.584-9.584a2.723,2.723,0,0,1,0-3.85h0a2.723,2.723,0,0,1,3.85,0l5.734,5.734,15.752-15.752a2.723,2.723,0,0,1,3.85,0h0a2.723,2.723,0,0,1,0,3.85Z" fill="#33acb9"/>
    </g>
    <g id="Grupo_10162" data-name="Grupo 10162">
      <path id="Trazado_2113" data-name="Trazado 2113" d="M693.312,3601.133l-9.584-9.584a2.723,2.723,0,0,1,0-3.85h0a2.723,2.723,0,0,1,3.85,0l5.734,5.734,15.752-15.752a2.723,2.723,0,0,1,3.85,0h0a2.723,2.723,0,0,1,0,3.85Z" fill="#33acb9"/>
    </g>
    <g id="Grupo_10163" data-name="Grupo 10163">
      <path id="Trazado_2114" data-name="Trazado 2114" d="M640.115,3601.133l-9.584-9.584a2.723,2.723,0,0,1,0-3.85h0a2.723,2.723,0,0,1,3.85,0l5.734,5.734,15.752-15.752a2.723,2.723,0,0,1,3.85,0h0a2.723,2.723,0,0,1,0,3.85Z" fill="#33acb9"/>
    </g>
    <g id="Grupo_10164" data-name="Grupo 10164">
      <path id="Trazado_2115" data-name="Trazado 2115" d="M693.312,3562.838l-9.584-9.584a2.722,2.722,0,0,1,0-3.85h0a2.723,2.723,0,0,1,3.85,0l5.734,5.733,15.752-15.752a2.723,2.723,0,0,1,3.85,0h0a2.723,2.723,0,0,1,0,3.85Z" fill="#33acb9"/>
    </g>
    <g id="Grupo_10165" data-name="Grupo 10165">
      <path id="Trazado_2116" data-name="Trazado 2116" d="M640.115,3562.838l-9.584-9.584a2.722,2.722,0,0,1,0-3.85h0a2.723,2.723,0,0,1,3.85,0l5.734,5.733,15.752-15.752a2.723,2.723,0,0,1,3.85,0h0a2.723,2.723,0,0,1,0,3.85Z" fill="#33acb9"/>
    </g>
    <g id="Grupo_10166" data-name="Grupo 10166">
      <path id="Trazado_2117" data-name="Trazado 2117" d="M589.574,3524.542l-9.584-9.584a2.723,2.723,0,0,1,0-3.85h0a2.723,2.723,0,0,1,3.85,0l5.734,5.734,15.752-15.752a2.723,2.723,0,0,1,3.85,0h0a2.722,2.722,0,0,1,0,3.85Z" fill="#33acb9"/>
    </g>
    <g id="Grupo_10167" data-name="Grupo 10167">
      <path id="Trazado_2118" data-name="Trazado 2118" d="M693.312,3639.429l-9.584-9.584a2.722,2.722,0,0,1,0-3.85h0a2.722,2.722,0,0,1,3.85,0l5.734,5.733,15.752-15.752a2.723,2.723,0,0,1,3.85,0h0a2.722,2.722,0,0,1,0,3.85Z" fill="#33acb9"/>
    </g>
    <g id="Grupo_10168" data-name="Grupo 10168">
      <path id="Trazado_2119" data-name="Trazado 2119" d="M640.115,3639.429l-9.584-9.584a2.722,2.722,0,0,1,0-3.85h0a2.722,2.722,0,0,1,3.85,0l5.734,5.733,15.752-15.752a2.723,2.723,0,0,1,3.85,0h0a2.722,2.722,0,0,1,0,3.85Z" fill="#33acb9"/>
    </g>
    <g id="Grupo_10169" data-name="Grupo 10169">
      <path id="Trazado_2120" data-name="Trazado 2120" d="M589.574,3639.429l-9.584-9.584a2.722,2.722,0,0,1,0-3.85h0a2.722,2.722,0,0,1,3.85,0l5.734,5.733,15.752-15.752a2.723,2.723,0,0,1,3.85,0h0a2.722,2.722,0,0,1,0,3.85Z" fill="#33acb9"/>
    </g>
    <circle id="Elipse_262" data-name="Elipse 262" cx="5.951" cy="5.951" r="5.951" transform="translate(588.632 3276.693)" fill="#999"/>
    <circle id="Elipse_263" data-name="Elipse 263" cx="5.951" cy="5.951" r="5.951" transform="translate(639.173 3276.693)" fill="#999"/>
    <circle id="Elipse_264" data-name="Elipse 264" cx="5.951" cy="5.951" r="5.951" transform="translate(689.713 3276.693)" fill="#999"/>
    <circle id="Elipse_265" data-name="Elipse 265" cx="5.951" cy="5.951" r="5.951" transform="translate(796.108 3276.693)" fill="#999"/>
    <circle id="Elipse_266" data-name="Elipse 266" cx="5.951" cy="5.951" r="5.951" transform="translate(841.335 3276.693)" fill="#999"/>
    <circle id="Elipse_267" data-name="Elipse 267" cx="5.951" cy="5.951" r="5.951" transform="translate(891.875 3276.693)" fill="#999"/>
    <circle id="Elipse_268" data-name="Elipse 268" cx="5.951" cy="5.951" r="5.951" transform="translate(953.326 3276.693)" fill="#999"/>
    <circle id="Elipse_269" data-name="Elipse 269" cx="5.951" cy="5.951" r="5.951" transform="translate(1014.777 3276.693)" fill="#999"/>
    <circle id="Elipse_270" data-name="Elipse 270" cx="5.951" cy="5.951" r="5.951" transform="translate(1065.317 3276.693)" fill="#999"/>
    <circle id="Elipse_271" data-name="Elipse 271" cx="5.951" cy="5.951" r="5.951" transform="translate(1115.857 3276.693)" fill="#999"/>
    <circle id="Elipse_272" data-name="Elipse 272" cx="5.951" cy="5.951" r="5.951" transform="translate(1166.397 3276.693)" fill="#999"/>
    <circle id="Elipse_273" data-name="Elipse 273" cx="5.951" cy="5.951" r="5.951" transform="translate(1227.848 3276.693)" fill="#999"/>
    <g id="Grupo_10170" data-name="Grupo 10170">
      <path id="Trazado_2121" data-name="Trazado 2121" d="M488.493,3294.769l-9.584-9.584a2.722,2.722,0,0,1,0-3.85h0a2.721,2.721,0,0,1,3.849,0l5.734,5.733,15.752-15.751a2.721,2.721,0,0,1,3.85,0h0a2.722,2.722,0,0,1,0,3.849Z" fill="#33acb9"/>
    </g>
    <g id="Grupo_10171" data-name="Grupo 10171">
      <path id="Trazado_2122" data-name="Trazado 2122" d="M539.033,3294.769l-9.583-9.584a2.721,2.721,0,0,1,0-3.85h0a2.721,2.721,0,0,1,3.849,0l5.734,5.733,15.752-15.751a2.721,2.721,0,0,1,3.85,0h0a2.722,2.722,0,0,1,0,3.849Z" fill="#33acb9"/>
    </g>
    <circle id="Elipse_274" data-name="Elipse 274" cx="5.951" cy="5.951" r="5.951" transform="translate(588.632 3314.989)" fill="#999"/>
    <circle id="Elipse_275" data-name="Elipse 275" cx="5.951" cy="5.951" r="5.951" transform="translate(639.173 3314.989)" fill="#999"/>
    <circle id="Elipse_276" data-name="Elipse 276" cx="5.951" cy="5.951" r="5.951" transform="translate(689.713 3314.989)" fill="#999"/>
    <circle id="Elipse_277" data-name="Elipse 277" cx="5.951" cy="5.951" r="5.951" transform="translate(796.108 3314.989)" fill="#999"/>
    <circle id="Elipse_278" data-name="Elipse 278" cx="5.951" cy="5.951" r="5.951" transform="translate(740.254 3314.989)" fill="#999"/>
    <circle id="Elipse_279" data-name="Elipse 279" cx="5.951" cy="5.951" r="5.951" transform="translate(841.335 3314.989)" fill="#999"/>
    <circle id="Elipse_280" data-name="Elipse 280" cx="5.951" cy="5.951" r="5.951" transform="translate(891.875 3314.989)" fill="#999"/>
    <circle id="Elipse_281" data-name="Elipse 281" cx="5.951" cy="5.951" r="5.951" transform="translate(953.326 3314.989)" fill="#999"/>
    <circle id="Elipse_282" data-name="Elipse 282" cx="5.951" cy="5.951" r="5.951" transform="translate(1014.777 3314.989)" fill="#999"/>
    <circle id="Elipse_283" data-name="Elipse 283" cx="5.951" cy="5.951" r="5.951" transform="translate(1065.317 3314.989)" fill="#999"/>
    <circle id="Elipse_284" data-name="Elipse 284" cx="5.951" cy="5.951" r="5.951" transform="translate(1115.857 3314.989)" fill="#999"/>
    <circle id="Elipse_285" data-name="Elipse 285" cx="5.951" cy="5.951" r="5.951" transform="translate(1166.397 3314.989)" fill="#999"/>
    <circle id="Elipse_286" data-name="Elipse 286" cx="5.951" cy="5.951" r="5.951" transform="translate(1227.848 3314.989)" fill="#999"/>
    <g id="Grupo_10172" data-name="Grupo 10172">
      <path id="Trazado_2123" data-name="Trazado 2123" d="M488.493,3333.065l-9.584-9.585a2.72,2.72,0,0,1,0-3.849h0a2.72,2.72,0,0,1,3.849,0l5.734,5.733,15.752-15.752a2.723,2.723,0,0,1,3.85,0h0a2.722,2.722,0,0,1,0,3.85Z" fill="#33acb9"/>
    </g>
    <g id="Grupo_10173" data-name="Grupo 10173">
      <path id="Trazado_2124" data-name="Trazado 2124" d="M539.033,3333.065l-9.583-9.585a2.719,2.719,0,0,1,0-3.849h0a2.72,2.72,0,0,1,3.849,0l5.734,5.733,15.752-15.752a2.723,2.723,0,0,1,3.85,0h0a2.722,2.722,0,0,1,0,3.85Z" fill="#33acb9"/>
    </g>
    <circle id="Elipse_287" data-name="Elipse 287" cx="5.951" cy="5.951" r="5.951" transform="translate(796.108 3353.284)" fill="#999"/>
    <circle id="Elipse_288" data-name="Elipse 288" cx="5.951" cy="5.951" r="5.951" transform="translate(953.326 3353.284)" fill="#999"/>
    <circle id="Elipse_289" data-name="Elipse 289" cx="5.951" cy="5.951" r="5.951" transform="translate(1065.317 3353.284)" fill="#999"/>
    <circle id="Elipse_290" data-name="Elipse 290" cx="5.951" cy="5.951" r="5.951" transform="translate(1115.857 3353.284)" fill="#999"/>
    <g id="Grupo_10174" data-name="Grupo 10174">
      <path id="Trazado_2125" data-name="Trazado 2125" d="M488.493,3371.36l-9.584-9.584a2.722,2.722,0,0,1,0-3.85h0a2.721,2.721,0,0,1,3.849,0l5.734,5.733,15.752-15.751a2.723,2.723,0,0,1,3.85,0h0a2.722,2.722,0,0,1,0,3.849Z" fill="#33acb9"/>
    </g>
    <g id="Grupo_10175" data-name="Grupo 10175">
      <path id="Trazado_2126" data-name="Trazado 2126" d="M539.033,3371.36l-9.583-9.584a2.721,2.721,0,0,1,0-3.85h0a2.721,2.721,0,0,1,3.849,0l5.734,5.733,15.752-15.751a2.723,2.723,0,0,1,3.85,0h0a2.722,2.722,0,0,1,0,3.849Z" fill="#33acb9"/>
    </g>
    <circle id="Elipse_291" data-name="Elipse 291" cx="5.951" cy="5.951" r="5.951" transform="translate(588.632 3391.58)" fill="#999"/>
    <circle id="Elipse_292" data-name="Elipse 292" cx="5.951" cy="5.951" r="5.951" transform="translate(639.173 3391.58)" fill="#999"/>
    <circle id="Elipse_293" data-name="Elipse 293" cx="5.951" cy="5.951" r="5.951" transform="translate(689.713 3391.58)" fill="#999"/>
    <circle id="Elipse_294" data-name="Elipse 294" cx="5.951" cy="5.951" r="5.951" transform="translate(796.108 3391.58)" fill="#999"/>
    <circle id="Elipse_295" data-name="Elipse 295" cx="5.951" cy="5.951" r="5.951" transform="translate(740.254 3391.58)" fill="#999"/>
    <circle id="Elipse_296" data-name="Elipse 296" cx="5.951" cy="5.951" r="5.951" transform="translate(841.335 3391.58)" fill="#999"/>
    <circle id="Elipse_297" data-name="Elipse 297" cx="5.951" cy="5.951" r="5.951" transform="translate(891.875 3391.58)" fill="#999"/>
    <circle id="Elipse_298" data-name="Elipse 298" cx="5.951" cy="5.951" r="5.951" transform="translate(953.326 3391.58)" fill="#999"/>
    <circle id="Elipse_299" data-name="Elipse 299" cx="5.951" cy="5.951" r="5.951" transform="translate(1014.777 3391.58)" fill="#999"/>
    <circle id="Elipse_300" data-name="Elipse 300" cx="5.951" cy="5.951" r="5.951" transform="translate(1065.317 3391.58)" fill="#999"/>
    <circle id="Elipse_301" data-name="Elipse 301" cx="5.951" cy="5.951" r="5.951" transform="translate(1115.857 3391.58)" fill="#999"/>
    <circle id="Elipse_302" data-name="Elipse 302" cx="5.951" cy="5.951" r="5.951" transform="translate(1166.397 3391.58)" fill="#999"/>
    <circle id="Elipse_303" data-name="Elipse 303" cx="5.951" cy="5.951" r="5.951" transform="translate(1227.848 3391.58)" fill="#999"/>
    <g id="Grupo_10176" data-name="Grupo 10176">
      <path id="Trazado_2127" data-name="Trazado 2127" d="M488.493,3409.656l-9.584-9.584a2.722,2.722,0,0,1,0-3.85h0a2.721,2.721,0,0,1,3.849,0l5.734,5.733,15.752-15.752a2.723,2.723,0,0,1,3.85,0h0a2.723,2.723,0,0,1,0,3.85Z" fill="#33acb9"/>
    </g>
    <g id="Grupo_10177" data-name="Grupo 10177">
      <path id="Trazado_2128" data-name="Trazado 2128" d="M539.033,3409.656l-9.583-9.584a2.721,2.721,0,0,1,0-3.85h0a2.721,2.721,0,0,1,3.849,0l5.734,5.733,15.752-15.752a2.723,2.723,0,0,1,3.85,0h0a2.723,2.723,0,0,1,0,3.85Z" fill="#33acb9"/>
    </g>
    <circle id="Elipse_304" data-name="Elipse 304" cx="5.951" cy="5.951" r="5.951" transform="translate(588.632 3429.875)" fill="#999"/>
    <circle id="Elipse_305" data-name="Elipse 305" cx="5.951" cy="5.951" r="5.951" transform="translate(639.173 3429.875)" fill="#999"/>
    <circle id="Elipse_306" data-name="Elipse 306" cx="5.951" cy="5.951" r="5.951" transform="translate(689.713 3429.875)" fill="#999"/>
    <circle id="Elipse_307" data-name="Elipse 307" cx="5.951" cy="5.951" r="5.951" transform="translate(796.108 3429.875)" fill="#999"/>
    <circle id="Elipse_308" data-name="Elipse 308" cx="5.951" cy="5.951" r="5.951" transform="translate(740.254 3429.875)" fill="#999"/>
    <circle id="Elipse_309" data-name="Elipse 309" cx="5.951" cy="5.951" r="5.951" transform="translate(841.335 3429.875)" fill="#999"/>
    <circle id="Elipse_310" data-name="Elipse 310" cx="5.951" cy="5.951" r="5.951" transform="translate(891.875 3429.875)" fill="#999"/>
    <circle id="Elipse_311" data-name="Elipse 311" cx="5.951" cy="5.951" r="5.951" transform="translate(953.326 3429.875)" fill="#999"/>
    <circle id="Elipse_312" data-name="Elipse 312" cx="5.951" cy="5.951" r="5.951" transform="translate(1014.777 3429.875)" fill="#999"/>
    <circle id="Elipse_313" data-name="Elipse 313" cx="5.951" cy="5.951" r="5.951" transform="translate(1065.317 3429.875)" fill="#999"/>
    <circle id="Elipse_314" data-name="Elipse 314" cx="5.951" cy="5.951" r="5.951" transform="translate(1115.857 3429.875)" fill="#999"/>
    <circle id="Elipse_315" data-name="Elipse 315" cx="5.951" cy="5.951" r="5.951" transform="translate(1166.397 3429.875)" fill="#999"/>
    <circle id="Elipse_316" data-name="Elipse 316" cx="5.951" cy="5.951" r="5.951" transform="translate(1227.848 3429.875)" fill="#999"/>
    <g id="Grupo_10178" data-name="Grupo 10178">
      <path id="Trazado_2129" data-name="Trazado 2129" d="M488.493,3447.951l-9.584-9.584a2.722,2.722,0,0,1,0-3.85h0a2.721,2.721,0,0,1,3.849,0l5.734,5.733,15.752-15.751a2.723,2.723,0,0,1,3.85,0h0a2.723,2.723,0,0,1,0,3.85Z" fill="#33acb9"/>
    </g>
    <g id="Grupo_10179" data-name="Grupo 10179">
      <path id="Trazado_2130" data-name="Trazado 2130" d="M539.033,3447.951l-9.583-9.584a2.721,2.721,0,0,1,0-3.85h0a2.721,2.721,0,0,1,3.849,0l5.734,5.733,15.752-15.751a2.723,2.723,0,0,1,3.85,0h0a2.723,2.723,0,0,1,0,3.85Z" fill="#33acb9"/>
    </g>
    <circle id="Elipse_317" data-name="Elipse 317" cx="5.951" cy="5.951" r="5.951" transform="translate(588.632 3468.171)" fill="#999"/>
    <circle id="Elipse_318" data-name="Elipse 318" cx="5.951" cy="5.951" r="5.951" transform="translate(639.173 3468.171)" fill="#999"/>
    <circle id="Elipse_319" data-name="Elipse 319" cx="5.951" cy="5.951" r="5.951" transform="translate(689.713 3468.171)" fill="#999"/>
    <circle id="Elipse_320" data-name="Elipse 320" cx="5.951" cy="5.951" r="5.951" transform="translate(796.108 3468.171)" fill="#999"/>
    <circle id="Elipse_321" data-name="Elipse 321" cx="5.951" cy="5.951" r="5.951" transform="translate(740.254 3468.171)" fill="#999"/>
    <circle id="Elipse_322" data-name="Elipse 322" cx="5.951" cy="5.951" r="5.951" transform="translate(841.335 3468.171)" fill="#999"/>
    <circle id="Elipse_323" data-name="Elipse 323" cx="5.951" cy="5.951" r="5.951" transform="translate(891.875 3468.171)" fill="#999"/>
    <circle id="Elipse_324" data-name="Elipse 324" cx="5.951" cy="5.951" r="5.951" transform="translate(953.326 3468.171)" fill="#999"/>
    <circle id="Elipse_325" data-name="Elipse 325" cx="5.951" cy="5.951" r="5.951" transform="translate(1014.777 3468.171)" fill="#999"/>
    <circle id="Elipse_326" data-name="Elipse 326" cx="5.951" cy="5.951" r="5.951" transform="translate(1065.317 3468.171)" fill="#999"/>
    <circle id="Elipse_327" data-name="Elipse 327" cx="5.951" cy="5.951" r="5.951" transform="translate(1115.857 3468.171)" fill="#999"/>
    <circle id="Elipse_328" data-name="Elipse 328" cx="5.951" cy="5.951" r="5.951" transform="translate(1166.397 3468.171)" fill="#999"/>
    <circle id="Elipse_329" data-name="Elipse 329" cx="5.951" cy="5.951" r="5.951" transform="translate(1227.848 3468.171)" fill="#999"/>
    <g id="Grupo_10180" data-name="Grupo 10180">
      <path id="Trazado_2131" data-name="Trazado 2131" d="M488.493,3486.247l-9.584-9.584a2.722,2.722,0,0,1,0-3.85h0a2.721,2.721,0,0,1,3.849,0l5.734,5.733,15.752-15.752a2.723,2.723,0,0,1,3.85,0h0a2.723,2.723,0,0,1,0,3.85Z" fill="#33acb9"/>
    </g>
    <g id="Grupo_10181" data-name="Grupo 10181">
      <path id="Trazado_2132" data-name="Trazado 2132" d="M539.033,3486.247l-9.583-9.584a2.721,2.721,0,0,1,0-3.85h0a2.721,2.721,0,0,1,3.849,0l5.734,5.733,15.752-15.752a2.723,2.723,0,0,1,3.85,0h0a2.723,2.723,0,0,1,0,3.85Z" fill="#33acb9"/>
    </g>
    <circle id="Elipse_330" data-name="Elipse 330" cx="5.951" cy="5.951" r="5.951" transform="translate(796.108 3506.466)" fill="#999"/>
    <circle id="Elipse_331" data-name="Elipse 331" cx="5.951" cy="5.951" r="5.951" transform="translate(841.335 3506.466)" fill="#999"/>
    <circle id="Elipse_332" data-name="Elipse 332" cx="5.951" cy="5.951" r="5.951" transform="translate(891.875 3506.466)" fill="#999"/>
    <circle id="Elipse_333" data-name="Elipse 333" cx="5.951" cy="5.951" r="5.951" transform="translate(953.326 3506.466)" fill="#999"/>
    <circle id="Elipse_334" data-name="Elipse 334" cx="5.951" cy="5.951" r="5.951" transform="translate(1065.317 3506.466)" fill="#999"/>
    <circle id="Elipse_335" data-name="Elipse 335" cx="5.951" cy="5.951" r="5.951" transform="translate(1115.857 3506.466)" fill="#999"/>
    <circle id="Elipse_336" data-name="Elipse 336" cx="5.951" cy="5.951" r="5.951" transform="translate(1227.848 3506.466)" fill="#999"/>
    <g id="Grupo_10182" data-name="Grupo 10182">
      <path id="Trazado_2133" data-name="Trazado 2133" d="M488.493,3524.542l-9.584-9.584a2.722,2.722,0,0,1,0-3.85h0a2.721,2.721,0,0,1,3.849,0l5.734,5.734,15.752-15.752a2.723,2.723,0,0,1,3.85,0h0a2.722,2.722,0,0,1,0,3.85Z" fill="#33acb9"/>
    </g>
    <g id="Grupo_10183" data-name="Grupo 10183">
      <path id="Trazado_2134" data-name="Trazado 2134" d="M539.033,3524.542l-9.583-9.584a2.721,2.721,0,0,1,0-3.85h0a2.721,2.721,0,0,1,3.849,0l5.734,5.734,15.752-15.752a2.723,2.723,0,0,1,3.85,0h0a2.722,2.722,0,0,1,0,3.85Z" fill="#33acb9"/>
    </g>
    <circle id="Elipse_337" data-name="Elipse 337" cx="5.951" cy="5.951" r="5.951" transform="translate(588.632 3544.762)" fill="#999"/>
    <circle id="Elipse_338" data-name="Elipse 338" cx="5.951" cy="5.951" r="5.951" transform="translate(796.108 3544.762)" fill="#999"/>
    <circle id="Elipse_339" data-name="Elipse 339" cx="5.951" cy="5.951" r="5.951" transform="translate(740.254 3544.762)" fill="#999"/>
    <circle id="Elipse_340" data-name="Elipse 340" cx="5.951" cy="5.951" r="5.951" transform="translate(841.335 3544.762)" fill="#999"/>
    <circle id="Elipse_341" data-name="Elipse 341" cx="5.951" cy="5.951" r="5.951" transform="translate(891.875 3544.762)" fill="#999"/>
    <circle id="Elipse_342" data-name="Elipse 342" cx="5.951" cy="5.951" r="5.951" transform="translate(953.326 3544.762)" fill="#999"/>
    <circle id="Elipse_343" data-name="Elipse 343" cx="5.951" cy="5.951" r="5.951" transform="translate(1014.777 3544.762)" fill="#999"/>
    <circle id="Elipse_344" data-name="Elipse 344" cx="5.951" cy="5.951" r="5.951" transform="translate(1065.317 3544.762)" fill="#999"/>
    <circle id="Elipse_345" data-name="Elipse 345" cx="5.951" cy="5.951" r="5.951" transform="translate(1115.857 3544.762)" fill="#999"/>
    <circle id="Elipse_346" data-name="Elipse 346" cx="5.951" cy="5.951" r="5.951" transform="translate(1166.397 3544.762)" fill="#999"/>
    <circle id="Elipse_347" data-name="Elipse 347" cx="5.951" cy="5.951" r="5.951" transform="translate(1227.848 3544.762)" fill="#999"/>
    <g id="Grupo_10184" data-name="Grupo 10184">
      <path id="Trazado_2135" data-name="Trazado 2135" d="M488.493,3562.838l-9.584-9.584a2.722,2.722,0,0,1,0-3.85h0a2.721,2.721,0,0,1,3.849,0l5.734,5.733,15.752-15.752a2.723,2.723,0,0,1,3.85,0h0a2.723,2.723,0,0,1,0,3.85Z" fill="#33acb9"/>
    </g>
    <g id="Grupo_10185" data-name="Grupo 10185">
      <path id="Trazado_2136" data-name="Trazado 2136" d="M539.033,3562.838l-9.583-9.584a2.721,2.721,0,0,1,0-3.85h0a2.721,2.721,0,0,1,3.849,0l5.734,5.733,15.752-15.752a2.723,2.723,0,0,1,3.85,0h0a2.723,2.723,0,0,1,0,3.85Z" fill="#33acb9"/>
    </g>
    <circle id="Elipse_348" data-name="Elipse 348" cx="5.951" cy="5.951" r="5.951" transform="translate(588.632 3583.057)" fill="#999"/>
    <circle id="Elipse_349" data-name="Elipse 349" cx="5.951" cy="5.951" r="5.951" transform="translate(796.108 3583.057)" fill="#999"/>
    <circle id="Elipse_350" data-name="Elipse 350" cx="5.951" cy="5.951" r="5.951" transform="translate(841.335 3583.057)" fill="#999"/>
    <circle id="Elipse_351" data-name="Elipse 351" cx="5.951" cy="5.951" r="5.951" transform="translate(891.875 3583.057)" fill="#999"/>
    <circle id="Elipse_352" data-name="Elipse 352" cx="5.951" cy="5.951" r="5.951" transform="translate(953.326 3583.057)" fill="#999"/>
    <circle id="Elipse_353" data-name="Elipse 353" cx="5.951" cy="5.951" r="5.951" transform="translate(1014.777 3583.057)" fill="#999"/>
    <circle id="Elipse_354" data-name="Elipse 354" cx="5.951" cy="5.951" r="5.951" transform="translate(1065.317 3583.057)" fill="#999"/>
    <circle id="Elipse_355" data-name="Elipse 355" cx="5.951" cy="5.951" r="5.951" transform="translate(1115.857 3583.057)" fill="#999"/>
    <circle id="Elipse_356" data-name="Elipse 356" cx="5.951" cy="5.951" r="5.951" transform="translate(1166.397 3583.057)" fill="#999"/>
    <circle id="Elipse_357" data-name="Elipse 357" cx="5.951" cy="5.951" r="5.951" transform="translate(1227.848 3583.057)" fill="#999"/>
    <g id="Grupo_10186" data-name="Grupo 10186">
      <path id="Trazado_2137" data-name="Trazado 2137" d="M488.493,3601.133l-9.584-9.584a2.722,2.722,0,0,1,0-3.85h0a2.721,2.721,0,0,1,3.849,0l5.734,5.734,15.752-15.752a2.723,2.723,0,0,1,3.85,0h0a2.723,2.723,0,0,1,0,3.85Z" fill="#33acb9"/>
    </g>
    <g id="Grupo_10187" data-name="Grupo 10187">
      <path id="Trazado_2138" data-name="Trazado 2138" d="M539.033,3601.133l-9.583-9.584a2.721,2.721,0,0,1,0-3.85h0a2.721,2.721,0,0,1,3.849,0l5.734,5.734,15.752-15.752a2.723,2.723,0,0,1,3.85,0h0a2.723,2.723,0,0,1,0,3.85Z" fill="#33acb9"/>
    </g>
    <circle id="Elipse_358" data-name="Elipse 358" cx="5.951" cy="5.951" r="5.951" transform="translate(796.108 3621.353)" fill="#999"/>
    <circle id="Elipse_359" data-name="Elipse 359" cx="5.951" cy="5.951" r="5.951" transform="translate(740.254 3621.353)" fill="#999"/>
    <circle id="Elipse_360" data-name="Elipse 360" cx="5.951" cy="5.951" r="5.951" transform="translate(841.335 3621.353)" fill="#999"/>
    <circle id="Elipse_361" data-name="Elipse 361" cx="5.951" cy="5.951" r="5.951" transform="translate(891.875 3621.353)" fill="#999"/>
    <circle id="Elipse_362" data-name="Elipse 362" cx="5.951" cy="5.951" r="5.951" transform="translate(953.326 3621.353)" fill="#999"/>
    <circle id="Elipse_363" data-name="Elipse 363" cx="5.951" cy="5.951" r="5.951" transform="translate(1014.777 3621.353)" fill="#999"/>
    <circle id="Elipse_364" data-name="Elipse 364" cx="5.951" cy="5.951" r="5.951" transform="translate(1115.857 3621.353)" fill="#999"/>
    <circle id="Elipse_365" data-name="Elipse 365" cx="5.951" cy="5.951" r="5.951" transform="translate(1227.848 3621.353)" fill="#999"/>
    <g id="Grupo_10188" data-name="Grupo 10188">
      <path id="Trazado_2139" data-name="Trazado 2139" d="M488.493,3639.429l-9.584-9.584a2.722,2.722,0,0,1,0-3.85h0a2.721,2.721,0,0,1,3.849,0l5.734,5.733,15.752-15.752a2.723,2.723,0,0,1,3.85,0h0a2.722,2.722,0,0,1,0,3.85Z" fill="#33acb9"/>
    </g>
    <g id="Grupo_10189" data-name="Grupo 10189">
      <path id="Trazado_2140" data-name="Trazado 2140" d="M539.033,3639.429l-9.583-9.584a2.721,2.721,0,0,1,0-3.85h0a2.721,2.721,0,0,1,3.849,0l5.734,5.733,15.752-15.752a2.723,2.723,0,0,1,3.85,0h0a2.722,2.722,0,0,1,0,3.85Z" fill="#33acb9"/>
    </g>
    <circle id="Elipse_366" data-name="Elipse 366" cx="5.951" cy="5.951" r="5.951" transform="translate(796.108 3697.944)" fill="#999"/>
    <circle id="Elipse_367" data-name="Elipse 367" cx="5.951" cy="5.951" r="5.951" transform="translate(891.875 3697.944)" fill="#999"/>
    <circle id="Elipse_368" data-name="Elipse 368" cx="5.951" cy="5.951" r="5.951" transform="translate(953.326 3697.944)" fill="#999"/>
    <circle id="Elipse_369" data-name="Elipse 369" cx="5.951" cy="5.951" r="5.951" transform="translate(1014.777 3697.944)" fill="#999"/>
    <circle id="Elipse_370" data-name="Elipse 370" cx="5.951" cy="5.951" r="5.951" transform="translate(1065.317 3697.944)" fill="#999"/>
    <circle id="Elipse_371" data-name="Elipse 371" cx="5.951" cy="5.951" r="5.951" transform="translate(1115.857 3697.944)" fill="#999"/>
    <g id="Grupo_10190" data-name="Grupo 10190">
      <path id="Trazado_2141" data-name="Trazado 2141" d="M488.493,3716.02l-9.584-9.584a2.722,2.722,0,0,1,0-3.85h0a2.721,2.721,0,0,1,3.849,0l5.734,5.733,15.752-15.752a2.723,2.723,0,0,1,3.85,0h0a2.723,2.723,0,0,1,0,3.85Z" fill="#33acb9"/>
    </g>
    <g id="Grupo_10191" data-name="Grupo 10191">
      <path id="Trazado_2142" data-name="Trazado 2142" d="M539.033,3716.02l-9.583-9.584a2.721,2.721,0,0,1,0-3.85h0a2.721,2.721,0,0,1,3.849,0l5.734,5.733,15.752-15.752a2.723,2.723,0,0,1,3.85,0h0a2.723,2.723,0,0,1,0,3.85Z" fill="#33acb9"/>
    </g>
    <circle id="Elipse_372" data-name="Elipse 372" cx="5.951" cy="5.951" r="5.951" transform="translate(796.108 3736.239)" fill="#999"/>
    <circle id="Elipse_373" data-name="Elipse 373" cx="5.951" cy="5.951" r="5.951" transform="translate(841.335 3736.239)" fill="#999"/>
    <circle id="Elipse_374" data-name="Elipse 374" cx="5.951" cy="5.951" r="5.951" transform="translate(891.875 3736.239)" fill="#999"/>
    <circle id="Elipse_375" data-name="Elipse 375" cx="5.951" cy="5.951" r="5.951" transform="translate(953.326 3736.239)" fill="#999"/>
    <circle id="Elipse_376" data-name="Elipse 376" cx="5.951" cy="5.951" r="5.951" transform="translate(1014.777 3736.239)" fill="#999"/>
    <circle id="Elipse_377" data-name="Elipse 377" cx="5.951" cy="5.951" r="5.951" transform="translate(1227.848 3736.239)" fill="#999"/>
    <g id="Grupo_10192" data-name="Grupo 10192">
      <path id="Trazado_2143" data-name="Trazado 2143" d="M488.493,3754.315l-9.584-9.584a2.722,2.722,0,0,1,0-3.85h0a2.721,2.721,0,0,1,3.849,0l5.734,5.734,15.752-15.752a2.723,2.723,0,0,1,3.85,0h0a2.722,2.722,0,0,1,0,3.85Z" fill="#33acb9"/>
    </g>
    <g id="Grupo_10193" data-name="Grupo 10193">
      <path id="Trazado_2144" data-name="Trazado 2144" d="M539.033,3754.315l-9.583-9.584a2.721,2.721,0,0,1,0-3.85h0a2.721,2.721,0,0,1,3.849,0l5.734,5.734,15.752-15.752a2.723,2.723,0,0,1,3.85,0h0a2.722,2.722,0,0,1,0,3.85Z" fill="#33acb9"/>
    </g>
    <circle id="Elipse_378" data-name="Elipse 378" cx="5.951" cy="5.951" r="5.951" transform="translate(740.254 3774.535)" fill="#999"/>
    <g id="Grupo_10194" data-name="Grupo 10194">
      <path id="Trazado_2145" data-name="Trazado 2145" d="M488.493,3792.611l-9.584-9.584a2.722,2.722,0,0,1,0-3.85h0a2.721,2.721,0,0,1,3.849,0l5.734,5.733,15.752-15.752a2.723,2.723,0,0,1,3.85,0h0a2.723,2.723,0,0,1,0,3.85Z" fill="#33acb9"/>
    </g>
    <g id="Grupo_10195" data-name="Grupo 10195">
      <path id="Trazado_2146" data-name="Trazado 2146" d="M539.033,3792.611l-9.583-9.584a2.721,2.721,0,0,1,0-3.85h0a2.721,2.721,0,0,1,3.849,0l5.734,5.733,15.752-15.752a2.723,2.723,0,0,1,3.85,0h0a2.723,2.723,0,0,1,0,3.85Z" fill="#33acb9"/>
    </g>
    <circle id="Elipse_379" data-name="Elipse 379" cx="5.951" cy="5.951" r="5.951" transform="translate(689.713 3812.83)" fill="#999"/>
    <circle id="Elipse_380" data-name="Elipse 380" cx="5.951" cy="5.951" r="5.951" transform="translate(740.254 3812.83)" fill="#999"/>
    <circle id="Elipse_381" data-name="Elipse 381" cx="5.951" cy="5.951" r="5.951" transform="translate(841.335 3812.83)" fill="#999"/>
    <circle id="Elipse_382" data-name="Elipse 382" cx="5.951" cy="5.951" r="5.951" transform="translate(891.875 3812.83)" fill="#999"/>
    <circle id="Elipse_383" data-name="Elipse 383" cx="5.951" cy="5.951" r="5.951" transform="translate(953.326 3812.83)" fill="#999"/>
    <circle id="Elipse_384" data-name="Elipse 384" cx="5.951" cy="5.951" r="5.951" transform="translate(1014.777 3812.83)" fill="#999"/>
    <circle id="Elipse_385" data-name="Elipse 385" cx="5.951" cy="5.951" r="5.951" transform="translate(1065.317 3812.83)" fill="#999"/>
    <circle id="Elipse_386" data-name="Elipse 386" cx="5.951" cy="5.951" r="5.951" transform="translate(1115.857 3812.83)" fill="#999"/>
    <circle id="Elipse_387" data-name="Elipse 387" cx="5.951" cy="5.951" r="5.951" transform="translate(1166.397 3812.83)" fill="#999"/>
    <circle id="Elipse_388" data-name="Elipse 388" cx="5.951" cy="5.951" r="5.951" transform="translate(1227.848 3812.83)" fill="#999"/>
    <g id="Grupo_10196" data-name="Grupo 10196">
      <path id="Trazado_2147" data-name="Trazado 2147" d="M488.493,3830.906l-9.584-9.584a2.721,2.721,0,0,1,0-3.849h0a2.721,2.721,0,0,1,3.849,0l5.734,5.734,15.752-15.752a2.723,2.723,0,0,1,3.85,0h0a2.722,2.722,0,0,1,0,3.85Z" fill="#33acb9"/>
    </g>
    <g id="Grupo_10197" data-name="Grupo 10197">
      <path id="Trazado_2148" data-name="Trazado 2148" d="M539.033,3830.906l-9.583-9.584a2.72,2.72,0,0,1,0-3.849h0a2.721,2.721,0,0,1,3.849,0l5.734,5.734,15.752-15.752a2.723,2.723,0,0,1,3.85,0h0a2.722,2.722,0,0,1,0,3.85Z" fill="#33acb9"/>
    </g>
    <g id="Grupo_10198" data-name="Grupo 10198">
      <path id="Trazado_2149" data-name="Trazado 2149" d="M589.574,3716.02l-9.584-9.584a2.723,2.723,0,0,1,0-3.85h0a2.723,2.723,0,0,1,3.85,0l5.734,5.733,15.752-15.752a2.723,2.723,0,0,1,3.85,0h0a2.723,2.723,0,0,1,0,3.85Z" fill="#33acb9"/>
    </g>
    <g id="Grupo_10199" data-name="Grupo 10199">
      <path id="Trazado_2150" data-name="Trazado 2150" d="M640.115,3716.02l-9.584-9.584a2.723,2.723,0,0,1,0-3.85h0a2.723,2.723,0,0,1,3.85,0l5.734,5.733,15.752-15.752a2.723,2.723,0,0,1,3.85,0h0a2.723,2.723,0,0,1,0,3.85Z" fill="#33acb9"/>
    </g>
    <g id="Grupo_10200" data-name="Grupo 10200">
      <path id="Trazado_2151" data-name="Trazado 2151" d="M589.574,3754.315l-9.584-9.584a2.722,2.722,0,0,1,0-3.85h0a2.723,2.723,0,0,1,3.85,0l5.734,5.734,15.752-15.752a2.723,2.723,0,0,1,3.85,0h0a2.722,2.722,0,0,1,0,3.85Z" fill="#33acb9"/>
    </g>
    <g id="Grupo_10201" data-name="Grupo 10201">
      <path id="Trazado_2152" data-name="Trazado 2152" d="M640.115,3754.315l-9.584-9.584a2.722,2.722,0,0,1,0-3.85h0a2.723,2.723,0,0,1,3.85,0l5.734,5.734,15.752-15.752a2.723,2.723,0,0,1,3.85,0h0a2.722,2.722,0,0,1,0,3.85Z" fill="#33acb9"/>
    </g>
    <g id="Grupo_10202" data-name="Grupo 10202">
      <path id="Trazado_2153" data-name="Trazado 2153" d="M589.574,3792.611l-9.584-9.584a2.723,2.723,0,0,1,0-3.85h0a2.723,2.723,0,0,1,3.85,0l5.734,5.733,15.752-15.752a2.723,2.723,0,0,1,3.85,0h0a2.723,2.723,0,0,1,0,3.85Z" fill="#33acb9"/>
    </g>
    <g id="Grupo_10203" data-name="Grupo 10203">
      <path id="Trazado_2154" data-name="Trazado 2154" d="M640.115,3792.611l-9.584-9.584a2.723,2.723,0,0,1,0-3.85h0a2.723,2.723,0,0,1,3.85,0l5.734,5.733,15.752-15.752a2.723,2.723,0,0,1,3.85,0h0a2.723,2.723,0,0,1,0,3.85Z" fill="#33acb9"/>
    </g>
    <g id="Grupo_10204" data-name="Grupo 10204">
      <path id="Trazado_2155" data-name="Trazado 2155" d="M693.312,3716.02l-9.584-9.584a2.723,2.723,0,0,1,0-3.85h0a2.723,2.723,0,0,1,3.85,0l5.734,5.733,15.752-15.752a2.723,2.723,0,0,1,3.85,0h0a2.723,2.723,0,0,1,0,3.85Z" fill="#33acb9"/>
    </g>
    <g id="Grupo_10205" data-name="Grupo 10205">
      <path id="Trazado_2156" data-name="Trazado 2156" d="M693.312,3754.315l-9.584-9.584a2.722,2.722,0,0,1,0-3.85h0a2.723,2.723,0,0,1,3.85,0l5.734,5.734,15.752-15.752a2.723,2.723,0,0,1,3.85,0h0a2.722,2.722,0,0,1,0,3.85Z" fill="#33acb9"/>
    </g>
    <g id="Grupo_10206" data-name="Grupo 10206">
      <path id="Trazado_2157" data-name="Trazado 2157" d="M741.2,3754.315l-9.584-9.584a2.722,2.722,0,0,1,0-3.85h0a2.723,2.723,0,0,1,3.85,0l5.734,5.734,15.752-15.752a2.723,2.723,0,0,1,3.85,0h0a2.722,2.722,0,0,1,0,3.85Z" fill="#33acb9"/>
    </g>
    <g id="Grupo_10207" data-name="Grupo 10207">
      <path id="Trazado_2158" data-name="Trazado 2158" d="M741.2,3716.02l-9.584-9.584a2.723,2.723,0,0,1,0-3.85h0a2.723,2.723,0,0,1,3.85,0l5.734,5.733,15.752-15.752a2.723,2.723,0,0,1,3.85,0h0a2.723,2.723,0,0,1,0,3.85Z" fill="#33acb9"/>
    </g>
    <g id="Grupo_10208" data-name="Grupo 10208">
      <path id="Trazado_2159" data-name="Trazado 2159" d="M741.2,3907.5l-9.584-9.584a2.722,2.722,0,0,1,0-3.849h0a2.722,2.722,0,0,1,3.85,0l5.734,5.734,15.752-15.752a2.723,2.723,0,0,1,3.85,0h0a2.723,2.723,0,0,1,0,3.85Z" fill="#33acb9"/>
    </g>
    <g id="Grupo_10209" data-name="Grupo 10209">
      <path id="Trazado_2160" data-name="Trazado 2160" d="M693.312,3792.611l-9.584-9.584a2.723,2.723,0,0,1,0-3.85h0a2.723,2.723,0,0,1,3.85,0l5.734,5.733,15.752-15.752a2.723,2.723,0,0,1,3.85,0h0a2.723,2.723,0,0,1,0,3.85Z" fill="#33acb9"/>
    </g>
    <g id="Grupo_10210" data-name="Grupo 10210">
      <path id="Trazado_2161" data-name="Trazado 2161" d="M589.574,3830.906l-9.584-9.584a2.722,2.722,0,0,1,0-3.849h0a2.723,2.723,0,0,1,3.85,0l5.734,5.734,15.752-15.752a2.723,2.723,0,0,1,3.85,0h0a2.722,2.722,0,0,1,0,3.85Z" fill="#33acb9"/>
    </g>
    <g id="Grupo_10211" data-name="Grupo 10211">
      <path id="Trazado_2162" data-name="Trazado 2162" d="M640.115,3830.906l-9.584-9.584a2.722,2.722,0,0,1,0-3.849h0a2.723,2.723,0,0,1,3.85,0l5.734,5.734,15.752-15.752a2.723,2.723,0,0,1,3.85,0h0a2.722,2.722,0,0,1,0,3.85Z" fill="#33acb9"/>
    </g>
    <g id="Grupo_10212" data-name="Grupo 10212">
      <path id="Trazado_2163" data-name="Trazado 2163" d="M797.05,3792.611l-9.584-9.584a2.723,2.723,0,0,1,0-3.85h0a2.723,2.723,0,0,1,3.85,0l5.734,5.733,15.752-15.752a2.723,2.723,0,0,1,3.85,0h0a2.723,2.723,0,0,1,0,3.85Z" fill="#33acb9"/>
    </g>
    <g id="Grupo_10213" data-name="Grupo 10213">
      <path id="Trazado_2164" data-name="Trazado 2164" d="M842.276,3792.611l-9.583-9.584a2.723,2.723,0,0,1,0-3.85h0a2.723,2.723,0,0,1,3.85,0l5.733,5.733,15.753-15.752a2.723,2.723,0,0,1,3.85,0h0a2.723,2.723,0,0,1,0,3.85Z" fill="#33acb9"/>
    </g>
    <g id="Grupo_10214" data-name="Grupo 10214">
      <path id="Trazado_2165" data-name="Trazado 2165" d="M842.276,3716.02l-9.583-9.584a2.723,2.723,0,0,1,0-3.85h0a2.723,2.723,0,0,1,3.85,0l5.733,5.733,15.753-15.752a2.723,2.723,0,0,1,3.85,0h0a2.723,2.723,0,0,1,0,3.85Z" fill="#33acb9"/>
    </g>
    <g id="Grupo_10215" data-name="Grupo 10215">
      <path id="Trazado_2166" data-name="Trazado 2166" d="M892.817,3792.611l-9.584-9.584a2.723,2.723,0,0,1,0-3.85h0a2.723,2.723,0,0,1,3.85,0l5.734,5.733,15.752-15.752a2.723,2.723,0,0,1,3.85,0h0a2.723,2.723,0,0,1,0,3.85Z" fill="#33acb9"/>
    </g>
    <g id="Grupo_10216" data-name="Grupo 10216">
      <path id="Trazado_2167" data-name="Trazado 2167" d="M954.267,3792.611l-9.583-9.584a2.723,2.723,0,0,1,0-3.85h0a2.723,2.723,0,0,1,3.85,0l5.733,5.733,15.753-15.752a2.723,2.723,0,0,1,3.85,0h0a2.723,2.723,0,0,1,0,3.85Z" fill="#33acb9"/>
    </g>
    <g id="Grupo_10217" data-name="Grupo 10217">
      <path id="Trazado_2168" data-name="Trazado 2168" d="M1015.718,3792.611l-9.583-9.584a2.723,2.723,0,0,1,0-3.85h0a2.723,2.723,0,0,1,3.85,0l5.733,5.733,15.753-15.752a2.723,2.723,0,0,1,3.85,0h0a2.723,2.723,0,0,1,0,3.85Z" fill="#33acb9"/>
    </g>
    <g id="Grupo_10218" data-name="Grupo 10218">
      <path id="Trazado_2169" data-name="Trazado 2169" d="M1116.8,3792.611l-9.584-9.584a2.723,2.723,0,0,1,0-3.85h0a2.723,2.723,0,0,1,3.85,0l5.734,5.733,15.752-15.752a2.723,2.723,0,0,1,3.85,0h0a2.723,2.723,0,0,1,0,3.85Z" fill="#33acb9"/>
    </g>
    <g id="Grupo_10219" data-name="Grupo 10219">
      <path id="Trazado_2170" data-name="Trazado 2170" d="M1167.339,3792.611l-9.584-9.584a2.723,2.723,0,0,1,0-3.85h0a2.721,2.721,0,0,1,3.849,0l5.734,5.733,15.752-15.752a2.723,2.723,0,0,1,3.85,0h0a2.723,2.723,0,0,1,0,3.85Z" fill="#33acb9"/>
    </g>
    <g id="Grupo_10220" data-name="Grupo 10220">
      <path id="Trazado_2171" data-name="Trazado 2171" d="M1228.79,3792.611l-9.584-9.584a2.723,2.723,0,0,1,0-3.85h0a2.723,2.723,0,0,1,3.85,0l5.734,5.733,15.752-15.752a2.723,2.723,0,0,1,3.85,0h0a2.723,2.723,0,0,1,0,3.85Z" fill="#33acb9"/>
    </g>
    <g id="Grupo_10221" data-name="Grupo 10221">
      <path id="Trazado_2172" data-name="Trazado 2172" d="M1167.339,3716.02l-9.584-9.584a2.723,2.723,0,0,1,0-3.85h0a2.721,2.721,0,0,1,3.849,0l5.734,5.733,15.752-15.752a2.723,2.723,0,0,1,3.85,0h0a2.723,2.723,0,0,1,0,3.85Z" fill="#33acb9"/>
    </g>
    <g id="Grupo_10222" data-name="Grupo 10222">
      <path id="Trazado_2173" data-name="Trazado 2173" d="M1228.79,3716.02l-9.584-9.584a2.723,2.723,0,0,1,0-3.85h0a2.723,2.723,0,0,1,3.85,0l5.734,5.733,15.752-15.752a2.723,2.723,0,0,1,3.85,0h0a2.723,2.723,0,0,1,0,3.85Z" fill="#33acb9"/>
    </g>
    <g id="Grupo_10223" data-name="Grupo 10223">
      <path id="Trazado_2174" data-name="Trazado 2174" d="M1066.258,3792.611l-9.583-9.584a2.723,2.723,0,0,1,0-3.85h0a2.723,2.723,0,0,1,3.85,0l5.733,5.733,15.753-15.752a2.723,2.723,0,0,1,3.85,0h0a2.723,2.723,0,0,1,0,3.85Z" fill="#33acb9"/>
    </g>
    <g id="Grupo_10224" data-name="Grupo 10224">
      <path id="Trazado_2175" data-name="Trazado 2175" d="M589.574,3907.5l-9.584-9.584a2.722,2.722,0,0,1,0-3.849h0a2.722,2.722,0,0,1,3.85,0l5.734,5.734,15.752-15.752a2.723,2.723,0,0,1,3.85,0h0a2.723,2.723,0,0,1,0,3.85Z" fill="#33acb9"/>
    </g>
    <g id="Grupo_10225" data-name="Grupo 10225">
      <path id="Trazado_2176" data-name="Trazado 2176" d="M640.115,3907.5l-9.584-9.584a2.722,2.722,0,0,1,0-3.849h0a2.722,2.722,0,0,1,3.85,0l5.734,5.734,15.752-15.752a2.723,2.723,0,0,1,3.85,0h0a2.723,2.723,0,0,1,0,3.85Z" fill="#33acb9"/>
    </g>
    <g id="Grupo_10226" data-name="Grupo 10226">
      <path id="Trazado_2177" data-name="Trazado 2177" d="M693.312,3907.5l-9.584-9.584a2.721,2.721,0,0,1,0-3.849h0a2.722,2.722,0,0,1,3.85,0l5.734,5.734,15.752-15.752a2.723,2.723,0,0,1,3.85,0h0a2.723,2.723,0,0,1,0,3.85Z" fill="#33acb9"/>
    </g>
    <g id="Grupo_10227" data-name="Grupo 10227">
      <path id="Trazado_2178" data-name="Trazado 2178" d="M741.2,4024.08l-9.584-9.584a2.723,2.723,0,0,1,0-3.85h0a2.723,2.723,0,0,1,3.85,0l5.734,5.733,15.752-15.751a2.723,2.723,0,0,1,3.85,0h0a2.723,2.723,0,0,1,0,3.85Z" fill="#33acb9"/>
    </g>
    <g id="Grupo_10228" data-name="Grupo 10228">
      <path id="Trazado_2179" data-name="Trazado 2179" d="M741.2,3984.089l-9.584-9.585a2.721,2.721,0,0,1,0-3.849h0a2.722,2.722,0,0,1,3.85,0l5.734,5.733,15.752-15.752a2.723,2.723,0,0,1,3.85,0h0a2.723,2.723,0,0,1,0,3.85Z" fill="#33acb9"/>
    </g>
    <g id="Grupo_10229" data-name="Grupo 10229">
      <path id="Trazado_2180" data-name="Trazado 2180" d="M589.574,4024.08l-9.584-9.584a2.723,2.723,0,0,1,0-3.85h0a2.723,2.723,0,0,1,3.85,0l5.734,5.733,15.752-15.751a2.723,2.723,0,0,1,3.85,0h0a2.723,2.723,0,0,1,0,3.85Z" fill="#33acb9"/>
    </g>
    <g id="Grupo_10230" data-name="Grupo 10230">
      <path id="Trazado_2181" data-name="Trazado 2181" d="M640.115,4024.08l-9.584-9.584a2.723,2.723,0,0,1,0-3.85h0a2.723,2.723,0,0,1,3.85,0l5.734,5.733,15.752-15.751a2.723,2.723,0,0,1,3.85,0h0a2.723,2.723,0,0,1,0,3.85Z" fill="#33acb9"/>
    </g>
    <g id="Grupo_10231" data-name="Grupo 10231">
      <path id="Trazado_2182" data-name="Trazado 2182" d="M693.312,4024.08l-9.584-9.584a2.723,2.723,0,0,1,0-3.85h0a2.723,2.723,0,0,1,3.85,0l5.734,5.733,15.752-15.751a2.723,2.723,0,0,1,3.85,0h0a2.723,2.723,0,0,1,0,3.85Z" fill="#33acb9"/>
    </g>
    <g id="Grupo_10232" data-name="Grupo 10232">
      <path id="Trazado_2183" data-name="Trazado 2183" d="M842.276,3907.5l-9.583-9.584a2.722,2.722,0,0,1,0-3.849h0a2.722,2.722,0,0,1,3.85,0l5.733,5.734,15.753-15.752a2.723,2.723,0,0,1,3.85,0h0a2.723,2.723,0,0,1,0,3.85Z" fill="#33acb9"/>
    </g>
    <g id="Grupo_10233" data-name="Grupo 10233">
      <path id="Trazado_2184" data-name="Trazado 2184" d="M892.817,3907.5l-9.584-9.584a2.722,2.722,0,0,1,0-3.849h0a2.722,2.722,0,0,1,3.85,0l5.734,5.734,15.752-15.752a2.723,2.723,0,0,1,3.85,0h0a2.723,2.723,0,0,1,0,3.85Z" fill="#33acb9"/>
    </g>
    <g id="Grupo_10234" data-name="Grupo 10234">
      <path id="Trazado_2185" data-name="Trazado 2185" d="M1015.718,3907.5l-9.583-9.584a2.722,2.722,0,0,1,0-3.849h0a2.722,2.722,0,0,1,3.85,0l5.733,5.734,15.753-15.752a2.723,2.723,0,0,1,3.85,0h0a2.723,2.723,0,0,1,0,3.85Z" fill="#33acb9"/>
    </g>
    <g id="Grupo_10235" data-name="Grupo 10235">
      <path id="Trazado_2186" data-name="Trazado 2186" d="M1116.8,3907.5l-9.584-9.584a2.722,2.722,0,0,1,0-3.849h0a2.722,2.722,0,0,1,3.85,0l5.734,5.734,15.752-15.752a2.723,2.723,0,0,1,3.85,0h0a2.723,2.723,0,0,1,0,3.85Z" fill="#33acb9"/>
    </g>
    <g id="Grupo_10236" data-name="Grupo 10236">
      <path id="Trazado_2187" data-name="Trazado 2187" d="M1167.339,3907.5l-9.584-9.584a2.722,2.722,0,0,1,0-3.849h0a2.721,2.721,0,0,1,3.849,0l5.734,5.734,15.752-15.752a2.723,2.723,0,0,1,3.85,0h0a2.723,2.723,0,0,1,0,3.85Z" fill="#33acb9"/>
    </g>
    <g id="Grupo_10237" data-name="Grupo 10237">
      <path id="Trazado_2188" data-name="Trazado 2188" d="M1228.79,3907.5l-9.584-9.584a2.721,2.721,0,0,1,0-3.849h0a2.722,2.722,0,0,1,3.85,0l5.734,5.734,15.752-15.752a2.723,2.723,0,0,1,3.85,0h0a2.723,2.723,0,0,1,0,3.85Z" fill="#33acb9"/>
    </g>
    <g id="Grupo_10238" data-name="Grupo 10238">
      <path id="Trazado_2189" data-name="Trazado 2189" d="M1066.258,3907.5l-9.583-9.584a2.722,2.722,0,0,1,0-3.849h0a2.722,2.722,0,0,1,3.85,0l5.733,5.734,15.753-15.752a2.723,2.723,0,0,1,3.85,0h0a2.723,2.723,0,0,1,0,3.85Z" fill="#33acb9"/>
    </g>
    <g id="Grupo_10239" data-name="Grupo 10239">
      <path id="Trazado_2190" data-name="Trazado 2190" d="M1066.258,4024.08l-9.583-9.584a2.723,2.723,0,0,1,0-3.85h0a2.723,2.723,0,0,1,3.85,0l5.733,5.733,15.753-15.751a2.723,2.723,0,0,1,3.85,0h0a2.723,2.723,0,0,1,0,3.85Z" fill="#33acb9"/>
    </g>
    <g id="Grupo_10240" data-name="Grupo 10240">
      <path id="Trazado_2191" data-name="Trazado 2191" d="M1116.8,3754.315l-9.584-9.584a2.722,2.722,0,0,1,0-3.85h0a2.723,2.723,0,0,1,3.85,0l5.734,5.734,15.752-15.752a2.723,2.723,0,0,1,3.85,0h0a2.722,2.722,0,0,1,0,3.85Z" fill="#33acb9"/>
    </g>
    <g id="Grupo_10241" data-name="Grupo 10241">
      <path id="Trazado_2192" data-name="Trazado 2192" d="M1167.339,3754.315l-9.584-9.584a2.722,2.722,0,0,1,0-3.85h0a2.721,2.721,0,0,1,3.849,0l5.734,5.734,15.752-15.752a2.723,2.723,0,0,1,3.85,0h0a2.722,2.722,0,0,1,0,3.85Z" fill="#33acb9"/>
    </g>
    <g id="Grupo_10242" data-name="Grupo 10242">
      <path id="Trazado_2193" data-name="Trazado 2193" d="M1066.258,3754.315l-9.583-9.584a2.722,2.722,0,0,1,0-3.85h0a2.723,2.723,0,0,1,3.85,0l5.733,5.734,15.753-15.752a2.723,2.723,0,0,1,3.85,0h0a2.722,2.722,0,0,1,0,3.85Z" fill="#33acb9"/>
    </g>
    <g id="Grupo_10243" data-name="Grupo 10243">
      <path id="Trazado_2194" data-name="Trazado 2194" d="M797.05,3830.906l-9.584-9.584a2.722,2.722,0,0,1,0-3.849h0a2.723,2.723,0,0,1,3.85,0l5.734,5.734,15.752-15.752a2.723,2.723,0,0,1,3.85,0h0a2.722,2.722,0,0,1,0,3.85Z" fill="#33acb9"/>
    </g>
    <circle id="Elipse_389" data-name="Elipse 389" cx="5.951" cy="5.951" r="5.951" transform="translate(796.108 3889.421)" fill="#999"/>
    <circle id="Elipse_390" data-name="Elipse 390" cx="5.951" cy="5.951" r="5.951" transform="translate(953.326 3889.421)" fill="#999"/>
    <g id="Grupo_10244" data-name="Grupo 10244">
      <path id="Trazado_2195" data-name="Trazado 2195" d="M488.493,3907.5l-9.584-9.584a2.721,2.721,0,0,1,0-3.849h0a2.721,2.721,0,0,1,3.849,0l5.734,5.734,15.752-15.752a2.723,2.723,0,0,1,3.85,0h0a2.723,2.723,0,0,1,0,3.85Z" fill="#33acb9"/>
    </g>
    <g id="Grupo_10245" data-name="Grupo 10245">
      <path id="Trazado_2196" data-name="Trazado 2196" d="M539.033,3907.5l-9.583-9.584a2.72,2.72,0,0,1,0-3.849h0a2.721,2.721,0,0,1,3.849,0l5.734,5.734,15.752-15.752a2.723,2.723,0,0,1,3.85,0h0a2.723,2.723,0,0,1,0,3.85Z" fill="#33acb9"/>
    </g>
    <circle id="Elipse_391" data-name="Elipse 391" cx="5.951" cy="5.951" r="5.951" transform="translate(588.632 3927.717)" fill="#999"/>
    <circle id="Elipse_392" data-name="Elipse 392" cx="5.951" cy="5.951" r="5.951" transform="translate(639.173 3927.717)" fill="#999"/>
    <circle id="Elipse_393" data-name="Elipse 393" cx="5.951" cy="5.951" r="5.951" transform="translate(689.713 3927.717)" fill="#999"/>
    <circle id="Elipse_394" data-name="Elipse 394" cx="5.951" cy="5.951" r="5.951" transform="translate(796.108 3927.717)" fill="#999"/>
    <circle id="Elipse_395" data-name="Elipse 395" cx="5.951" cy="5.951" r="5.951" transform="translate(740.254 3927.717)" fill="#999"/>
    <circle id="Elipse_396" data-name="Elipse 396" cx="5.951" cy="5.951" r="5.951" transform="translate(841.335 3927.717)" fill="#999"/>
    <circle id="Elipse_397" data-name="Elipse 397" cx="5.951" cy="5.951" r="5.951" transform="translate(891.875 3927.717)" fill="#999"/>
    <circle id="Elipse_398" data-name="Elipse 398" cx="5.951" cy="5.951" r="5.951" transform="translate(953.326 3927.717)" fill="#999"/>
    <circle id="Elipse_399" data-name="Elipse 399" cx="5.951" cy="5.951" r="5.951" transform="translate(1014.777 3927.717)" fill="#999"/>
    <circle id="Elipse_400" data-name="Elipse 400" cx="5.951" cy="5.951" r="5.951" transform="translate(1065.317 3927.717)" fill="#999"/>
    <circle id="Elipse_401" data-name="Elipse 401" cx="5.951" cy="5.951" r="5.951" transform="translate(1115.857 3927.717)" fill="#999"/>
    <circle id="Elipse_402" data-name="Elipse 402" cx="5.951" cy="5.951" r="5.951" transform="translate(1166.397 3927.717)" fill="#999"/>
    <circle id="Elipse_403" data-name="Elipse 403" cx="5.951" cy="5.951" r="5.951" transform="translate(1227.848 3927.717)" fill="#999"/>
    <g id="Grupo_10246" data-name="Grupo 10246">
      <path id="Trazado_2197" data-name="Trazado 2197" d="M488.493,3945.793l-9.584-9.584a2.722,2.722,0,0,1,0-3.85h0a2.721,2.721,0,0,1,3.849,0l5.734,5.733,15.752-15.751a2.721,2.721,0,0,1,3.85,0h0a2.721,2.721,0,0,1,0,3.849Z" fill="#33acb9"/>
    </g>
    <g id="Grupo_10247" data-name="Grupo 10247">
      <path id="Trazado_2198" data-name="Trazado 2198" d="M539.033,3945.793l-9.583-9.584a2.721,2.721,0,0,1,0-3.85h0a2.721,2.721,0,0,1,3.849,0l5.734,5.733,15.752-15.751a2.721,2.721,0,0,1,3.85,0h0a2.721,2.721,0,0,1,0,3.849Z" fill="#33acb9"/>
    </g>
    <circle id="Elipse_404" data-name="Elipse 404" cx="5.951" cy="5.951" r="5.951" transform="translate(588.632 3966.012)" fill="#999"/>
    <circle id="Elipse_405" data-name="Elipse 405" cx="5.951" cy="5.951" r="5.951" transform="translate(639.173 3966.012)" fill="#999"/>
    <circle id="Elipse_406" data-name="Elipse 406" cx="5.951" cy="5.951" r="5.951" transform="translate(689.713 3966.012)" fill="#999"/>
    <circle id="Elipse_407" data-name="Elipse 407" cx="5.951" cy="5.951" r="5.951" transform="translate(796.108 3966.012)" fill="#999"/>
    <circle id="Elipse_408" data-name="Elipse 408" cx="5.951" cy="5.951" r="5.951" transform="translate(841.335 3966.012)" fill="#999"/>
    <circle id="Elipse_409" data-name="Elipse 409" cx="5.951" cy="5.951" r="5.951" transform="translate(891.875 3966.012)" fill="#999"/>
    <circle id="Elipse_410" data-name="Elipse 410" cx="5.951" cy="5.951" r="5.951" transform="translate(953.326 3966.012)" fill="#999"/>
    <circle id="Elipse_411" data-name="Elipse 411" cx="5.951" cy="5.951" r="5.951" transform="translate(1014.777 3966.012)" fill="#999"/>
    <circle id="Elipse_412" data-name="Elipse 412" cx="5.951" cy="5.951" r="5.951" transform="translate(1065.317 3966.012)" fill="#999"/>
    <circle id="Elipse_413" data-name="Elipse 413" cx="5.951" cy="5.951" r="5.951" transform="translate(1115.857 3966.012)" fill="#999"/>
    <circle id="Elipse_414" data-name="Elipse 414" cx="5.951" cy="5.951" r="5.951" transform="translate(1166.397 3966.012)" fill="#999"/>
    <circle id="Elipse_415" data-name="Elipse 415" cx="5.951" cy="5.951" r="5.951" transform="translate(1227.848 3966.012)" fill="#999"/>
    <g id="Grupo_10248" data-name="Grupo 10248">
      <path id="Trazado_2199" data-name="Trazado 2199" d="M488.493,3984.089l-9.584-9.585a2.72,2.72,0,0,1,0-3.849h0a2.721,2.721,0,0,1,3.849,0l5.734,5.733,15.752-15.752a2.723,2.723,0,0,1,3.85,0h0a2.723,2.723,0,0,1,0,3.85Z" fill="#33acb9"/>
    </g>
    <g id="Grupo_10249" data-name="Grupo 10249">
      <path id="Trazado_2200" data-name="Trazado 2200" d="M539.033,3984.089l-9.583-9.585a2.719,2.719,0,0,1,0-3.849h0a2.721,2.721,0,0,1,3.849,0l5.734,5.733,15.752-15.752a2.723,2.723,0,0,1,3.85,0h0a2.723,2.723,0,0,1,0,3.85Z" fill="#33acb9"/>
    </g>
    <circle id="Elipse_416" data-name="Elipse 416" cx="5.951" cy="5.951" r="5.951" transform="translate(796.108 4006.004)" fill="#999"/>
    <circle id="Elipse_417" data-name="Elipse 417" cx="5.951" cy="5.951" r="5.951" transform="translate(841.335 4006.004)" fill="#999"/>
    <circle id="Elipse_418" data-name="Elipse 418" cx="5.951" cy="5.951" r="5.951" transform="translate(891.875 4006.004)" fill="#999"/>
    <circle id="Elipse_419" data-name="Elipse 419" cx="5.951" cy="5.951" r="5.951" transform="translate(953.326 4006.004)" fill="#999"/>
    <circle id="Elipse_420" data-name="Elipse 420" cx="5.951" cy="5.951" r="5.951" transform="translate(1014.777 4006.004)" fill="#999"/>
    <circle id="Elipse_421" data-name="Elipse 421" cx="5.951" cy="5.951" r="5.951" transform="translate(1115.857 4006.004)" fill="#999"/>
    <circle id="Elipse_422" data-name="Elipse 422" cx="5.951" cy="5.951" r="5.951" transform="translate(1166.397 4006.004)" fill="#999"/>
    <circle id="Elipse_423" data-name="Elipse 423" cx="5.951" cy="5.951" r="5.951" transform="translate(1227.848 4006.004)" fill="#999"/>
    <g id="Grupo_10250" data-name="Grupo 10250">
      <path id="Trazado_2201" data-name="Trazado 2201" d="M488.493,4024.08l-9.584-9.584a2.722,2.722,0,0,1,0-3.85h0a2.721,2.721,0,0,1,3.849,0l5.734,5.733,15.752-15.751a2.723,2.723,0,0,1,3.85,0h0a2.723,2.723,0,0,1,0,3.85Z" fill="#33acb9"/>
    </g>
    <g id="Grupo_10251" data-name="Grupo 10251">
      <path id="Trazado_2202" data-name="Trazado 2202" d="M539.033,4024.08l-9.583-9.584a2.721,2.721,0,0,1,0-3.85h0a2.721,2.721,0,0,1,3.849,0l5.734,5.733,15.752-15.751a2.723,2.723,0,0,1,3.85,0h0a2.723,2.723,0,0,1,0,3.85Z" fill="#33acb9"/>
    </g>
  </g>
</svg>
