<svg xmlns="http://www.w3.org/2000/svg" width="105.481" height="92.671" viewBox="0 0 105.481 92.671">
  <g id="Grupo_10133" data-name="Grupo 10133" transform="translate(-3236.503 -15.692)">
    <path id="Trazado_2064" data-name="Trazado 2064" d="M3283.753,68.432h49.41V17.192h-87.841V70.262" fill="none" stroke="#26a79a" stroke-linecap="round" stroke-linejoin="round" stroke-width="3"/>
    <path id="Trazado_2065" data-name="Trazado 2065" d="M3252.643,70.262V53.792a5.49,5.49,0,0,1,5.49-5.49h42.09a3.66,3.66,0,0,1,3.66,3.66h0a3.659,3.659,0,0,1-3.66,3.66h-20.13a1.83,1.83,0,0,0-1.83,1.83v12.81" fill="none" stroke="#26a79a" stroke-linecap="round" stroke-linejoin="round" stroke-width="3"/>
    <path id="Trazado_2066" data-name="Trazado 2066" d="M3274.6,35.492c0,5.49-3.277,9.15-7.32,9.15s-7.32-3.66-7.32-9.15a7.32,7.32,0,0,1,14.64,0Z" fill="none" stroke="#26a79a" stroke-linecap="round" stroke-linejoin="round" stroke-width="3"/>
    <path id="Trazado_2067" data-name="Trazado 2067" d="M3296.563,83.073c0,5.49-3.277,9.15-7.32,9.15s-7.32-3.66-7.32-9.15a7.32,7.32,0,1,1,14.64,0Z" fill="none" stroke="#26a79a" stroke-linecap="round" stroke-linejoin="round" stroke-width="3"/>
    <path id="Trazado_2068" data-name="Trazado 2068" d="M3333.164,83.073c0,5.49-3.278,9.15-7.32,9.15s-7.321-3.66-7.321-9.15a7.321,7.321,0,1,1,14.641,0Z" fill="none" stroke="#26a79a" stroke-linecap="round" stroke-linejoin="round" stroke-width="3"/>
    <path id="Trazado_2069" data-name="Trazado 2069" d="M3259.963,83.073c0,5.49-3.278,9.15-7.32,9.15s-7.32-3.66-7.32-9.15a7.32,7.32,0,1,1,14.64,0Z" fill="none" stroke="#26a79a" stroke-linecap="round" stroke-linejoin="round" stroke-width="3"/>
    <path id="Trazado_2070" data-name="Trazado 2070" d="M3267.283,106.863V101.75a3.639,3.639,0,0,0-2.137-3.33,30.441,30.441,0,0,0-12.425-2.537,31.229,31.229,0,0,0-12.558,2.548,3.641,3.641,0,0,0-2.16,3.341v5.091" fill="none" stroke="#26a79a" stroke-linecap="round" stroke-linejoin="round" stroke-width="3"/>
    <path id="Trazado_2071" data-name="Trazado 2071" d="M3303.883,106.863V101.75a3.64,3.64,0,0,0-2.136-3.33,30.448,30.448,0,0,0-12.426-2.537,31.235,31.235,0,0,0-12.558,2.548,3.643,3.643,0,0,0-2.16,3.341v5.091" fill="none" stroke="#26a79a" stroke-linecap="round" stroke-linejoin="round" stroke-width="3"/>
    <path id="Trazado_2072" data-name="Trazado 2072" d="M3340.484,106.863V101.75a3.64,3.64,0,0,0-2.137-3.33,30.446,30.446,0,0,0-12.426-2.537,31.233,31.233,0,0,0-12.558,2.548,3.643,3.643,0,0,0-2.16,3.341v5.091" fill="none" stroke="#26a79a" stroke-linecap="round" stroke-linejoin="round" stroke-width="3"/>
    <line id="Línea_80" data-name="Línea 80" x2="36.6" transform="translate(3287.413 33.662)" fill="none" stroke="#26a79a" stroke-linecap="round" stroke-linejoin="round" stroke-width="3"/>
    <line id="Línea_81" data-name="Línea 81" x2="29.28" transform="translate(3287.413 40.982)" fill="none" stroke="#26a79a" stroke-linecap="round" stroke-linejoin="round" stroke-width="3"/>
  </g>
</svg>
