<svg xmlns="http://www.w3.org/2000/svg" width="108.656" height="86.06" viewBox="0 0 108.656 86.06">
  <g id="Grupo_10029" data-name="Grupo 10029" transform="translate(-1705.48 -2789.347)">
    <path id="Trazado_1558" data-name="Trazado 1558" d="M1812.636,2816.485V2805h-9.187" fill="none" stroke="#26a79a" stroke-linecap="round" stroke-linejoin="round" stroke-width="3"/>
    <path id="Trazado_1559" data-name="Trazado 1559" d="M1711.574,2805h-4.594v64.312h39.053l4.588,4.594H1769l4.582-4.594h39.057v-20.672" fill="none" stroke="#26a79a" stroke-linecap="round" stroke-linejoin="round" stroke-width="3"/>
    <path id="Trazado_1560" data-name="Trazado 1560" d="M1803.449,2809.595V2798.11h-29.86c-9.294,0-13.781,6.317-13.781,13.782v52.827h4.594c1.723-3.349,4.737-4.593,9.187-4.593h29.86v-4.594" fill="none" stroke="#26a79a" stroke-linecap="round" stroke-linejoin="round" stroke-width="3"/>
    <circle id="Elipse_217" data-name="Elipse 217" cx="20.672" cy="20.672" r="20.672" transform="translate(1771.293 2811.892)" stroke-width="3" stroke="#26a79a" stroke-linecap="round" stroke-linejoin="round" fill="none"/>
    <path id="Trazado_1561" data-name="Trazado 1561" d="M1798.855,2841.751h-6.891V2827.97h-4.594" fill="none" stroke="#26a79a" stroke-linecap="round" stroke-linejoin="round" stroke-width="3"/>
    <line id="Línea_57" data-name="Línea 57" x2="6.891" transform="translate(1785.074 2841.751)" fill="none" stroke="#26a79a" stroke-linecap="round" stroke-linejoin="round" stroke-width="3"/>
    <line id="Línea_58" data-name="Línea 58" y1="4.594" transform="translate(1791.964 2818.782)" fill="none" stroke="#26a79a" stroke-linecap="round" stroke-linejoin="round" stroke-width="3"/>
    <path id="Trazado_1562" data-name="Trazado 1562" d="M1755.215,2864.719h4.593v-48.234c0-7.464-3.223-16.915-10.509-18.557l-23.944-7.081v59.718l23.944,7.081C1753.3,2858.738,1754.357,2860.945,1755.215,2864.719Z" fill="none" stroke="#26a79a" stroke-linecap="round" stroke-linejoin="round" stroke-width="3"/>
    <path id="Trazado_1563" data-name="Trazado 1563" d="M1720.762,2800.407h-4.594v59.719h29.859a11.258,11.258,0,0,1,9.188,4.593h4.593" fill="none" stroke="#26a79a" stroke-linecap="round" stroke-linejoin="round" stroke-width="3"/>
  </g>
</svg>
