<svg xmlns="http://www.w3.org/2000/svg" width="107.514" height="99.468" viewBox="0 0 107.514 99.468">
  <g id="Grupo_10030" data-name="Grupo 10030" transform="translate(-1706.046 -3343.77)">
    <path id="Trazado_1564" data-name="Trazado 1564" d="M1798.278,3356.754h13.782v-2.3a9.188,9.188,0,0,0-9.188-9.187h0" fill="none" stroke="#26a79a" stroke-linecap="round" stroke-linejoin="round" stroke-width="3"/>
    <path id="Trazado_1565" data-name="Trazado 1565" d="M1775.31,3432.551h-59.719c1.519,4.594,6.889,9.187,11.485,9.187H1784.5C1779.9,3441.738,1776.437,3437.145,1775.31,3432.551Z" fill="none" stroke="#26a79a" stroke-linecap="round" stroke-linejoin="round" stroke-width="3"/>
    <path id="Trazado_1566" data-name="Trazado 1566" d="M1729.373,3391.207v-36.75a9.187,9.187,0,0,1,9.187-9.187h64.312c-5.474,0-9.187,3.96-9.187,9.475v77.806c0,5.515-3.713,9.187-9.188,9.187h-2.3" fill="none" stroke="#26a79a" stroke-linecap="round" stroke-linejoin="round" stroke-width="3"/>
    <line id="Línea_59" data-name="Línea 59" y1="22.969" transform="translate(1729.373 3409.582)" fill="none" stroke="#26a79a" stroke-linecap="round" stroke-linejoin="round" stroke-width="3"/>
    <path id="Trazado_1567" data-name="Trazado 1567" d="M1768.525,3379.67a6.944,6.944,0,1,1-6.944-6.943A6.944,6.944,0,0,1,1768.525,3379.67Z" fill="none" stroke="#26a79a" stroke-linecap="round" stroke-linejoin="round" stroke-width="3"/>
    <path id="Trazado_1568" data-name="Trazado 1568" d="M1777.659,3379.67a16.1,16.1,0,0,0-.444-3.7l4.513-2.606-4.594-7.956-4.505,2.6a16.039,16.039,0,0,0-6.507-3.757v-5.2h-9.187v5.229a16.043,16.043,0,0,0-6.443,3.767l-4.569-2.638-4.594,7.956,4.6,2.659a15.612,15.612,0,0,0,.024,7.384l-4.629,2.672,4.594,7.957,4.64-2.679a16.036,16.036,0,0,0,6.372,3.7v5.335h9.187v-5.308a16.021,16.021,0,0,0,6.436-3.692l4.576,2.642,4.594-7.957-4.537-2.619A16.061,16.061,0,0,0,1777.659,3379.67Z" fill="none" stroke="#26a79a" stroke-linecap="round" stroke-linejoin="round" stroke-width="3"/>
    <path id="Trazado_1569" data-name="Trazado 1569" d="M1710.241,3381.434c-2.423,2.422-2.814,4.7-2.652,5.955l30.859,30.855c5.584,5.582,13.883,5.11,13.883,5.11s.473-8.3-5.111-13.882l-30.859-30.855c-1.259-.162-3.533.229-5.955,2.652Z" fill="none" stroke="#26a79a" stroke-linecap="round" stroke-linejoin="round" stroke-width="3"/>
    <line id="Línea_60" data-name="Línea 60" x1="8.772" y2="8.772" transform="translate(1712.516 3383.379)" fill="none" stroke="#26a79a" stroke-linecap="round" stroke-linejoin="round" stroke-width="3"/>
  </g>
</svg>
