<svg xmlns="http://www.w3.org/2000/svg" width="98.161" height="74.37" viewBox="0 0 98.161 74.37">
  <g id="Grupo_10135" data-name="Grupo 10135" transform="translate(-3240.163 876.681)">
    <path id="Rectángulo_2913" data-name="Rectángulo 2913" d="M1.5,0H79.021a1.5,1.5,0,0,1,1.5,1.5V54.9a0,0,0,0,1,0,0H0a0,0,0,0,1,0,0V1.5A1.5,1.5,0,0,1,1.5,0Z" transform="translate(3248.983 -875.181)" fill="none" stroke="#26a79a" stroke-linecap="round" stroke-linejoin="round" stroke-width="3"/>
    <line id="Línea_85" data-name="Línea 85" x2="21.96" transform="translate(3278.263 -814.791)" fill="none" stroke="#26a79a" stroke-linecap="round" stroke-linejoin="round" stroke-width="3"/>
    <path id="Trazado_2078" data-name="Trazado 2078" d="M3329.5-820.281h-80.521l-7.32,10.98v1.83a3.659,3.659,0,0,0,3.66,3.66h87.841a3.66,3.66,0,0,0,3.66-3.66v-1.83Z" fill="none" stroke="#26a79a" stroke-linecap="round" stroke-linejoin="round" stroke-width="3"/>
    <line id="Línea_86" data-name="Línea 86" x2="95.161" transform="translate(3241.663 -809.301)" fill="none" stroke="#26a79a" stroke-linecap="round" stroke-linejoin="round" stroke-width="3"/>
    <path id="Trazado_2079" data-name="Trazado 2079" d="M3272.773-858.711a12.81,12.81,0,0,0-12.81,12.81,12.81,12.81,0,0,0,12.81,12.81,12.81,12.81,0,0,0,12.81-12.81h-12.81Z" fill="none" stroke="#26a79a" stroke-linecap="round" stroke-linejoin="round" stroke-width="3"/>
    <path id="Trazado_2080" data-name="Trazado 2080" d="M3278.263-864.2v12.81h12.81A12.81,12.81,0,0,0,3278.263-864.2Z" fill="none" stroke="#26a79a" stroke-linecap="round" stroke-linejoin="round" stroke-width="3"/>
    <line id="Línea_87" data-name="Línea 87" x2="16.47" transform="translate(3303.883 -845.901)" fill="none" stroke="#26a79a" stroke-linecap="round" stroke-linejoin="round" stroke-width="3"/>
    <line id="Línea_88" data-name="Línea 88" x2="16.47" transform="translate(3303.883 -836.751)" fill="none" stroke="#26a79a" stroke-linecap="round" stroke-linejoin="round" stroke-width="3"/>
    <line id="Línea_89" data-name="Línea 89" x2="16.47" transform="translate(3303.883 -855.051)" fill="none" stroke="#26a79a" stroke-linecap="round" stroke-linejoin="round" stroke-width="3"/>
    <line id="Línea_90" data-name="Línea 90" x2="3.66" transform="translate(3296.563 -845.901)" fill="none" stroke="#26a79a" stroke-linecap="round" stroke-linejoin="round" stroke-width="3"/>
    <line id="Línea_91" data-name="Línea 91" x2="3.66" transform="translate(3296.563 -836.751)" fill="none" stroke="#26a79a" stroke-linecap="round" stroke-linejoin="round" stroke-width="3"/>
    <line id="Línea_92" data-name="Línea 92" x2="3.66" transform="translate(3296.563 -855.051)" fill="none" stroke="#26a79a" stroke-linecap="round" stroke-linejoin="round" stroke-width="3"/>
  </g>
</svg>
