<svg xmlns="http://www.w3.org/2000/svg" width="91.291" height="90.841" viewBox="0 0 91.291 90.841">
  <g id="Grupo_10138" data-name="Grupo 10138" transform="translate(-3243.373 550.979)">
    <line id="Línea_101" data-name="Línea 101" y1="36.6" transform="translate(3316.693 -498.238)" fill="none" stroke="#26a79a" stroke-linecap="round" stroke-linejoin="round" stroke-width="3"/>
    <path id="Trazado_2088" data-name="Trazado 2088" d="M3316.693-533.008c-4.042,0-7.32-3.661-7.32-9.151a7.321,7.321,0,0,1,7.32-7.32,7.321,7.321,0,0,1,7.321,7.32C3324.014-536.669,3320.736-533.008,3316.693-533.008Z" fill="none" stroke="#26a79a" stroke-linecap="round" stroke-linejoin="round" stroke-width="3"/>
    <path id="Trazado_2089" data-name="Trazado 2089" d="M3245.323-520.2v-21.96l18.3-7.32,18.3,7.32v21.96l-18.3,7.32Z" fill="none" stroke="#26a79a" stroke-linecap="round" stroke-linejoin="round" stroke-width="3"/>
    <path id="Trazado_2090" data-name="Trazado 2090" d="M3281.923-542.159l-18.3,7.32-18.3-7.32" fill="none" stroke="#26a79a" stroke-linecap="round" stroke-linejoin="round" stroke-width="3"/>
    <line id="Línea_102" data-name="Línea 102" x2="32.94" transform="translate(3247.153 -500.068)" fill="none" stroke="#26a79a" stroke-linecap="round" stroke-linejoin="round" stroke-width="3"/>
    <line id="Línea_103" data-name="Línea 103" x2="32.94" transform="translate(3247.153 -492.748)" fill="none" stroke="#26a79a" stroke-linecap="round" stroke-linejoin="round" stroke-width="3"/>
    <line id="Línea_104" data-name="Línea 104" x2="21.96" transform="translate(3247.153 -485.428)" fill="none" stroke="#26a79a" stroke-linecap="round" stroke-linejoin="round" stroke-width="3"/>
    <path id="Trazado_2091" data-name="Trazado 2091" d="M3325.844-518.368v56.73h-18.3v-56.73l-6.955,8.346a7.32,7.32,0,0,1-5.623,2.634h-9.382a3.66,3.66,0,0,1-3.66-3.66,3.66,3.66,0,0,1,3.66-3.66h9.009l8.807-10.408a6.986,6.986,0,0,1,1.506-1.35c1.638-1.075,5.335-2.882,11.711-2.882a39.612,39.612,0,0,1,9.7,1.277,9.127,9.127,0,0,1,6.846,8.86V-501.9a5.49,5.49,0,0,1-5.49,5.49h-1.83" fill="none" stroke="#26a79a" stroke-linecap="round" stroke-linejoin="round" stroke-width="3"/>
    <line id="Línea_105" data-name="Línea 105" y2="21.96" transform="translate(3263.623 -534.839)" fill="none" stroke="#26a79a" stroke-linecap="round" stroke-linejoin="round" stroke-width="3"/>
  </g>
</svg>
