<svg xmlns="http://www.w3.org/2000/svg" width="101.821" height="90.841" viewBox="0 0 101.821 90.841">
  <g id="Grupo_10137" data-name="Grupo 10137" transform="translate(-3238.333 384.45)">
    <path id="Trazado_2082" data-name="Trazado 2082" d="M3334.994-375.629v51.241h-64.051" fill="none" stroke="#26a79a" stroke-linecap="round" stroke-linejoin="round" stroke-width="3"/>
    <path id="Trazado_2083" data-name="Trazado 2083" d="M3266.8-382.95h71.85v7.32h-69.541" fill="none" stroke="#26a79a" stroke-linecap="round" stroke-linejoin="round" stroke-width="3"/>
    <path id="Trazado_2084" data-name="Trazado 2084" d="M3307.543-360.989a12.81,12.81,0,0,0-12.81,12.81,12.81,12.81,0,0,0,12.81,12.81,12.81,12.81,0,0,0,12.81-12.81h-12.81Z" fill="none" stroke="#26a79a" stroke-linecap="round" stroke-linejoin="round" stroke-width="3"/>
    <path id="Trazado_2085" data-name="Trazado 2085" d="M3313.033-366.479v12.81h12.811A12.811,12.811,0,0,0,3313.033-366.479Z" fill="none" stroke="#26a79a" stroke-linecap="round" stroke-linejoin="round" stroke-width="3"/>
    <line id="Línea_99" data-name="Línea 99" x2="12.81" transform="translate(3280.093 -335.369)" fill="none" stroke="#26a79a" stroke-linecap="round" stroke-linejoin="round" stroke-width="3"/>
    <line id="Línea_100" data-name="Línea 100" y1="36.6" transform="translate(3256.303 -331.709)" fill="none" stroke="#26a79a" stroke-linecap="round" stroke-linejoin="round" stroke-width="3"/>
    <path id="Trazado_2086" data-name="Trazado 2086" d="M3263.623-375.629c0,5.49-3.277,9.15-7.32,9.15s-7.32-3.66-7.32-9.15a7.321,7.321,0,0,1,7.32-7.321A7.321,7.321,0,0,1,3263.623-375.629Z" fill="none" stroke="#26a79a" stroke-linecap="round" stroke-linejoin="round" stroke-width="3"/>
    <path id="Trazado_2087" data-name="Trazado 2087" d="M3247.153-351.839v56.73h18.3v-57.045l7.1,7.1a5.49,5.49,0,0,0,7.764,0l7.749-7.719a3.794,3.794,0,0,0,.536-4.843,3.662,3.662,0,0,0-5.575-.469l-6.592,6.562-7.062-7.062a7.07,7.07,0,0,0-1.506-1.351c-1.639-1.074-5.11-2.881-11.484-2.881a39.607,39.607,0,0,0-9.7,1.277,9.125,9.125,0,0,0-6.845,8.86v17.313a5.49,5.49,0,0,0,5.49,5.49h1.83" fill="none" stroke="#26a79a" stroke-linecap="round" stroke-linejoin="round" stroke-width="3"/>
  </g>
</svg>
