<svg xmlns="http://www.w3.org/2000/svg" width="106.623" height="106.623" viewBox="0 0 106.623 106.623">
  <g id="Grupo_10259" data-name="Grupo 10259" transform="translate(-178.723 -4167.934)">
    <rect id="Rectángulo_2957" data-name="Rectángulo 2957" width="82.547" height="51.592" transform="translate(201.08 4183.412)" fill="#f2f2f2"/>
    <path id="Trazado_2226" data-name="Trazado 2226" d="M209.678,4236.723v30.956a5.159,5.159,0,0,1-10.318,0v-30.956Zm0,0" fill="#838f9b"/>
    <path id="Trazado_2227" data-name="Trazado 2227" d="M199.36,4236.723v30.956a5.159,5.159,0,0,1-10.318,0v-30.956Zm0,0" fill="#838f9b"/>
    <path id="Trazado_2228" data-name="Trazado 2228" d="M238.914,4198.425a4,4,0,0,1-1.841,3.371l-22.682,14.686a10.29,10.29,0,0,0-4.713,8.65v11.591H189.042v5.16H185.6a5.152,5.152,0,0,1-5.159-5.16v-12.038a17.18,17.18,0,0,1,16.767-17.18l-1.29,15.461,3.44,3.439,3.439-3.439-1.289-15.478h6.965a10.4,10.4,0,0,0,5.416-1.53l18.9-11.625a3.906,3.906,0,0,1,2.1-.6,4.03,4.03,0,0,1,4.024,4.024Zm0,0" fill="#b4dd7f"/>
    <path id="Trazado_2229" data-name="Trazado 2229" d="M201.51,4207.488l1.289,15.478-3.439,3.439-3.44-3.439,1.29-15.461v-.017Zm0,0" fill="#ff826e"/>
    <path id="Trazado_2230" data-name="Trazado 2230" d="M209.678,4197.17a10.318,10.318,0,1,1-10.318-10.319,9.435,9.435,0,0,1,1.72.155,10.3,10.3,0,0,1,8.6,10.164Zm0,0" fill="#f0d0b4"/>
    <rect id="Rectángulo_2958" data-name="Rectángulo 2958" width="82.547" height="13.758" transform="translate(201.08 4169.654)" fill="#69d6f4"/>
    <path id="Trazado_2231" data-name="Trazado 2231" d="M269.869,4235v27.515a3.449,3.449,0,0,1-3.44,3.44H225.156a3.449,3.449,0,0,1-3.44-3.44v-30.955a3.449,3.449,0,0,1,3.44-3.439h41.273a3.449,3.449,0,0,1,3.44,3.439Zm0,0" fill="#ffeaa7"/>
    <rect id="Rectángulo_2959" data-name="Rectángulo 2959" width="6.879" height="17.197" transform="translate(228.595 4241.883)" fill="#ff826e"/>
    <rect id="Rectángulo_2960" data-name="Rectángulo 2960" width="6.879" height="13.758" transform="translate(242.353 4245.322)" fill="#ff826e"/>
    <rect id="Rectángulo_2961" data-name="Rectángulo 2961" width="6.879" height="24.076" transform="translate(256.111 4235.004)" fill="#ff826e"/>
    <path id="Trazado_2232" data-name="Trazado 2232" d="M273.308,4190.291a3.439,3.439,0,1,1,0,6.879,3.171,3.171,0,0,1-1.152-.206,3.435,3.435,0,0,1,1.152-6.673Zm0,0" fill="#fcd770"/>
    <path id="Trazado_2233" data-name="Trazado 2233" d="M265.862,4214.573a3.436,3.436,0,1,1-4.592,3.233,3.287,3.287,0,0,1,.5-1.771,3.449,3.449,0,0,1,2.942-1.668,3.171,3.171,0,0,1,1.152.206Zm0,0" fill="#fcd770"/>
    <path id="Trazado_2234" data-name="Trazado 2234" d="M247.512,4204.049a3.449,3.449,0,0,1,3.44,3.439,3.284,3.284,0,0,1-.5,1.771,3.435,3.435,0,0,1-6.381-1.771,3.409,3.409,0,0,1,1.238-2.631,3.336,3.336,0,0,1,2.2-.808Zm0,0" fill="#fcd770"/>
    <path id="Trazado_2235" data-name="Trazado 2235" d="M285.346,4167.934H199.36v17.2a12.025,12.025,0,0,0-7.4,21.512,18.947,18.947,0,0,0-13.235,18.041v12.038a6.886,6.886,0,0,0,6.879,6.879h1.72v24.077a6.85,6.85,0,0,0,12.038,4.5,6.85,6.85,0,0,0,12.038-4.5v-30.956H220v25.8a5.166,5.166,0,0,0,5.159,5.16h41.273a5.166,5.166,0,0,0,5.159-5.16v-25.8h13.758Zm-3.439,3.44v10.318H202.8v-10.318Zm-91.146,25.8a8.6,8.6,0,1,1,8.6,8.6,8.608,8.608,0,0,1-8.6-8.6Zm10.258,25.144-1.659,1.659-1.659-1.659,1.091-13.106h1.135ZM185.6,4240.163a3.443,3.443,0,0,1-3.439-3.44v-12.038a15.487,15.487,0,0,1,13.163-15.285l-1.186,14.217,5.22,5.22,5.22-5.22-1.2-14.409h5.1a12.015,12.015,0,0,0,6.308-1.787l18.9-11.63a2.3,2.3,0,0,1,3.508,1.96v.67a2.3,2.3,0,0,1-1.05,1.934l-22.686,14.679a11.99,11.99,0,0,0-5.5,10.106V4235h-17.2v-13.758h-3.439v18.917Zm8.6,30.955a3.443,3.443,0,0,1-3.44-3.439v-29.236h6.879v29.236a3.443,3.443,0,0,1-3.439,3.439Zm10.318,0a3.443,3.443,0,0,1-3.439-3.439v-29.236h6.879v29.236a3.443,3.443,0,0,1-3.44,3.439Zm63.63-8.6a1.722,1.722,0,0,1-1.72,1.72H225.156a1.723,1.723,0,0,1-1.72-1.72v-30.955a1.723,1.723,0,0,1,1.72-1.719h41.273a1.722,1.722,0,0,1,1.72,1.719Zm3.439-29.235v-1.72a5.165,5.165,0,0,0-5.159-5.159H225.156a5.165,5.165,0,0,0-5.159,5.159v1.72h-8.6v-8.144a8.572,8.572,0,0,1,3.928-7.22l22.685-14.677a5.722,5.722,0,0,0,1.948-2.131l3.132,3.757a5.1,5.1,0,0,0-.738,2.619,5.164,5.164,0,0,0,5.159,5.159,5.112,5.112,0,0,0,3.263-1.2l8.878,5.329a5.163,5.163,0,1,0,8.3-2.949l5.336-14.944.016,0a5.224,5.224,0,1,0-3.247-1.183l-5.336,14.944-.015,0a5.112,5.112,0,0,0-3.263,1.2l-8.878-5.328a5.165,5.165,0,0,0-5.057-6.186,5.1,5.1,0,0,0-1.781.336l-5.309-6.371a5.719,5.719,0,0,0-8.537-3.432l-18.9,11.63a8.589,8.589,0,0,1-4.508,1.276h-.709a12.02,12.02,0,0,0-4.97-20.129v-.507h79.108v48.152Zm-24.076-27.516a1.72,1.72,0,1,1-1.719,1.72,1.723,1.723,0,0,1,1.719-1.72Zm17.2,10.319a1.719,1.719,0,1,1-1.72,1.719,1.722,1.722,0,0,1,1.72-1.719Zm6.878-22.357a1.72,1.72,0,1,1,1.72,1.72,1.723,1.723,0,0,1-1.72-1.72Zm0,0" fill="#717377"/>
    <rect id="Rectángulo_2962" data-name="Rectángulo 2962" width="3.439" height="3.439" transform="translate(206.239 4174.813)" fill="#ff1d25"/>
    <rect id="Rectángulo_2963" data-name="Rectángulo 2963" width="3.439" height="3.439" transform="translate(213.118 4174.813)" fill="#ffca28"/>
    <rect id="Rectángulo_2964" data-name="Rectángulo 2964" width="3.439" height="3.439" transform="translate(219.997 4174.813)" fill="#7ac943"/>
    <path id="Trazado_2236" data-name="Trazado 2236" d="M254.391,4257.36h-3.439V4243.6H240.633v13.758h-3.439v-17.2H226.876V4260.8H264.71v-27.516H254.391Zm-20.637,0h-3.439V4243.6h3.439Zm10.319-10.318h3.439v10.318h-3.439Zm13.758-10.319h3.439v20.637h-3.439Zm0,0" fill="#717377"/>
    <rect id="Rectángulo_2965" data-name="Rectángulo 2965" width="3.439" height="3.439" transform="translate(275.028 4226.405)" fill="#71d9e6"/>
    <rect id="Rectángulo_2966" data-name="Rectángulo 2966" width="3.439" height="3.439" transform="translate(275.028 4219.526)" fill="#71d9e6"/>
    <rect id="Rectángulo_2967" data-name="Rectángulo 2967" width="3.439" height="3.439" transform="translate(275.028 4212.647)" fill="#71d9e6"/>
  </g>
</svg>
