<svg xmlns="http://www.w3.org/2000/svg" width="100.651" height="93.145" viewBox="0 0 100.651 93.145">
  <g id="Grupo_10028" data-name="Grupo 10028" transform="translate(-1709.488 -2598.052)">
    <path id="Trazado_1553" data-name="Trazado 1553" d="M1718,2609.6c-5.4,1.047-7.265,5.585-6.98,11.116,1.113,21.531,32.237,36.367,32.223,56.816,0,5.538-3.861,10.863-9.262,11.91a8.641,8.641,0,0,1-10.3-8.118,23.962,23.962,0,0,1,.555-5.869l13.307-2.58" fill="none" stroke="#26a79a" stroke-linecap="round" stroke-linejoin="round" stroke-width="3"/>
    <path id="Trazado_1554" data-name="Trazado 1554" d="M1784.99,2648.526c3.876,4.846,9.69,12.956,9.106,19.143-.521,5.513-3.861,10.863-9.263,11.91l-50.856,9.86" fill="none" stroke="#26a79a" stroke-linecap="round" stroke-linejoin="round" stroke-width="3"/>
    <path id="Trazado_1555" data-name="Trazado 1555" d="M1764.341,2614.413c1.035,6.221,4.6,12.07,8.912,17.786" fill="none" stroke="#26a79a" stroke-linecap="round" stroke-linejoin="round" stroke-width="3"/>
    <line id="Línea_53" data-name="Línea 53" x1="25.265" y2="4.899" transform="translate(1731.688 2629.596)" fill="none" stroke="#26a79a" stroke-linecap="round" stroke-linejoin="round" stroke-width="3"/>
    <line id="Línea_54" data-name="Línea 54" x1="25.265" y2="4.899" transform="translate(1738.579 2636.791)" fill="none" stroke="#26a79a" stroke-linecap="round" stroke-linejoin="round" stroke-width="3"/>
    <line id="Línea_55" data-name="Línea 55" x1="11.485" y2="2.227" transform="translate(1745.441 2646.049)" fill="none" stroke="#26a79a" stroke-linecap="round" stroke-linejoin="round" stroke-width="3"/>
    <path id="Trazado_1556" data-name="Trazado 1556" d="M1768.853,2599.737,1718,2609.6a8.94,8.94,0,0,1,9.119,4.318,9.8,9.8,0,0,1,1.052,7.116.29.29,0,0,0,.339.367l49.474-9.633c1.357-3.147,1.092-6.843-.794-8.99A8.889,8.889,0,0,0,1768.853,2599.737Z" fill="none" stroke="#26a79a" stroke-linecap="round" stroke-linejoin="round" stroke-width="3"/>
    <path id="Trazado_1557" data-name="Trazado 1557" d="M1805.945,2618.968c2.422,2.423,2.814,4.7,2.651,5.956l-30.859,30.855c-5.583,5.582-13.883,5.109-13.883,5.109s-.472-8.3,5.111-13.882l30.859-30.855c1.259-.162,3.533.23,5.956,2.652Z" fill="none" stroke="#26a79a" stroke-linecap="round" stroke-linejoin="round" stroke-width="3"/>
    <line id="Línea_56" data-name="Línea 56" x2="8.772" y2="8.772" transform="translate(1794.897 2620.913)" fill="none" stroke="#26a79a" stroke-linecap="round" stroke-linejoin="round" stroke-width="3"/>
  </g>
</svg>
