<svg xmlns="http://www.w3.org/2000/svg" xmlns:xlink="http://www.w3.org/1999/xlink" viewBox="0 0 1066.5 598.93"><defs><style>.cls-1{fill:#fff;}.cls-2{fill:url(#Degradado_sin_nombre_26);}.cls-3{fill:#00223d;}.cls-4{fill:#68c3ef;}.cls-5{fill:none;stroke:#a4dbf5;stroke-linecap:round;stroke-miterlimit:10;stroke-width:2px;}.cls-6{fill:url(#Degradado_sin_nombre_26-2);}.cls-7{fill:url(#Degradado_sin_nombre_26-3);}.cls-8{fill:url(#Degradado_sin_nombre_26-4);}.cls-9{fill:url(#Degradado_sin_nombre_26-5);}.cls-10{fill:url(#Degradado_sin_nombre_26-6);}.cls-11{fill:url(#Degradado_sin_nombre_26-7);}.cls-12{fill:url(#Degradado_sin_nombre_26-8);}.cls-13{fill:url(#Degradado_sin_nombre_26-9);}.cls-14{fill:url(#Degradado_sin_nombre_26-10);}.cls-15{fill:url(#Degradado_sin_nombre_26-11);}.cls-16{fill:url(#Degradado_sin_nombre_26-12);}</style><linearGradient id="Degradado_sin_nombre_26" x1="235.53" y1="26.4" x2="248.73" y2="13.2" gradientUnits="userSpaceOnUse"><stop offset="0" stop-color="#f2f2f2"/><stop offset="1" stop-color="#e6e6e6"/></linearGradient><linearGradient id="Degradado_sin_nombre_26-2" x1="235.53" y1="181.2" x2="248.73" y2="168" xlink:href="#Degradado_sin_nombre_26"/><linearGradient id="Degradado_sin_nombre_26-3" x1="235.53" y1="336.01" x2="248.73" y2="322.81" xlink:href="#Degradado_sin_nombre_26"/><linearGradient id="Degradado_sin_nombre_26-4" x1="235.53" y1="490.81" x2="248.73" y2="477.61" xlink:href="#Degradado_sin_nombre_26"/><linearGradient id="Degradado_sin_nombre_26-5" x1="615.93" y1="26.4" x2="629.13" y2="13.2" xlink:href="#Degradado_sin_nombre_26"/><linearGradient id="Degradado_sin_nombre_26-6" x1="615.93" y1="181.2" x2="629.13" y2="168" xlink:href="#Degradado_sin_nombre_26"/><linearGradient id="Degradado_sin_nombre_26-7" x1="615.93" y1="336.01" x2="629.13" y2="322.81" xlink:href="#Degradado_sin_nombre_26"/><linearGradient id="Degradado_sin_nombre_26-8" x1="615.93" y1="490.81" x2="629.13" y2="477.61" xlink:href="#Degradado_sin_nombre_26"/><linearGradient id="Degradado_sin_nombre_26-9" x1="996.33" y1="26.4" x2="1009.53" y2="13.2" xlink:href="#Degradado_sin_nombre_26"/><linearGradient id="Degradado_sin_nombre_26-10" x1="996.33" y1="181.2" x2="1009.53" y2="168" xlink:href="#Degradado_sin_nombre_26"/><linearGradient id="Degradado_sin_nombre_26-11" x1="996.33" y1="336.01" x2="1009.53" y2="322.81" xlink:href="#Degradado_sin_nombre_26"/><linearGradient id="Degradado_sin_nombre_26-12" x1="996.33" y1="490.81" x2="1009.53" y2="477.61" xlink:href="#Degradado_sin_nombre_26"/></defs><g id="Capa_2" data-name="Capa 2"><g id="CONTENIDO"><polygon class="cls-1" points="81.93 0 81.93 133.51 261.93 133.51 261.93 26.4 235.53 0 81.93 0"/><polygon class="cls-2" points="235.53 26.4 261.93 26.4 235.53 0 235.53 26.4"/><path class="cls-3" d="M94.81,54.13v4.75H93.38V47.45h3.38a5.6,5.6,0,0,1,3.35.81,2.83,2.83,0,0,1,1.09,2.42,3.07,3.07,0,0,1-2.48,3.06l3.34,5.14h-1.69l-3-4.75Zm0-1.14h2A3.58,3.58,0,0,0,99,52.43a2,2,0,0,0,.71-1.68A1.84,1.84,0,0,0,99,49.12a4.18,4.18,0,0,0-2.32-.5H94.81Z"/><path class="cls-3" d="M107.75,59a4.44,4.44,0,0,1-3.24-1.15,4.27,4.27,0,0,1-1.18-3.21,4.74,4.74,0,0,1,1.1-3.29,3.76,3.76,0,0,1,3-1.22,3.63,3.63,0,0,1,2.75,1.06,3.87,3.87,0,0,1,1,2.79v.82h-6.37a3.26,3.26,0,0,0,.82,2.29,3,3,0,0,0,2.2.78,7.87,7.87,0,0,0,3-.58v1.16a7.09,7.09,0,0,1-1.4.42A8.2,8.2,0,0,1,107.75,59Zm-.38-7.79a2.4,2.4,0,0,0-1.78.68,3,3,0,0,0-.78,1.85h4.84a2.71,2.71,0,0,0-.59-1.87A2.16,2.16,0,0,0,107.37,51.24Z"/><path class="cls-3" d="M119.5,56.54a2.08,2.08,0,0,1-1,1.84,4.73,4.73,0,0,1-2.7.65,6.27,6.27,0,0,1-2.87-.54v-1.2a7.08,7.08,0,0,0,1.43.49,6.42,6.42,0,0,0,1.47.18,3.68,3.68,0,0,0,1.69-.32,1.08,1.08,0,0,0,.12-1.85,8.11,8.11,0,0,0-1.83-.84,9.84,9.84,0,0,1-1.83-.77,2.49,2.49,0,0,1-.81-.76,1.8,1.8,0,0,1-.27-1,1.91,1.91,0,0,1,.92-1.66,4.62,4.62,0,0,1,2.53-.6,8,8,0,0,1,2.91.56l-.49,1.05a7.26,7.26,0,0,0-2.53-.53,3.14,3.14,0,0,0-1.5.29.9.9,0,0,0-.5.8.93.93,0,0,0,.19.59,1.86,1.86,0,0,0,.61.46,16.45,16.45,0,0,0,1.62.63,6.2,6.2,0,0,1,2.22,1.12A1.86,1.86,0,0,1,119.5,56.54Z"/><path class="cls-3" d="M123.09,50.31v5.56a2.08,2.08,0,0,0,.52,1.56,2.19,2.19,0,0,0,1.61.52,2.76,2.76,0,0,0,2.12-.74,3.55,3.55,0,0,0,.67-2.4v-4.5h1.4v8.57h-1.16l-.2-1.15H128a2.74,2.74,0,0,1-1.19,1A4.35,4.35,0,0,1,125,59a3.69,3.69,0,0,1-2.53-.74,3,3,0,0,1-.84-2.37V50.31Z"/><path class="cls-3" d="M144.16,58.88V53.31a2.22,2.22,0,0,0-.47-1.54,1.93,1.93,0,0,0-1.47-.51,2.47,2.47,0,0,0-1.93.69,3.14,3.14,0,0,0-.63,2.15v4.78h-1.4V53.31a2.17,2.17,0,0,0-.47-1.54,1.91,1.91,0,0,0-1.47-.51,2.37,2.37,0,0,0-1.93.73,3.71,3.71,0,0,0-.61,2.39v4.5h-1.4V50.31h1.14l.22,1.18h.07a2.62,2.62,0,0,1,1.12-1,3.55,3.55,0,0,1,1.61-.35,2.79,2.79,0,0,1,2.84,1.45h.06a2.89,2.89,0,0,1,1.2-1.06,4,4,0,0,1,1.79-.39,3.31,3.31,0,0,1,2.35.74,3.2,3.2,0,0,1,.78,2.39v5.59Z"/><path class="cls-3" d="M152.35,59a4.44,4.44,0,0,1-3.24-1.15,4.27,4.27,0,0,1-1.18-3.21,4.74,4.74,0,0,1,1.1-3.29,3.76,3.76,0,0,1,3-1.22,3.63,3.63,0,0,1,2.75,1.06,3.87,3.87,0,0,1,1,2.79v.82h-6.37a3.26,3.26,0,0,0,.82,2.29,3,3,0,0,0,2.2.78,7.87,7.87,0,0,0,2.95-.58v1.16a7.09,7.09,0,0,1-1.4.42A8.2,8.2,0,0,1,152.35,59ZM152,51.24a2.4,2.4,0,0,0-1.78.68,3,3,0,0,0-.78,1.85h4.84a2.71,2.71,0,0,0-.59-1.87A2.16,2.16,0,0,0,152,51.24Z"/><path class="cls-3" d="M164.46,58.88V53.34a2.17,2.17,0,0,0-.51-1.57,2.22,2.22,0,0,0-1.61-.51,2.76,2.76,0,0,0-2.13.73,3.45,3.45,0,0,0-.67,2.39v4.5h-1.41V50.31h1.14l.23,1.18h.07a2.77,2.77,0,0,1,1.2-1,4.09,4.09,0,0,1,1.73-.35,3.75,3.75,0,0,1,2.52.74,3.06,3.06,0,0,1,.84,2.39v5.59Z"/><path class="cls-3" d="M181.2,54.59a4.52,4.52,0,0,1-1.14,3.27A4.16,4.16,0,0,1,176.92,59a4.4,4.4,0,0,1-2.2-.54A3.69,3.69,0,0,1,173.23,57a5.07,5.07,0,0,1-.52-2.36,4.49,4.49,0,0,1,1.13-3.26A4.16,4.16,0,0,1,177,50.16a4.08,4.08,0,0,1,3.08,1.19A4.51,4.51,0,0,1,181.2,54.59Zm-7,0a3.88,3.88,0,0,0,.71,2.5,3,3,0,0,0,4.17,0,3.84,3.84,0,0,0,.71-2.5,3.78,3.78,0,0,0-.71-2.48,2.6,2.6,0,0,0-2.11-.85,2.55,2.55,0,0,0-2.07.84A3.76,3.76,0,0,0,174.16,54.59Z"/><path class="cls-3" d="M193.83,58.88l-.28-1.22h-.07a3.88,3.88,0,0,1-1.38,1.09,4.47,4.47,0,0,1-1.71.28,3.29,3.29,0,0,1-2.16-.65,2.31,2.31,0,0,1-.78-1.87c0-1.73,1.5-2.64,4.48-2.72l1.57,0v-.53a2.08,2.08,0,0,0-.47-1.49,2,2,0,0,0-1.5-.48,6.43,6.43,0,0,0-2.61.66l-.43-1a6.82,6.82,0,0,1,1.5-.54,6.93,6.93,0,0,1,1.63-.2,3.73,3.73,0,0,1,2.45.68,2.73,2.73,0,0,1,.8,2.18v5.85ZM190.67,58a3,3,0,0,0,2.05-.66,2.35,2.35,0,0,0,.75-1.86v-.77l-1.4,0a5.52,5.52,0,0,0-2.41.48,1.43,1.43,0,0,0-.74,1.32,1.3,1.3,0,0,0,.46,1.08A2,2,0,0,0,190.67,58Z"/><path class="cls-3" d="M202.05,50.17a3.55,3.55,0,0,1,2.83,1.16,4.78,4.78,0,0,1,1,3.26,4.8,4.8,0,0,1-1,3.27A3.52,3.52,0,0,1,202.05,59a4.22,4.22,0,0,1-1.65-.31,3.05,3.05,0,0,1-1.25-.95h-.1l-.3,1.11h-1V46.72h1.4v3c0,.66,0,1.26-.07,1.78h.07A3.43,3.43,0,0,1,202.05,50.17Zm-.2,1.09a2.53,2.53,0,0,0-2.07.76,4.07,4.07,0,0,0-.63,2.57,4.06,4.06,0,0,0,.65,2.58,2.56,2.56,0,0,0,2.08.78,2.24,2.24,0,0,0,1.93-.87,4.25,4.25,0,0,0,.63-2.51,4.08,4.08,0,0,0-.63-2.49A2.33,2.33,0,0,0,201.85,51.26Z"/><path class="cls-3" d="M214.3,56.54a2.08,2.08,0,0,1-1,1.84,4.73,4.73,0,0,1-2.7.65,6.27,6.27,0,0,1-2.87-.54v-1.2a7.08,7.08,0,0,0,1.43.49,6.42,6.42,0,0,0,1.47.18,3.65,3.65,0,0,0,1.69-.32,1.08,1.08,0,0,0,.12-1.85,8.19,8.19,0,0,0-1.82-.84,9.7,9.7,0,0,1-1.84-.77,2.49,2.49,0,0,1-.81-.76,1.8,1.8,0,0,1-.26-1,1.9,1.9,0,0,1,.91-1.66,4.62,4.62,0,0,1,2.53-.6,8,8,0,0,1,2.91.56l-.49,1.05a7.26,7.26,0,0,0-2.52-.53,3.15,3.15,0,0,0-1.51.29.9.9,0,0,0-.5.8.93.93,0,0,0,.19.59,1.86,1.86,0,0,0,.61.46,16.45,16.45,0,0,0,1.62.63,6.11,6.11,0,0,1,2.22,1.12A1.86,1.86,0,0,1,214.3,56.54Z"/><path class="cls-3" d="M219.56,58a4.21,4.21,0,0,0,.72-.05c.23,0,.41-.07.55-.1v1a2.91,2.91,0,0,1-.67.17,6,6,0,0,1-.8.06c-1.79,0-2.68-.87-2.68-2.61v-5.1h-1.33V50.7l1.33-.54.59-1.83h.81v2h2.68v1h-2.68v5a1.67,1.67,0,0,0,.39,1.19A1.47,1.47,0,0,0,219.56,58Z"/><path class="cls-3" d="M226.89,50.16a6.23,6.23,0,0,1,1.11.09l-.2,1.2a5.73,5.73,0,0,0-1-.11,2.55,2.55,0,0,0-1.92.84,2.94,2.94,0,0,0-.8,2.1v4.6h-1.4V50.31h1.16L224,51.9h.07a3.75,3.75,0,0,1,1.24-1.29A2.94,2.94,0,0,1,226.89,50.16Z"/><path class="cls-3" d="M235.41,58.88l-.28-1.22h-.07a3.88,3.88,0,0,1-1.38,1.09A4.47,4.47,0,0,1,232,59a3.29,3.29,0,0,1-2.16-.65,2.31,2.31,0,0,1-.78-1.87c0-1.73,1.5-2.64,4.48-2.72l1.57,0v-.53a2.08,2.08,0,0,0-.47-1.49,2,2,0,0,0-1.49-.48,6.47,6.47,0,0,0-2.62.66l-.43-1a6.82,6.82,0,0,1,1.5-.54,6.93,6.93,0,0,1,1.63-.2,3.73,3.73,0,0,1,2.45.68,2.73,2.73,0,0,1,.8,2.18v5.85ZM232.25,58a3,3,0,0,0,2.05-.66,2.35,2.35,0,0,0,.75-1.86v-.77l-1.4,0a5.52,5.52,0,0,0-2.41.48,1.43,1.43,0,0,0-.74,1.32A1.3,1.3,0,0,0,231,57.6,2.06,2.06,0,0,0,232.25,58Z"/><path class="cls-3" d="M243,59a4.12,4.12,0,0,1-3.11-1.14,4.45,4.45,0,0,1-1.1-3.24,4.64,4.64,0,0,1,1.11-3.32,4.21,4.21,0,0,1,3.19-1.17,6.66,6.66,0,0,1,1.33.13,5,5,0,0,1,1.05.31l-.43,1.1a8.66,8.66,0,0,0-1-.28,4.59,4.59,0,0,0-1-.11q-2.81,0-2.81,3.32a3.76,3.76,0,0,0,.69,2.43,2.45,2.45,0,0,0,2,.84,6.6,6.6,0,0,0,2.37-.46v1.15A5.5,5.5,0,0,1,243,59Z"/><path class="cls-3" d="M250.54,58a4.21,4.21,0,0,0,.72-.05c.23,0,.41-.07.55-.1v1a3.06,3.06,0,0,1-.67.17,6.17,6.17,0,0,1-.8.06c-1.79,0-2.68-.87-2.68-2.61v-5.1h-1.33V50.7l1.33-.54.59-1.83h.81v2h2.68v1h-2.68v5a1.67,1.67,0,0,0,.39,1.19A1.47,1.47,0,0,0,250.54,58Z"/><path class="cls-3" d="M96,76.49a11.39,11.39,0,0,1,.65-3.87,9.65,9.65,0,0,1,1.89-3.17h1.36A10.78,10.78,0,0,0,98,72.77a11.41,11.41,0,0,0-.61,3.71A10.91,10.91,0,0,0,98,80.14a11.35,11.35,0,0,0,1.8,3.27H98.49a9,9,0,0,1-1.89-3.1A11.14,11.14,0,0,1,96,76.49Z"/><path class="cls-3" d="M105.76,81a4.44,4.44,0,0,1-3.24-1.15,4.27,4.27,0,0,1-1.18-3.21,4.74,4.74,0,0,1,1.1-3.29,3.76,3.76,0,0,1,3-1.22,3.63,3.63,0,0,1,2.75,1.06,3.87,3.87,0,0,1,1,2.79v.82h-6.37a3.26,3.26,0,0,0,.82,2.29,3,3,0,0,0,2.2.78,7.87,7.87,0,0,0,3-.58v1.16a7.09,7.09,0,0,1-1.4.42A8.2,8.2,0,0,1,105.76,81Zm-.38-7.79a2.39,2.39,0,0,0-1.78.68,3,3,0,0,0-.78,1.85h4.84a2.71,2.71,0,0,0-.59-1.87A2.16,2.16,0,0,0,105.38,73.24Z"/><path class="cls-3" d="M117.87,80.88V75.34a2.17,2.17,0,0,0-.51-1.57,2.23,2.23,0,0,0-1.62-.51,2.75,2.75,0,0,0-2.12.73,3.45,3.45,0,0,0-.68,2.39v4.5h-1.4V72.31h1.14l.23,1.18H113a2.72,2.72,0,0,1,1.2-1,4.09,4.09,0,0,1,1.73-.35,3.75,3.75,0,0,1,2.52.74,3.06,3.06,0,0,1,.84,2.39v5.59Z"/><path class="cls-3" d="M126.52,70a.82.82,0,0,1,.23-.65.87.87,0,0,1,.59-.21.81.81,0,0,1,.58.22.77.77,0,0,1,.25.64.82.82,0,0,1-.25.66.84.84,0,0,1-.58.21.87.87,0,0,1-.59-.21A.84.84,0,0,1,126.52,70ZM128,80.88h-1.4V72.31H128Z"/><path class="cls-3" d="M137.29,79.73h-.07a3.39,3.39,0,0,1-2.9,1.3,3.54,3.54,0,0,1-2.82-1.15,4.73,4.73,0,0,1-1-3.26,4.85,4.85,0,0,1,1-3.29,3.52,3.52,0,0,1,2.82-1.17,3.47,3.47,0,0,1,2.88,1.26h.11l-.06-.61,0-.61V68.72h1.4V80.88h-1.14Zm-2.8.22a2.63,2.63,0,0,0,2.08-.73,3.43,3.43,0,0,0,.65-2.33v-.27a4,4,0,0,0-.66-2.6,2.56,2.56,0,0,0-2.08-.78,2.22,2.22,0,0,0-1.89.89,4.2,4.2,0,0,0-.65,2.5,4,4,0,0,0,.65,2.48A2.26,2.26,0,0,0,134.49,80Z"/><path class="cls-3" d="M141.47,70a.86.86,0,0,1,.23-.65.88.88,0,0,1,.6-.21.84.84,0,0,1,.58.22.8.8,0,0,1,.24.64.85.85,0,0,1-.24.66.82.82,0,0,1-1.41-.66ZM143,80.88h-1.4V72.31H143Z"/><path class="cls-3" d="M153.93,76.59a4.52,4.52,0,0,1-1.13,3.27A4.19,4.19,0,0,1,149.65,81a4.4,4.4,0,0,1-2.2-.54A3.69,3.69,0,0,1,146,79a5.19,5.19,0,0,1-.52-2.36,4.49,4.49,0,0,1,1.13-3.26,4.16,4.16,0,0,1,3.14-1.17,4.08,4.08,0,0,1,3.08,1.19A4.51,4.51,0,0,1,153.93,76.59Zm-7,0a3.88,3.88,0,0,0,.71,2.5,3,3,0,0,0,4.17,0,3.78,3.78,0,0,0,.71-2.5,3.72,3.72,0,0,0-.71-2.48,3,3,0,0,0-4.18,0A3.81,3.81,0,0,0,146.89,76.59Z"/><path class="cls-3" d="M168.17,80.88V75.31a2.22,2.22,0,0,0-.47-1.54,1.91,1.91,0,0,0-1.47-.51,2.48,2.48,0,0,0-1.93.69,3.14,3.14,0,0,0-.62,2.15v4.78h-1.4V75.31a2.17,2.17,0,0,0-.48-1.54,1.9,1.9,0,0,0-1.47-.51,2.37,2.37,0,0,0-1.93.73,3.71,3.71,0,0,0-.61,2.39v4.5h-1.4V72.31h1.14l.23,1.18h.06a2.68,2.68,0,0,1,1.12-1,3.57,3.57,0,0,1,1.62-.35,2.78,2.78,0,0,1,2.83,1.45h.07a2.8,2.8,0,0,1,1.19-1.06,4,4,0,0,1,1.79-.39,3.31,3.31,0,0,1,2.35.74,3.2,3.2,0,0,1,.78,2.39v5.59Z"/><path class="cls-3" d="M178.14,80.88l-.28-1.22h-.06a4.06,4.06,0,0,1-1.38,1.09,4.52,4.52,0,0,1-1.72.28,3.29,3.29,0,0,1-2.16-.65,2.31,2.31,0,0,1-.78-1.87c0-1.73,1.5-2.64,4.48-2.72l1.57-.05v-.53a2,2,0,0,0-.47-1.49,2,2,0,0,0-1.49-.48,6.47,6.47,0,0,0-2.62.66l-.43-1a7.26,7.26,0,0,1,3.13-.74,3.73,3.73,0,0,1,2.45.68,2.73,2.73,0,0,1,.8,2.18v5.85ZM175,80A3,3,0,0,0,177,79.3a2.35,2.35,0,0,0,.75-1.86v-.77l-1.4,0a5.52,5.52,0,0,0-2.41.48,1.43,1.43,0,0,0-.74,1.32,1.33,1.33,0,0,0,.46,1.08A2.06,2.06,0,0,0,175,80Z"/><path class="cls-3" d="M190.45,81a4.43,4.43,0,0,1-3.23-1.15A4.27,4.27,0,0,1,186,76.67a4.69,4.69,0,0,1,1.1-3.29,3.75,3.75,0,0,1,3-1.22,3.6,3.6,0,0,1,2.75,1.06,3.83,3.83,0,0,1,1,2.79v.82h-6.36a3.21,3.21,0,0,0,.82,2.29,3,3,0,0,0,2.2.78,7.9,7.9,0,0,0,3-.58v1.16a7.37,7.37,0,0,1-1.41.42A8.13,8.13,0,0,1,190.45,81Zm-.37-7.79a2.37,2.37,0,0,0-1.78.68,3,3,0,0,0-.78,1.85h4.83a2.66,2.66,0,0,0-.59-1.87A2.13,2.13,0,0,0,190.08,73.24Z"/><path class="cls-3" d="M202.2,78.54a2.08,2.08,0,0,1-1,1.84,4.73,4.73,0,0,1-2.7.65,6.22,6.22,0,0,1-2.86-.54v-1.2a7.08,7.08,0,0,0,1.43.49,6.29,6.29,0,0,0,1.47.18,3.6,3.6,0,0,0,1.68-.32,1.08,1.08,0,0,0,.13-1.85,8.33,8.33,0,0,0-1.83-.84,9.84,9.84,0,0,1-1.83-.77,2.3,2.3,0,0,1-.81-.76,1.8,1.8,0,0,1-.27-1,1.91,1.91,0,0,1,.92-1.66,4.56,4.56,0,0,1,2.52-.6,8,8,0,0,1,2.92.56l-.5,1a7.26,7.26,0,0,0-2.52-.53,3.14,3.14,0,0,0-1.5.29.89.89,0,0,0-.51.8,1,1,0,0,0,.19.59,2,2,0,0,0,.61.46q.43.21,1.62.63a6.18,6.18,0,0,1,2.23,1.12A1.88,1.88,0,0,1,202.2,78.54Z"/><path class="cls-3" d="M208.78,81a4.22,4.22,0,0,1-1.65-.31,3.05,3.05,0,0,1-1.25-1h-.1a10.33,10.33,0,0,1,.1,1.43v3.52h-1.4V72.31h1.14l.19,1.18h.07a3.2,3.2,0,0,1,1.26-1,4,4,0,0,1,1.64-.31,3.56,3.56,0,0,1,2.84,1.16,4.86,4.86,0,0,1,1,3.27,4.8,4.8,0,0,1-1,3.27A3.52,3.52,0,0,1,208.78,81Zm-.2-7.77a2.57,2.57,0,0,0-2.05.73,3.52,3.52,0,0,0-.65,2.31v.29a4.06,4.06,0,0,0,.65,2.58,2.56,2.56,0,0,0,2.08.78,2.22,2.22,0,0,0,1.88-.9,4.06,4.06,0,0,0,.68-2.48,3.91,3.91,0,0,0-.68-2.46A2.29,2.29,0,0,0,208.58,73.26Z"/><path class="cls-3" d="M220.75,80.88l-.28-1.22h-.07A4,4,0,0,1,219,80.75a4.52,4.52,0,0,1-1.72.28,3.29,3.29,0,0,1-2.16-.65,2.31,2.31,0,0,1-.78-1.87c0-1.73,1.5-2.64,4.48-2.72l1.57-.05v-.53a2,2,0,0,0-.47-1.49,2,2,0,0,0-1.49-.48,6.47,6.47,0,0,0-2.62.66l-.43-1a7.26,7.26,0,0,1,3.13-.74,3.73,3.73,0,0,1,2.45.68,2.73,2.73,0,0,1,.8,2.18v5.85ZM217.59,80a3,3,0,0,0,2-.66,2.35,2.35,0,0,0,.75-1.86v-.77l-1.4,0a5.52,5.52,0,0,0-2.41.48,1.43,1.43,0,0,0-.74,1.32,1.33,1.33,0,0,0,.46,1.08A2.06,2.06,0,0,0,217.59,80Z"/><path class="cls-3" d="M231,80.88V75.34a2.13,2.13,0,0,0-.52-1.57,2.21,2.21,0,0,0-1.61-.51,2.75,2.75,0,0,0-2.12.73,3.45,3.45,0,0,0-.68,2.39v4.5h-1.4V72.31h1.14l.23,1.18h.07a2.72,2.72,0,0,1,1.2-1,4.09,4.09,0,0,1,1.73-.35,3.75,3.75,0,0,1,2.52.74,3.06,3.06,0,0,1,.84,2.39v5.59ZM230,71.17a1.78,1.78,0,0,1-.71-.15c-.23-.1-.45-.2-.67-.32l-.65-.32a1.31,1.31,0,0,0-.59-.14.82.82,0,0,0-.64.23,1.68,1.68,0,0,0-.33.71h-.83a2.6,2.6,0,0,1,.6-1.48,1.59,1.59,0,0,1,1.25-.53,1.92,1.92,0,0,1,.75.14,7.27,7.27,0,0,1,.69.32l.63.32a1.35,1.35,0,0,0,.58.15.75.75,0,0,0,.61-.24,1.62,1.62,0,0,0,.33-.71h.84a2.67,2.67,0,0,1-.59,1.48A1.61,1.61,0,0,1,230,71.17Z"/><path class="cls-3" d="M243.25,76.59a4.52,4.52,0,0,1-1.14,3.27A4.16,4.16,0,0,1,239,81a4.4,4.4,0,0,1-2.2-.54A3.69,3.69,0,0,1,235.28,79a5.07,5.07,0,0,1-.52-2.36,4.49,4.49,0,0,1,1.13-3.26A4.16,4.16,0,0,1,239,72.16a4.08,4.08,0,0,1,3.08,1.19A4.51,4.51,0,0,1,243.25,76.59Zm-7,0a3.88,3.88,0,0,0,.71,2.5,3,3,0,0,0,4.17,0,3.84,3.84,0,0,0,.71-2.5,3.78,3.78,0,0,0-.71-2.48,2.59,2.59,0,0,0-2.1-.85,2.56,2.56,0,0,0-2.08.84A3.76,3.76,0,0,0,236.21,76.59Z"/><path class="cls-3" d="M247.11,80.88h-1.4V68.72h1.4Z"/><path class="cls-3" d="M144.3,103a4.43,4.43,0,0,1-3.23-1.15,4.28,4.28,0,0,1-1.19-3.21,4.74,4.74,0,0,1,1.1-3.29,3.78,3.78,0,0,1,3-1.22,3.6,3.6,0,0,1,2.75,1.06,3.87,3.87,0,0,1,1,2.79v.82h-6.37a3.26,3.26,0,0,0,.83,2.29,3,3,0,0,0,2.19.78,7.92,7.92,0,0,0,3-.58v1.16a7.37,7.37,0,0,1-1.41.42A8.13,8.13,0,0,1,144.3,103Zm-.38-7.79a2.37,2.37,0,0,0-1.77.68,3,3,0,0,0-.78,1.85h4.83a2.71,2.71,0,0,0-.59-1.87A2.15,2.15,0,0,0,143.92,95.24Z"/><path class="cls-3" d="M154.46,92a.86.86,0,0,1,.23-.65.87.87,0,0,1,.59-.21.85.85,0,0,1,.59.22.8.8,0,0,1,.24.64.85.85,0,0,1-.24.66.89.89,0,0,1-.59.21.87.87,0,0,1-.59-.21A.88.88,0,0,1,154.46,92ZM156,102.88h-1.4V94.31H156Z"/><path class="cls-3" d="M165.27,102.88V97.34a2.17,2.17,0,0,0-.51-1.57,2.22,2.22,0,0,0-1.61-.51A2.76,2.76,0,0,0,161,96a3.45,3.45,0,0,0-.67,2.39v4.5h-1.41V94.31h1.14l.23,1.18h.07a2.77,2.77,0,0,1,1.2-1,4.09,4.09,0,0,1,1.73-.35,3.73,3.73,0,0,1,2.52.74,3.06,3.06,0,0,1,.84,2.39v5.59Z"/><path class="cls-3" d="M177.11,94.31v.82l-1.71.19a2.44,2.44,0,0,1,.42.72,2.4,2.4,0,0,1,.19,1,2.45,2.45,0,0,1-.93,2,4,4,0,0,1-2.55.75,4.72,4.72,0,0,1-.77-.06c-.6.29-.9.66-.9,1.1a.57.57,0,0,0,.31.52,2.5,2.5,0,0,0,1.08.17h1.63a3.9,3.9,0,0,1,2.31.58,2,2,0,0,1,.8,1.71,2.38,2.38,0,0,1-1.23,2.16,7,7,0,0,1-3.59.75,5.31,5.31,0,0,1-2.8-.62,2,2,0,0,1-1-1.77,1.9,1.9,0,0,1,.54-1.35,2.87,2.87,0,0,1,1.52-.78,1.41,1.41,0,0,1-.6-.46,1.14,1.14,0,0,1-.24-.72,1.28,1.28,0,0,1,.27-.82,2.74,2.74,0,0,1,.86-.68,2.54,2.54,0,0,1-1.17-.93,2.6,2.6,0,0,1-.45-1.5,2.66,2.66,0,0,1,.91-2.17,3.89,3.89,0,0,1,2.58-.76,5.3,5.3,0,0,1,1.31.15Zm-7.37,10a1.15,1.15,0,0,0,.63,1.06,3.76,3.76,0,0,0,1.82.36,5.49,5.49,0,0,0,2.61-.49,1.49,1.49,0,0,0,.84-1.32,1,1,0,0,0-.46-1,3.86,3.86,0,0,0-1.75-.27h-1.67a2.36,2.36,0,0,0-1.49.42A1.47,1.47,0,0,0,169.74,104.31Zm.76-7.25a1.67,1.67,0,0,0,.55,1.36,2.32,2.32,0,0,0,1.52.46c1.37,0,2.05-.62,2.05-1.85s-.69-1.93-2.07-1.93a2.16,2.16,0,0,0-1.52.5A1.89,1.89,0,0,0,170.5,97.06Z"/><path class="cls-3" d="M180.41,102.88H179V90.72h1.4Z"/><path class="cls-3" d="M187.28,103a4.43,4.43,0,0,1-3.23-1.15,4.28,4.28,0,0,1-1.19-3.21A4.7,4.7,0,0,1,184,95.38a3.74,3.74,0,0,1,2.95-1.22,3.6,3.6,0,0,1,2.75,1.06,3.83,3.83,0,0,1,1,2.79v.82h-6.36a3.21,3.21,0,0,0,.82,2.29,3,3,0,0,0,2.19.78,7.92,7.92,0,0,0,3-.58v1.16a7.37,7.37,0,0,1-1.41.42A8.13,8.13,0,0,1,187.28,103Zm-.38-7.79a2.37,2.37,0,0,0-1.77.68,3,3,0,0,0-.78,1.85h4.83a2.71,2.71,0,0,0-.59-1.87A2.13,2.13,0,0,0,186.9,95.24Zm-1-2.25c.27-.33.56-.72.87-1.18a12.43,12.43,0,0,0,.74-1.19h1.7v.16a11.24,11.24,0,0,1-1.1,1.25,11.6,11.6,0,0,1-1.28,1.15h-.93Z"/><path class="cls-3" d="M199,100.54a2.08,2.08,0,0,1-1,1.84,4.73,4.73,0,0,1-2.7.65,6.22,6.22,0,0,1-2.86-.54v-1.2a7.21,7.21,0,0,0,1.42.49,6.43,6.43,0,0,0,1.48.18,3.6,3.6,0,0,0,1.68-.32,1.08,1.08,0,0,0,.13-1.85,8.58,8.58,0,0,0-1.83-.84,9.84,9.84,0,0,1-1.83-.77,2.3,2.3,0,0,1-.81-.76,1.8,1.8,0,0,1-.27-1,1.91,1.91,0,0,1,.92-1.66,4.56,4.56,0,0,1,2.52-.6,8,8,0,0,1,2.92.56l-.5,1a7.26,7.26,0,0,0-2.52-.53,3.14,3.14,0,0,0-1.5.29.89.89,0,0,0-.51.8,1,1,0,0,0,.19.59,2,2,0,0,0,.61.46,16.45,16.45,0,0,0,1.62.63,6.18,6.18,0,0,1,2.23,1.12A1.88,1.88,0,0,1,199,100.54Z"/><path class="cls-3" d="M204.25,98.49a10.89,10.89,0,0,1-.66,3.83,9,9,0,0,1-1.88,3.09h-1.35a11.26,11.26,0,0,0,2.42-6.93,11.68,11.68,0,0,0-.61-3.71,10.8,10.8,0,0,0-1.83-3.32h1.37a9.69,9.69,0,0,1,1.89,3.18A11.42,11.42,0,0,1,204.25,98.49Z"/><circle class="cls-4" cx="16.8" cy="116.71" r="16.8"/><path class="cls-1" d="M11.22,122.6a4.64,4.64,0,0,1-1.7-2,8.14,8.14,0,0,1,0-6.23,4.64,4.64,0,0,1,1.7-2,4.56,4.56,0,0,1,2.48-.69,4.51,4.51,0,0,1,2.48.69,4.59,4.59,0,0,1,1.71,2,8.26,8.26,0,0,1,0,6.23,4.59,4.59,0,0,1-1.71,2,4.51,4.51,0,0,1-2.48.69A4.56,4.56,0,0,1,11.22,122.6Zm4.09-2.38a6.56,6.56,0,0,0,0-5.44,1.89,1.89,0,0,0-3.2,0,6.67,6.67,0,0,0,0,5.44,1.89,1.89,0,0,0,3.2,0Z"/><path class="cls-1" d="M24,111.9v11.2H21.4V114H19.16V111.9Z"/><line class="cls-5" x1="44.01" y1="133.51" x2="304.7" y2="133.51"/><polygon class="cls-1" points="81.93 154.8 81.93 288.32 261.93 288.32 261.93 181.2 235.53 154.8 81.93 154.8"/><polygon class="cls-6" points="235.53 181.2 261.93 181.2 235.53 154.8 235.53 181.2"/><circle class="cls-4" cx="16.8" cy="271.52" r="16.8"/><path class="cls-1" d="M9.64,277.4a4.57,4.57,0,0,1-1.7-2,8.11,8.11,0,0,1,0-6.22,4.56,4.56,0,0,1,8.36,0,8.11,8.11,0,0,1,0,6.22,4.66,4.66,0,0,1-6.66,2ZM13.73,275a6.67,6.67,0,0,0,0-5.44,1.83,1.83,0,0,0-1.61-.88,1.81,1.81,0,0,0-1.59.88,6.56,6.56,0,0,0,0,5.44,1.81,1.81,0,0,0,1.59.88A1.83,1.83,0,0,0,13.73,275Z"/><path class="cls-1" d="M26.46,275.79v2.11H18v-1.68l4.32-4.08a4.53,4.53,0,0,0,.93-1.13,2.05,2.05,0,0,0,.24-.94,1.23,1.23,0,0,0-.46-1,2.11,2.11,0,0,0-1.33-.36,3.16,3.16,0,0,0-1.33.28,2.58,2.58,0,0,0-1,.84l-1.89-1.21a4.46,4.46,0,0,1,1.81-1.53,6,6,0,0,1,2.64-.55,5.44,5.44,0,0,1,2.18.4,3.41,3.41,0,0,1,1.46,1.16,3,3,0,0,1,.52,1.75,3.83,3.83,0,0,1-.39,1.71,6.54,6.54,0,0,1-1.48,1.82l-2.58,2.44Z"/><line class="cls-5" x1="44.01" y1="288.32" x2="304.7" y2="288.32"/><polygon class="cls-1" points="81.93 309.61 81.93 443.12 261.93 443.12 261.93 336.01 235.53 309.61 81.93 309.61"/><polygon class="cls-7" points="235.53 336.01 261.93 336.01 235.53 309.61 235.53 336.01"/><circle class="cls-4" cx="16.8" cy="426.32" r="16.8"/><path class="cls-1" d="M9.66,432.21a4.62,4.62,0,0,1-1.71-2A8.23,8.23,0,0,1,8,424a4.59,4.59,0,0,1,1.71-2,4.51,4.51,0,0,1,2.48-.69,4.56,4.56,0,0,1,2.48.69,4.64,4.64,0,0,1,1.7,2,8.11,8.11,0,0,1,0,6.22,4.67,4.67,0,0,1-1.7,2,4.55,4.55,0,0,1-2.48.68A4.51,4.51,0,0,1,9.66,432.21Zm4.08-2.39a6.56,6.56,0,0,0,0-5.44,1.89,1.89,0,0,0-3.2,0,6.67,6.67,0,0,0,0,5.44,1.89,1.89,0,0,0,3.2,0Z"/><path class="cls-1" d="M25.53,427.16a3,3,0,0,1,.78,2.12,3.36,3.36,0,0,1-.51,1.8,3.54,3.54,0,0,1-1.56,1.32,6,6,0,0,1-2.57.49,8.78,8.78,0,0,1-2.33-.31,5.89,5.89,0,0,1-1.94-.89l1-2a4.67,4.67,0,0,0,1.48.74,5.57,5.57,0,0,0,1.72.27,2.7,2.7,0,0,0,1.53-.38,1.18,1.18,0,0,0,.56-1.06c0-.92-.69-1.38-2.09-1.38H20.42v-1.71l2.31-2.61H18V421.5H25.8v1.68l-2.53,2.88A3.78,3.78,0,0,1,25.53,427.16Z"/><line class="cls-5" x1="44.01" y1="443.12" x2="304.7" y2="443.12"/><polygon class="cls-1" points="81.93 464.41 81.93 597.92 261.93 597.92 261.93 490.81 235.53 464.41 81.93 464.41"/><polygon class="cls-8" points="235.53 490.81 261.93 490.81 235.53 464.41 235.53 490.81"/><circle class="cls-4" cx="16.8" cy="581.13" r="16.8"/><path class="cls-1" d="M8.8,587a4.57,4.57,0,0,1-1.7-2,8.14,8.14,0,0,1,0-6.23,4.63,4.63,0,0,1,1.7-2,4.54,4.54,0,0,1,2.48-.69,4.51,4.51,0,0,1,2.48.69,4.63,4.63,0,0,1,1.7,2,8.14,8.14,0,0,1,0,6.23,4.57,4.57,0,0,1-1.7,2,4.51,4.51,0,0,1-2.48.69A4.54,4.54,0,0,1,8.8,587Zm4.09-2.38a6.67,6.67,0,0,0,0-5.44,1.83,1.83,0,0,0-1.61-.88,1.81,1.81,0,0,0-1.59.88,6.56,6.56,0,0,0,0,5.44,1.83,1.83,0,0,0,1.59.88A1.85,1.85,0,0,0,12.89,584.63Z"/><path class="cls-1" d="M27.6,585.15H25.78v2.36H23.25v-2.36h-6v-1.74l5.28-7.1h2.72L20.32,583h3V581h2.45V583H27.6Z"/><line class="cls-5" x1="44.01" y1="597.93" x2="304.7" y2="597.93"/><polygon class="cls-1" points="462.33 0 462.33 133.51 642.33 133.51 642.33 26.4 615.92 0 462.33 0"/><polygon class="cls-9" points="615.92 26.4 642.33 26.4 615.92 0 615.92 26.4"/><circle class="cls-4" cx="397.2" cy="116.71" r="16.8"/><path class="cls-1" d="M390,122.6a4.64,4.64,0,0,1-1.7-2,8.14,8.14,0,0,1,0-6.23,4.64,4.64,0,0,1,1.7-2,4.8,4.8,0,0,1,5,0,4.59,4.59,0,0,1,1.71,2,8.26,8.26,0,0,1,0,6.23,4.59,4.59,0,0,1-1.71,2,4.8,4.8,0,0,1-5,0Zm4.09-2.38a6.67,6.67,0,0,0,0-5.44,1.83,1.83,0,0,0-1.61-.88,1.81,1.81,0,0,0-1.59.88,6.67,6.67,0,0,0,0,5.44,1.83,1.83,0,0,0,1.59.88A1.85,1.85,0,0,0,394,120.22Z"/><path class="cls-1" d="M405.83,117.05a3.14,3.14,0,0,1,1.13,2.53,3.41,3.41,0,0,1-2.07,3.2,5.89,5.89,0,0,1-2.59.51A9.07,9.07,0,0,1,400,123a6.16,6.16,0,0,1-2-.89l1-2a4.85,4.85,0,0,0,1.47.75,5.76,5.76,0,0,0,1.71.26,2.76,2.76,0,0,0,1.54-.38,1.25,1.25,0,0,0,.56-1.07,1.21,1.21,0,0,0-.59-1.09,4,4,0,0,0-2-.37h-2.87l.58-6.3h6.83V114H401.6l-.18,2.12h.92A5.37,5.37,0,0,1,405.83,117.05Z"/><line class="cls-5" x1="424.41" y1="133.51" x2="685.1" y2="133.51"/><polygon class="cls-1" points="462.33 154.8 462.33 288.32 642.33 288.32 642.33 181.2 615.92 154.8 462.33 154.8"/><polygon class="cls-10" points="615.92 181.2 642.33 181.2 615.92 154.8 615.92 181.2"/><circle class="cls-4" cx="397.2" cy="271.52" r="16.8"/><path class="cls-1" d="M389.62,277.4a4.59,4.59,0,0,1-1.71-2,8.23,8.23,0,0,1,0-6.22,4.69,4.69,0,0,1,6.67-2,4.67,4.67,0,0,1,1.7,2,8.11,8.11,0,0,1,0,6.22,4.64,4.64,0,0,1-1.7,2,4.56,4.56,0,0,1-2.48.69A4.51,4.51,0,0,1,389.62,277.4ZM393.7,275a6.56,6.56,0,0,0,0-5.44,1.89,1.89,0,0,0-3.2,0,6.67,6.67,0,0,0,0,5.44,1.89,1.89,0,0,0,3.2,0Z"/><path class="cls-1" d="M405.5,271.31a3.46,3.46,0,0,1,1.4,1.22,3.31,3.31,0,0,1,.51,1.83,3.5,3.5,0,0,1-.56,2,3.69,3.69,0,0,1-1.53,1.31,5,5,0,0,1-2.15.45,4.75,4.75,0,0,1-3.68-1.44,5.82,5.82,0,0,1-1.33-4.11,6.92,6.92,0,0,1,.72-3.27,4.93,4.93,0,0,1,2-2.06,6.1,6.1,0,0,1,3-.7,6.93,6.93,0,0,1,1.72.2,4.6,4.6,0,0,1,1.4.56l-1,1.91a3.68,3.68,0,0,0-2.09-.56,3.07,3.07,0,0,0-2.26.83,3.55,3.55,0,0,0-.9,2.42,3.78,3.78,0,0,1,2.77-1A4.3,4.3,0,0,1,405.5,271.31Zm-1.12,4.4a1.69,1.69,0,0,0,0-2.44,2,2,0,0,0-1.39-.46,2.07,2.07,0,0,0-1.39.47,1.54,1.54,0,0,0-.54,1.21,1.53,1.53,0,0,0,.52,1.2,2.13,2.13,0,0,0,1.44.46A2,2,0,0,0,404.38,275.71Z"/><line class="cls-5" x1="424.41" y1="288.32" x2="685.1" y2="288.32"/><polygon class="cls-1" points="462.33 309.61 462.33 443.12 642.33 443.12 642.33 336.01 615.92 309.61 462.33 309.61"/><polygon class="cls-11" points="615.92 336.01 642.33 336.01 615.92 309.61 615.92 336.01"/><circle class="cls-4" cx="397.2" cy="426.32" r="16.8"/><path class="cls-1" d="M389.78,432.21a4.67,4.67,0,0,1-1.7-2,8.11,8.11,0,0,1,0-6.22,4.64,4.64,0,0,1,1.7-2,4.56,4.56,0,0,1,2.48-.69,4.51,4.51,0,0,1,2.48.69,4.59,4.59,0,0,1,1.71,2,8.23,8.23,0,0,1,0,6.22,4.62,4.62,0,0,1-1.71,2,4.51,4.51,0,0,1-2.48.68A4.55,4.55,0,0,1,389.78,432.21Zm4.09-2.39a6.56,6.56,0,0,0,0-5.44,1.89,1.89,0,0,0-3.2,0,6.67,6.67,0,0,0,0,5.44,1.89,1.89,0,0,0,3.2,0Z"/><path class="cls-1" d="M407,421.5v1.68l-4.16,9.52h-2.81l4-9.09h-3.71v1.83h-2.3V421.5Z"/><line class="cls-5" x1="424.41" y1="443.12" x2="685.1" y2="443.12"/><polygon class="cls-1" points="462.33 464.41 462.33 597.92 642.33 597.92 642.33 490.81 615.92 464.41 462.33 464.41"/><polygon class="cls-12" points="615.92 490.81 642.33 490.81 615.92 464.41 615.92 490.81"/><circle class="cls-4" cx="397.2" cy="581.13" r="16.8"/><path class="cls-1" d="M389.43,587a4.64,4.64,0,0,1-1.7-2,8.14,8.14,0,0,1,0-6.23,4.7,4.7,0,0,1,1.7-2,4.8,4.8,0,0,1,5,0,4.65,4.65,0,0,1,1.71,2,8.26,8.26,0,0,1,0,6.23,4.59,4.59,0,0,1-1.71,2,4.8,4.8,0,0,1-5,0Zm4.09-2.38a6.67,6.67,0,0,0,0-5.44,1.83,1.83,0,0,0-1.61-.88,1.81,1.81,0,0,0-1.59.88,6.67,6.67,0,0,0,0,5.44,1.83,1.83,0,0,0,1.59.88A1.85,1.85,0,0,0,393.52,584.63Z"/><path class="cls-1" d="M406.91,582.71a2.76,2.76,0,0,1,.44,1.55,2.91,2.91,0,0,1-.59,1.81,3.73,3.73,0,0,1-1.66,1.2,6.61,6.61,0,0,1-2.48.43,6.54,6.54,0,0,1-2.48-.43,3.66,3.66,0,0,1-1.64-1.2,2.91,2.91,0,0,1-.59-1.81,2.76,2.76,0,0,1,.44-1.55,3.22,3.22,0,0,1,1.26-1.09,2.7,2.7,0,0,1-1-1,2.57,2.57,0,0,1-.34-1.34,2.68,2.68,0,0,1,.55-1.69,3.39,3.39,0,0,1,1.52-1.11,5.78,5.78,0,0,1,2.24-.4,5.92,5.92,0,0,1,2.26.4,3.42,3.42,0,0,1,1.53,1.11,2.73,2.73,0,0,1,.54,1.69,2.66,2.66,0,0,1-.33,1.34,2.76,2.76,0,0,1-1,1A3.18,3.18,0,0,1,406.91,582.71Zm-2.75,2.64a1.49,1.49,0,0,0,0-2.34,2.47,2.47,0,0,0-1.54-.43,2.41,2.41,0,0,0-1.52.43,1.51,1.51,0,0,0,0,2.35,2.91,2.91,0,0,0,3.06,0Zm-2.8-7a1.27,1.27,0,0,0-.47,1,1.2,1.2,0,0,0,.46,1,2,2,0,0,0,1.27.37,2,2,0,0,0,1.28-.37,1.19,1.19,0,0,0,.48-1,1.25,1.25,0,0,0-.48-1,2,2,0,0,0-1.28-.37A2,2,0,0,0,401.36,578.39Z"/><line class="cls-5" x1="424.41" y1="597.93" x2="685.1" y2="597.93"/><polygon class="cls-1" points="842.73 0 842.73 133.51 1022.73 133.51 1022.73 26.4 996.33 0 842.73 0"/><polygon class="cls-13" points="996.33 26.4 1022.73 26.4 996.33 0 996.33 26.4"/><circle class="cls-4" cx="777.6" cy="116.71" r="16.8"/><path class="cls-1" d="M770,122.6a4.59,4.59,0,0,1-1.71-2,8.26,8.26,0,0,1,0-6.23,4.59,4.59,0,0,1,1.71-2,4.51,4.51,0,0,1,2.48-.69,4.56,4.56,0,0,1,2.48.69,4.64,4.64,0,0,1,1.7,2,8.14,8.14,0,0,1,0,6.23,4.64,4.64,0,0,1-1.7,2,4.56,4.56,0,0,1-2.48.69A4.51,4.51,0,0,1,770,122.6Zm4.08-2.38a6.56,6.56,0,0,0,0-5.44,1.89,1.89,0,0,0-3.2,0,6.67,6.67,0,0,0,0,5.44,1.89,1.89,0,0,0,3.2,0Z"/><path class="cls-1" d="M786.18,113.14a5.84,5.84,0,0,1,1.32,4.12,6.88,6.88,0,0,1-.71,3.26,4.76,4.76,0,0,1-2,2.06,6.15,6.15,0,0,1-3,.71,7.28,7.28,0,0,1-1.71-.2,4.65,4.65,0,0,1-1.39-.57l1-1.9a3.63,3.63,0,0,0,2.09.56,3,3,0,0,0,2.26-.84,3.58,3.58,0,0,0,.9-2.43,3.79,3.79,0,0,1-2.79,1,4.36,4.36,0,0,1-2-.43,3.39,3.39,0,0,1-1.39-1.23,3.29,3.29,0,0,1-.51-1.83,3.47,3.47,0,0,1,.56-2,3.64,3.64,0,0,1,1.52-1.3,5.1,5.1,0,0,1,2.16-.46A4.78,4.78,0,0,1,786.18,113.14Zm-2.11,3.37a1.53,1.53,0,0,0,.54-1.21,1.56,1.56,0,0,0-.52-1.2,2.08,2.08,0,0,0-1.43-.46,2,2,0,0,0-1.36.45,1.54,1.54,0,0,0-.52,1.21,1.58,1.58,0,0,0,.52,1.23,2.06,2.06,0,0,0,1.39.45A2,2,0,0,0,784.07,116.51Z"/><line class="cls-5" x1="804.81" y1="133.51" x2="1065.5" y2="133.51"/><polygon class="cls-1" points="842.73 154.8 842.73 288.32 1022.73 288.32 1022.73 181.2 996.33 154.8 842.73 154.8"/><polygon class="cls-14" points="996.33 181.2 1022.73 181.2 996.33 154.8 996.33 181.2"/><circle class="cls-4" cx="777.6" cy="271.52" r="16.8"/><path class="cls-1" d="M774,266.7v11.2h-2.6v-9.12h-2.24V266.7Z"/><path class="cls-1" d="M778.25,277.4a4.59,4.59,0,0,1-1.71-2,8.23,8.23,0,0,1,0-6.22,4.69,4.69,0,0,1,6.67-2,4.67,4.67,0,0,1,1.7,2,8.11,8.11,0,0,1,0,6.22,4.64,4.64,0,0,1-1.7,2,4.8,4.8,0,0,1-5,0Zm4.09-2.38a6.67,6.67,0,0,0,0-5.44,1.83,1.83,0,0,0-1.61-.88,1.81,1.81,0,0,0-1.59.88,6.56,6.56,0,0,0,0,5.44,1.81,1.81,0,0,0,1.59.88A1.83,1.83,0,0,0,782.34,275Z"/><line class="cls-5" x1="804.81" y1="288.32" x2="1065.5" y2="288.32"/><polygon class="cls-1" points="842.73 309.61 842.73 443.12 1022.73 443.12 1022.73 336.01 996.33 309.61 842.73 309.61"/><polygon class="cls-15" points="996.33 336.01 1022.73 336.01 996.33 309.61 996.33 336.01"/><circle class="cls-4" cx="777.6" cy="426.32" r="16.8"/><path class="cls-1" d="M776.27,421.5v11.2h-2.59v-9.12h-2.24V421.5Z"/><path class="cls-1" d="M782.54,421.5v11.2H780v-9.12h-2.24V421.5Z"/><line class="cls-5" x1="804.81" y1="443.12" x2="1065.5" y2="443.12"/><polygon class="cls-1" points="842.73 464.41 842.73 597.92 1022.73 597.92 1022.73 490.81 996.33 464.41 842.73 464.41"/><polygon class="cls-16" points="996.33 490.81 1022.73 490.81 996.33 464.41 996.33 490.81"/><circle class="cls-4" cx="777.6" cy="581.13" r="16.8"/><path class="cls-1" d="M774.69,576.31v11.2H772.1v-9.12h-2.24v-2.08Z"/><path class="cls-1" d="M785,585.39v2.12h-8.47v-1.68l4.32-4.08a4.71,4.71,0,0,0,.93-1.13,2.08,2.08,0,0,0,.24-.94,1.24,1.24,0,0,0-.45-1,2.14,2.14,0,0,0-1.34-.36,3,3,0,0,0-1.33.28,2.65,2.65,0,0,0-1,.84L776,578.19a4.37,4.37,0,0,1,1.81-1.52,6,6,0,0,1,2.64-.56,5.43,5.43,0,0,1,2.18.41,3.39,3.39,0,0,1,1.46,1.15,3,3,0,0,1,.52,1.76,4,4,0,0,1-.38,1.71,6.8,6.8,0,0,1-1.49,1.82l-2.58,2.43Z"/><line class="cls-5" x1="804.81" y1="597.93" x2="1065.5" y2="597.93"/><path class="cls-3" d="M122.6,213.68V202.26H124v11.42Z"/><path class="cls-3" d="M133.53,213.68v-5.54a2.12,2.12,0,0,0-.51-1.56,2.18,2.18,0,0,0-1.61-.52,2.8,2.8,0,0,0-2.13.73,3.46,3.46,0,0,0-.67,2.4v4.49h-1.4v-8.56h1.14l.22,1.17h.07a2.82,2.82,0,0,1,1.21-1,4.18,4.18,0,0,1,1.73-.35,3.67,3.67,0,0,1,2.51.75,3,3,0,0,1,.84,2.38v5.59Z"/><path class="cls-3" d="M140.79,212.77a5.55,5.55,0,0,0,.72-.05c.23,0,.41-.07.55-.11v1a2.47,2.47,0,0,1-.67.17,6.19,6.19,0,0,1-.8.07,2.34,2.34,0,0,1-2.68-2.62v-5.09h-1.32v-.63l1.32-.54.59-1.83h.81v2H142v1h-2.68v5a1.62,1.62,0,0,0,.4,1.19A1.4,1.4,0,0,0,140.79,212.77Z"/><path class="cls-3" d="M148.12,205a5.39,5.39,0,0,1,1.11.1l-.2,1.2a5,5,0,0,0-1-.12,2.55,2.55,0,0,0-1.92.84,3,3,0,0,0-.79,2.11v4.59h-1.4v-8.56h1.15l.16,1.58h.07a4,4,0,0,1,1.24-1.29A2.94,2.94,0,0,1,148.12,205Z"/><path class="cls-3" d="M158.94,209.39a4.49,4.49,0,0,1-1.14,3.27,4.2,4.2,0,0,1-3.15,1.18,4.43,4.43,0,0,1-2.2-.54,3.63,3.63,0,0,1-1.48-1.55,5,5,0,0,1-.53-2.36,4.52,4.52,0,0,1,1.13-3.26,4.17,4.17,0,0,1,3.14-1.17,4.05,4.05,0,0,1,3.08,1.2A4.43,4.43,0,0,1,158.94,209.39Zm-7.05,0a3.86,3.86,0,0,0,.71,2.5,2.56,2.56,0,0,0,2.09.86,2.52,2.52,0,0,0,2.08-.86,3.78,3.78,0,0,0,.72-2.5,3.74,3.74,0,0,0-.72-2.48,2.59,2.59,0,0,0-2.1-.85,2.56,2.56,0,0,0-2.08.84A3.85,3.85,0,0,0,151.89,209.39Z"/><path class="cls-3" d="M167.68,212.53h-.07a3.4,3.4,0,0,1-2.9,1.31,3.6,3.6,0,0,1-2.83-1.15,5.85,5.85,0,0,1,0-6.56,3.52,3.52,0,0,1,2.82-1.17,3.45,3.45,0,0,1,2.88,1.27h.11l-.06-.62,0-.6v-3.49H169v12.16h-1.14Zm-2.8.22A2.66,2.66,0,0,0,167,212a3.45,3.45,0,0,0,.65-2.33v-.28a4,4,0,0,0-.66-2.6,2.59,2.59,0,0,0-2.08-.77,2.2,2.2,0,0,0-1.89.88,4.14,4.14,0,0,0-.65,2.51,3.92,3.92,0,0,0,.65,2.47A2.24,2.24,0,0,0,164.88,212.75Z"/><path class="cls-3" d="M173.29,205.12v5.55a2.08,2.08,0,0,0,.52,1.56,2.17,2.17,0,0,0,1.61.52,2.75,2.75,0,0,0,2.12-.73,3.55,3.55,0,0,0,.67-2.4v-4.5h1.4v8.56h-1.16l-.2-1.15h-.08a2.67,2.67,0,0,1-1.19,1,4.35,4.35,0,0,1-1.74.34,3.69,3.69,0,0,1-2.53-.75,3,3,0,0,1-.84-2.37v-5.6Z"/><path class="cls-3" d="M186.27,213.84a4.14,4.14,0,0,1-3.11-1.15,4.49,4.49,0,0,1-1.1-3.24,4.65,4.65,0,0,1,1.12-3.32,4.2,4.2,0,0,1,3.18-1.17,7.6,7.6,0,0,1,1.34.13,4.62,4.62,0,0,1,1,.32l-.43,1.1a6.69,6.69,0,0,0-1-.29,5.33,5.33,0,0,0-1-.11q-2.82,0-2.82,3.33a3.73,3.73,0,0,0,.69,2.42,2.49,2.49,0,0,0,2,.84,6.6,6.6,0,0,0,2.37-.46v1.15A5.36,5.36,0,0,1,186.27,213.84Z"/><path class="cls-3" d="M194.49,213.84a4.11,4.11,0,0,1-3.1-1.15,4.45,4.45,0,0,1-1.1-3.24,4.64,4.64,0,0,1,1.11-3.32,4.21,4.21,0,0,1,3.19-1.17,7.49,7.49,0,0,1,1.33.13,4.9,4.9,0,0,1,1.05.32l-.43,1.1a6.83,6.83,0,0,0-1-.29,5.14,5.14,0,0,0-1-.11q-2.81,0-2.81,3.33a3.79,3.79,0,0,0,.68,2.42,2.49,2.49,0,0,0,2,.84,6.6,6.6,0,0,0,2.37-.46v1.15A5.36,5.36,0,0,1,194.49,213.84Z"/><path class="cls-3" d="M198.91,202.8a.83.83,0,0,1,.23-.66.92.92,0,0,1,.59-.2.84.84,0,0,1,.58.21,1,1,0,0,1,0,1.3.84.84,0,0,1-.58.21.87.87,0,0,1-.59-.21A.82.82,0,0,1,198.91,202.8Zm1.51,10.88H199v-8.56h1.4Z"/><path class="cls-3" d="M211.37,209.39a4.49,4.49,0,0,1-1.14,3.27,4.18,4.18,0,0,1-3.14,1.18,4.4,4.4,0,0,1-2.2-.54,3.65,3.65,0,0,1-1.49-1.55,5,5,0,0,1-.52-2.36,4.52,4.52,0,0,1,1.13-3.26,4.16,4.16,0,0,1,3.14-1.17,4.05,4.05,0,0,1,3.08,1.2A4.47,4.47,0,0,1,211.37,209.39Zm-7,0a3.86,3.86,0,0,0,.71,2.5,3,3,0,0,0,4.17,0,3.84,3.84,0,0,0,.71-2.5,3.8,3.8,0,0,0-.71-2.48,2.63,2.63,0,0,0-2.11-.85,2.55,2.55,0,0,0-2.07.84A3.79,3.79,0,0,0,204.33,209.39Zm1.62-5.6a16.52,16.52,0,0,0,1.61-2.37h1.7v.17a11.1,11.1,0,0,1-1.1,1.25,12.46,12.46,0,0,1-1.28,1.14H206Z"/><path class="cls-3" d="M220.15,213.68v-5.54a2.12,2.12,0,0,0-.51-1.56,2.18,2.18,0,0,0-1.61-.52,2.8,2.8,0,0,0-2.13.73,3.46,3.46,0,0,0-.67,2.4v4.49h-1.4v-8.56H215l.23,1.17h.07a2.82,2.82,0,0,1,1.21-1,4.18,4.18,0,0,1,1.73-.35,3.67,3.67,0,0,1,2.51.75,3,3,0,0,1,.84,2.38v5.59Z"/><path class="cls-3" d="M134.88,360.39a3.11,3.11,0,0,1-1.28,2.67,6.14,6.14,0,0,1-3.66.93h-1.45v4.49h-1.43V357.06h3.2Q134.88,357.06,134.88,360.39Zm-6.39,2.46h1.29a5.12,5.12,0,0,0,2.76-.57,2,2,0,0,0,.85-1.83,1.89,1.89,0,0,0-.8-1.68,4.33,4.33,0,0,0-2.49-.56h-1.61Z"/><path class="cls-3" d="M141.46,359.77a6.16,6.16,0,0,1,1.11.09l-.19,1.2a5.09,5.09,0,0,0-1-.12,2.59,2.59,0,0,0-1.92.85,2.93,2.93,0,0,0-.79,2.1v4.59h-1.4v-8.56h1.15l.16,1.59h.07a3.84,3.84,0,0,1,1.24-1.29A3,3,0,0,1,141.46,359.77Z"/><path class="cls-3" d="M152.28,364.19a4.49,4.49,0,0,1-1.14,3.27,4.16,4.16,0,0,1-3.15,1.18,4.43,4.43,0,0,1-2.2-.54,3.63,3.63,0,0,1-1.48-1.55,5,5,0,0,1-.53-2.36,4.52,4.52,0,0,1,1.13-3.26,4.17,4.17,0,0,1,3.14-1.16,4,4,0,0,1,3.08,1.19A4.46,4.46,0,0,1,152.28,364.19Zm-7.05,0a3.84,3.84,0,0,0,.71,2.5,3,3,0,0,0,4.17,0,3.81,3.81,0,0,0,.72-2.51,3.76,3.76,0,0,0-.72-2.48,2.59,2.59,0,0,0-2.1-.84,2.55,2.55,0,0,0-2.08.83A3.85,3.85,0,0,0,145.23,364.19Z"/><path class="cls-3" d="M159,359.78a3.54,3.54,0,0,1,2.83,1.15,4.77,4.77,0,0,1,1,3.26,4.83,4.83,0,0,1-1,3.28,3.52,3.52,0,0,1-2.82,1.17,4.22,4.22,0,0,1-1.65-.31,3.05,3.05,0,0,1-1.25-.95H156l-.29,1.1h-1V356.33h1.4v2.95c0,.66,0,1.26-.07,1.78h.07A3.43,3.43,0,0,1,159,359.78Zm-.2,1.09a2.55,2.55,0,0,0-2.07.76,5.5,5.5,0,0,0,0,5.15,2.56,2.56,0,0,0,2.08.77,2.23,2.23,0,0,0,1.93-.87,4.21,4.21,0,0,0,.63-2.5,4,4,0,0,0-.63-2.49A2.31,2.31,0,0,0,158.83,360.87Z"/><path class="cls-3" d="M166.72,368.48h-1.4V356.33h1.4Z"/><path class="cls-3" d="M173.59,368.64a4.42,4.42,0,0,1-3.23-1.16,4.28,4.28,0,0,1-1.19-3.21,4.76,4.76,0,0,1,1.1-3.29,3.8,3.8,0,0,1,3-1.21,3.65,3.65,0,0,1,2.75,1.05,3.91,3.91,0,0,1,1,2.8v.82h-6.37a3.26,3.26,0,0,0,.82,2.29,3,3,0,0,0,2.2.78,8,8,0,0,0,3-.58v1.16a7.83,7.83,0,0,1-1.4.42A8.2,8.2,0,0,1,173.59,368.64Zm-.38-7.79a2.36,2.36,0,0,0-1.77.67,2.89,2.89,0,0,0-.78,1.86h4.83a2.73,2.73,0,0,0-.59-1.88A2.19,2.19,0,0,0,173.21,360.85Z"/><path class="cls-3" d="M191.16,368.48v-5.57a2.21,2.21,0,0,0-.47-1.53,1.93,1.93,0,0,0-1.47-.51,2.47,2.47,0,0,0-1.93.69,3.13,3.13,0,0,0-.63,2.14v4.78h-1.4v-5.57a2.16,2.16,0,0,0-.47-1.53,1.91,1.91,0,0,0-1.47-.51,2.37,2.37,0,0,0-1.93.73,3.69,3.69,0,0,0-.61,2.39v4.49h-1.4v-8.56h1.14l.22,1.17h.07a2.66,2.66,0,0,1,1.12-1,3.55,3.55,0,0,1,1.61-.35,2.79,2.79,0,0,1,2.84,1.45h.06a2.89,2.89,0,0,1,1.2-1.06,3.83,3.83,0,0,1,1.79-.39,3.27,3.27,0,0,1,2.35.74,3.18,3.18,0,0,1,.78,2.39v5.58Z"/><path class="cls-3" d="M201.13,368.48l-.28-1.21h-.07a3.84,3.84,0,0,1-1.38,1.08,4.45,4.45,0,0,1-1.71.29,3.24,3.24,0,0,1-2.16-.66,2.29,2.29,0,0,1-.78-1.86q0-2.6,4.48-2.72l1.57,0v-.53a2.08,2.08,0,0,0-.47-1.49,2,2,0,0,0-1.5-.48,6.43,6.43,0,0,0-2.61.66l-.43-1a6.64,6.64,0,0,1,1.5-.54,6.93,6.93,0,0,1,1.63-.2,3.73,3.73,0,0,1,2.45.68,2.72,2.72,0,0,1,.8,2.18v5.84Zm-3.16-.91a3,3,0,0,0,2.05-.66,2.38,2.38,0,0,0,.75-1.86v-.78l-1.4.06a5.24,5.24,0,0,0-2.41.48,1.42,1.42,0,0,0-.74,1.32,1.27,1.27,0,0,0,.46,1.07A2,2,0,0,0,198,367.57Z"/><path class="cls-3" d="M217.52,364.19a4.49,4.49,0,0,1-1.14,3.27,4.16,4.16,0,0,1-3.15,1.18,4.43,4.43,0,0,1-2.2-.54,3.58,3.58,0,0,1-1.48-1.55,5,5,0,0,1-.53-2.36,4.52,4.52,0,0,1,1.13-3.26,4.17,4.17,0,0,1,3.14-1.16,4,4,0,0,1,3.08,1.19A4.46,4.46,0,0,1,217.52,364.19Zm-7.05,0a3.84,3.84,0,0,0,.71,2.5,3,3,0,0,0,4.17,0,3.81,3.81,0,0,0,.72-2.51,3.76,3.76,0,0,0-.72-2.48,2.59,2.59,0,0,0-2.1-.84,2.55,2.55,0,0,0-2.08.83A3.85,3.85,0,0,0,210.47,364.19Z"/><path class="cls-3" d="M143.1,388.15a2.09,2.09,0,0,1-1,1.84,4.81,4.81,0,0,1-2.7.65,6.27,6.27,0,0,1-2.87-.54v-1.2a7.3,7.3,0,0,0,1.43.49,6.42,6.42,0,0,0,1.47.18,3.65,3.65,0,0,0,1.69-.32,1.07,1.07,0,0,0,.59-1,1,1,0,0,0-.47-.86,7.75,7.75,0,0,0-1.82-.84,9.51,9.51,0,0,1-1.84-.78,2.46,2.46,0,0,1-.81-.75,1.92,1.92,0,0,1-.26-1,1.86,1.86,0,0,1,.92-1.65,4.56,4.56,0,0,1,2.52-.6,7.81,7.81,0,0,1,2.92.56l-.5,1.05a7.26,7.26,0,0,0-2.52-.53,3.08,3.08,0,0,0-1.5.29.92.92,0,0,0-.32,1.38,1.83,1.83,0,0,0,.61.46,13.68,13.68,0,0,0,1.62.64,6.2,6.2,0,0,1,2.22,1.11A1.89,1.89,0,0,1,143.1,388.15Z"/><path class="cls-3" d="M145.26,379.6a.81.81,0,0,1,.24-.65.84.84,0,0,1,.59-.21.86.86,0,0,1,.58.21.87.87,0,0,1-.58,1.52.8.8,0,0,1-.59-.22A.82.82,0,0,1,145.26,379.6Zm1.52,10.88h-1.4v-8.56h1.4Z"/><path class="cls-3" d="M152.73,389.57a5.55,5.55,0,0,0,.72-.05c.23,0,.41-.07.55-.11v1a3,3,0,0,1-.67.16,4.81,4.81,0,0,1-.8.07c-1.79,0-2.68-.87-2.68-2.62v-5.09h-1.33v-.63l1.33-.53.59-1.83h.81v2h2.68v1h-2.68v5a1.69,1.69,0,0,0,.39,1.19A1.47,1.47,0,0,0,152.73,389.57Z"/><path class="cls-3" d="M157.16,381.92v5.56a2.12,2.12,0,0,0,.52,1.56,2.21,2.21,0,0,0,1.61.51,2.75,2.75,0,0,0,2.12-.73,3.55,3.55,0,0,0,.67-2.4v-4.5h1.4v8.56h-1.16l-.2-1.14H162a2.65,2.65,0,0,1-1.19,1,4.19,4.19,0,0,1-1.74.34,3.75,3.75,0,0,1-2.53-.74,3,3,0,0,1-.84-2.38v-5.6Z"/><path class="cls-3" d="M172.13,390.48l-.28-1.21h-.06a3.93,3.93,0,0,1-1.38,1.08,4.51,4.51,0,0,1-1.72.29,3.21,3.21,0,0,1-2.15-.66,2.29,2.29,0,0,1-.78-1.86q0-2.6,4.47-2.72l1.57,0v-.53a2,2,0,0,0-.47-1.49,2,2,0,0,0-1.49-.48,6.51,6.51,0,0,0-2.62.66l-.43-1a7.26,7.26,0,0,1,3.13-.74,3.73,3.73,0,0,1,2.45.68,2.72,2.72,0,0,1,.8,2.18v5.84Zm-3.16-.91a3,3,0,0,0,2.05-.66,2.38,2.38,0,0,0,.75-1.86v-.78l-1.4.06a5.27,5.27,0,0,0-2.41.48,1.42,1.42,0,0,0-.74,1.32,1.3,1.3,0,0,0,.46,1.07A2,2,0,0,0,169,389.57Z"/><path class="cls-3" d="M179.75,390.64a4.12,4.12,0,0,1-3.11-1.14,4.52,4.52,0,0,1-1.1-3.24,4.59,4.59,0,0,1,1.12-3.32,4.17,4.17,0,0,1,3.18-1.17,6.66,6.66,0,0,1,1.33.13,4.62,4.62,0,0,1,1.05.31l-.43,1.1a7.06,7.06,0,0,0-1-.28,4.65,4.65,0,0,0-1-.12q-2.82,0-2.82,3.33a3.73,3.73,0,0,0,.69,2.42,2.44,2.44,0,0,0,2,.85,6.82,6.82,0,0,0,2.37-.46v1.14A5.29,5.29,0,0,1,179.75,390.64Z"/><path class="cls-3" d="M184.16,379.6a.84.84,0,0,1,.23-.65.93.93,0,0,1,1.18,0,1,1,0,0,1,0,1.3.9.9,0,0,1-1.18,0A.86.86,0,0,1,184.16,379.6Zm1.52,10.88h-1.4v-8.56h1.4Z"/><path class="cls-3" d="M196.62,386.19a4.53,4.53,0,0,1-1.13,3.27,4.16,4.16,0,0,1-3.15,1.18,4.4,4.4,0,0,1-2.2-.54,3.66,3.66,0,0,1-1.49-1.55,5.13,5.13,0,0,1-.52-2.36,4.52,4.52,0,0,1,1.13-3.26,4.17,4.17,0,0,1,3.14-1.16,4,4,0,0,1,3.08,1.19A4.5,4.5,0,0,1,196.62,386.19Zm-7,0a3.84,3.84,0,0,0,.71,2.5,2.52,2.52,0,0,0,2.08.86,2.55,2.55,0,0,0,2.09-.85,3.81,3.81,0,0,0,.71-2.51,3.76,3.76,0,0,0-.71-2.48,2.6,2.6,0,0,0-2.1-.84,2.55,2.55,0,0,0-2.08.83A3.85,3.85,0,0,0,189.58,386.19Zm1.62-5.6a13.72,13.72,0,0,0,.87-1.17,12.91,12.91,0,0,0,.74-1.19h1.71v.16a12.54,12.54,0,0,1-1.11,1.25,11.63,11.63,0,0,1-1.27,1.15h-.94Z"/><path class="cls-3" d="M205.4,390.48v-5.54a2.16,2.16,0,0,0-.51-1.56,2.21,2.21,0,0,0-1.61-.51,2.8,2.8,0,0,0-2.13.72,3.49,3.49,0,0,0-.67,2.4v4.49h-1.4v-8.56h1.14l.23,1.17h.06a2.82,2.82,0,0,1,1.21-1,4.21,4.21,0,0,1,1.73-.34,3.67,3.67,0,0,1,2.51.74,3,3,0,0,1,.84,2.39v5.58Z"/><path class="cls-3" d="M124.37,412.64a4.22,4.22,0,0,1-1.65-.31,2.93,2.93,0,0,1-1.25-.95h-.1a12.14,12.14,0,0,1,.1,1.42v3.53h-1.4V403.92h1.14l.19,1.17h.07a3.22,3.22,0,0,1,1.25-1,4.08,4.08,0,0,1,1.65-.31,3.54,3.54,0,0,1,2.84,1.16,4.89,4.89,0,0,1,1,3.26,4.83,4.83,0,0,1-1,3.28A3.54,3.54,0,0,1,124.37,412.64Zm-.2-7.77a2.59,2.59,0,0,0-2,.72,3.51,3.51,0,0,0-.65,2.32v.28a4,4,0,0,0,.65,2.59,2.54,2.54,0,0,0,2.08.77,2.25,2.25,0,0,0,1.88-.89,4.06,4.06,0,0,0,.68-2.48,3.9,3.9,0,0,0-.68-2.46A2.31,2.31,0,0,0,124.17,404.87Z"/><path class="cls-3" d="M134.87,403.77a6,6,0,0,1,1.1.09l-.19,1.2a5,5,0,0,0-1-.12,2.56,2.56,0,0,0-1.92.85,2.94,2.94,0,0,0-.8,2.1v4.59h-1.4v-8.56h1.16l.16,1.59H132a3.82,3.82,0,0,1,1.23-1.29A3,3,0,0,1,134.87,403.77Z"/><path class="cls-3" d="M145.68,408.19a4.49,4.49,0,0,1-1.14,3.27,4.14,4.14,0,0,1-3.14,1.18,4.4,4.4,0,0,1-2.2-.54,3.6,3.6,0,0,1-1.49-1.55,5,5,0,0,1-.52-2.36,4.52,4.52,0,0,1,1.13-3.26,4.15,4.15,0,0,1,3.14-1.16,4,4,0,0,1,3.08,1.19A4.5,4.5,0,0,1,145.68,408.19Zm-7,0a3.84,3.84,0,0,0,.71,2.5,2.51,2.51,0,0,0,2.08.86,2.57,2.57,0,0,0,2.09-.85,3.87,3.87,0,0,0,.71-2.51,3.82,3.82,0,0,0-.71-2.48,2.62,2.62,0,0,0-2.11-.84,2.54,2.54,0,0,0-2.07.83A3.79,3.79,0,0,0,138.64,408.19Z"/><path class="cls-3" d="M152.44,403.78a3.56,3.56,0,0,1,2.83,1.15,5.77,5.77,0,0,1,0,6.54,3.54,3.54,0,0,1-2.82,1.17,4.22,4.22,0,0,1-1.65-.31,2.93,2.93,0,0,1-1.25-.95h-.11l-.29,1.1h-1V400.33h1.4v2.95c0,.66,0,1.26-.07,1.78h.07A3.43,3.43,0,0,1,152.44,403.78Zm-.2,1.09a2.53,2.53,0,0,0-2.07.76,5.5,5.5,0,0,0,0,5.15,2.54,2.54,0,0,0,2.08.77,2.21,2.21,0,0,0,1.92-.87,4.21,4.21,0,0,0,.63-2.5,4,4,0,0,0-.63-2.49A2.29,2.29,0,0,0,152.24,404.87Z"/><path class="cls-3" d="M160.12,412.48h-1.4V400.33h1.4Z"/><path class="cls-3" d="M167,412.64a4.44,4.44,0,0,1-3.23-1.16,4.27,4.27,0,0,1-1.18-3.21,4.71,4.71,0,0,1,1.1-3.29,3.78,3.78,0,0,1,2.95-1.21,3.63,3.63,0,0,1,2.75,1.05,3.87,3.87,0,0,1,1,2.8v.82H164a3.21,3.21,0,0,0,.82,2.29,3,3,0,0,0,2.2.78,8.11,8.11,0,0,0,2.95-.58v1.16a7.39,7.39,0,0,1-3,.55Zm-.37-7.79a2.37,2.37,0,0,0-1.78.67,3,3,0,0,0-.78,1.86h4.83a2.68,2.68,0,0,0-.59-1.88A2.15,2.15,0,0,0,166.62,404.85Z"/><path class="cls-3" d="M184.56,412.48v-5.57a2.16,2.16,0,0,0-.47-1.53,1.9,1.9,0,0,0-1.47-.51,2.48,2.48,0,0,0-1.93.69,3.18,3.18,0,0,0-.62,2.14v4.78h-1.4v-5.57a2.21,2.21,0,0,0-.47-1.53,1.94,1.94,0,0,0-1.48-.51,2.37,2.37,0,0,0-1.93.73,3.69,3.69,0,0,0-.61,2.39v4.49h-1.4v-8.56h1.14l.23,1.17h.06a2.73,2.73,0,0,1,1.12-1,3.57,3.57,0,0,1,1.62-.35,2.78,2.78,0,0,1,2.83,1.45h.07a2.77,2.77,0,0,1,1.2-1.06,3.82,3.82,0,0,1,1.78-.39,3.27,3.27,0,0,1,2.35.74,3.18,3.18,0,0,1,.78,2.39v5.58Z"/><path class="cls-3" d="M194.53,412.48l-.28-1.21h-.06a3.84,3.84,0,0,1-1.38,1.08,4.51,4.51,0,0,1-1.72.29,3.23,3.23,0,0,1-2.15-.66,2.29,2.29,0,0,1-.78-1.86q0-2.6,4.48-2.72l1.56,0v-.53a2.08,2.08,0,0,0-.46-1.49,2,2,0,0,0-1.5-.48,6.51,6.51,0,0,0-2.62.66l-.43-1a7.26,7.26,0,0,1,3.13-.74,3.71,3.71,0,0,1,2.45.68,2.72,2.72,0,0,1,.8,2.18v5.84Zm-3.16-.91a3,3,0,0,0,2-.66,2.38,2.38,0,0,0,.75-1.86v-.78l-1.4.06a5.27,5.27,0,0,0-2.41.48,1.42,1.42,0,0,0-.74,1.32,1.3,1.3,0,0,0,.46,1.07A2,2,0,0,0,191.37,411.57Zm-.33-9a13.72,13.72,0,0,0,.87-1.17,12.91,12.91,0,0,0,.74-1.19h1.71v.16a12.54,12.54,0,0,1-1.11,1.25,11.63,11.63,0,0,1-1.27,1.15H191Z"/><path class="cls-3" d="M201.44,411.57a5.55,5.55,0,0,0,.72-.05c.23,0,.41-.07.55-.11v1a3.14,3.14,0,0,1-.67.16,4.9,4.9,0,0,1-.8.07c-1.79,0-2.68-.87-2.68-2.62v-5.09h-1.33v-.63l1.33-.53.59-1.83H200v2h2.68v1H200v5a1.69,1.69,0,0,0,.39,1.19A1.47,1.47,0,0,0,201.44,411.57Z"/><path class="cls-3" d="M204.43,401.6a.81.81,0,0,1,.24-.65.87.87,0,0,1,.59-.21.84.84,0,0,1,.58.21,1,1,0,0,1,0,1.3.81.81,0,0,1-.58.22.79.79,0,0,1-.83-.87ZM206,412.48h-1.4v-8.56H206Z"/><path class="cls-3" d="M212.62,412.64a4.12,4.12,0,0,1-3.11-1.14,4.48,4.48,0,0,1-1.1-3.24,4.63,4.63,0,0,1,1.11-3.32,4.21,4.21,0,0,1,3.19-1.17,6.66,6.66,0,0,1,1.33.13,4.79,4.79,0,0,1,1.05.31l-.43,1.1a6.85,6.85,0,0,0-1-.28,4.48,4.48,0,0,0-1-.12q-2.82,0-2.82,3.33a3.73,3.73,0,0,0,.69,2.42,2.43,2.43,0,0,0,2,.85,6.82,6.82,0,0,0,2.37-.46v1.14A5.32,5.32,0,0,1,212.62,412.64Z"/><path class="cls-3" d="M222.83,412.48l-.28-1.21h-.07a3.84,3.84,0,0,1-1.38,1.08,4.45,4.45,0,0,1-1.71.29,3.24,3.24,0,0,1-2.16-.66,2.29,2.29,0,0,1-.78-1.86c0-1.73,1.5-2.64,4.48-2.72l1.57,0v-.53a2.08,2.08,0,0,0-.47-1.49,2,2,0,0,0-1.49-.48,6.47,6.47,0,0,0-2.62.66l-.43-1A7,7,0,0,1,219,404a6.93,6.93,0,0,1,1.63-.2,3.73,3.73,0,0,1,2.45.68,2.72,2.72,0,0,1,.8,2.18v5.84Zm-3.16-.91a3,3,0,0,0,2.05-.66,2.38,2.38,0,0,0,.75-1.86v-.78l-1.4.06a5.24,5.24,0,0,0-2.41.48,1.42,1.42,0,0,0-.74,1.32,1.27,1.27,0,0,0,.46,1.07A2,2,0,0,0,219.67,411.57Z"/><path class="cls-3" d="M145.6,523.29h-1.44v-5.38h-6.49v5.38h-1.43V511.87h1.43v4.85h6.49v-4.85h1.44Z"/><path class="cls-3" d="M148.65,512.4a.82.82,0,0,1,.24-.65.84.84,0,0,1,.59-.21.87.87,0,0,1,.58.22.8.8,0,0,1,.24.64.85.85,0,0,1-.24.66.86.86,0,0,1-.58.21.84.84,0,0,1-.59-.21A.85.85,0,0,1,148.65,512.4Zm1.52,10.89h-1.4v-8.57h1.4Z"/><path class="cls-3" d="M157.44,523.44a4.22,4.22,0,0,1-1.65-.31,3,3,0,0,1-1.25-.94h-.1a12,12,0,0,1,.1,1.42v3.52h-1.4V514.72h1.14l.19,1.18h.07a3.25,3.25,0,0,1,1.25-1,4.08,4.08,0,0,1,1.65-.31,3.57,3.57,0,0,1,2.84,1.16,4.92,4.92,0,0,1,1,3.27,4.84,4.84,0,0,1-1,3.28A3.57,3.57,0,0,1,157.44,523.44Zm-.2-7.77a2.56,2.56,0,0,0-2.05.73,3.52,3.52,0,0,0-.65,2.31V519a4,4,0,0,0,.65,2.58,2.55,2.55,0,0,0,2.08.78,2.23,2.23,0,0,0,1.88-.9,4.06,4.06,0,0,0,.68-2.48,3.86,3.86,0,0,0-.68-2.45A2.31,2.31,0,0,0,157.24,515.67Z"/><path class="cls-3" d="M171.7,519a4.52,4.52,0,0,1-1.14,3.27,4.17,4.17,0,0,1-3.14,1.17,4.4,4.4,0,0,1-2.2-.54,3.63,3.63,0,0,1-1.49-1.54,5,5,0,0,1-.52-2.36,4.46,4.46,0,0,1,1.13-3.26,4.16,4.16,0,0,1,3.14-1.17,4.08,4.08,0,0,1,3.08,1.19A4.51,4.51,0,0,1,171.7,519Zm-7,0a3.8,3.8,0,0,0,.71,2.5,2.54,2.54,0,0,0,2.08.86,2.57,2.57,0,0,0,2.09-.86,3.84,3.84,0,0,0,.71-2.5,3.78,3.78,0,0,0-.71-2.48,2.6,2.6,0,0,0-2.11-.85,2.55,2.55,0,0,0-2.07.84A3.76,3.76,0,0,0,164.66,519Zm1.62-5.6c.27-.33.56-.72.87-1.18a12.43,12.43,0,0,0,.74-1.19h1.7v.16a10.29,10.29,0,0,1-1.1,1.25,11.6,11.6,0,0,1-1.28,1.15h-.93Z"/><path class="cls-3" d="M177.14,522.37a4.21,4.21,0,0,0,.72,0c.23,0,.41-.07.55-.1v1a3.06,3.06,0,0,1-.67.17,6,6,0,0,1-.8.06c-1.79,0-2.68-.87-2.68-2.61v-5.1h-1.33v-.62l1.33-.54.59-1.83h.81v2h2.68v1h-2.68v5a1.67,1.67,0,0,0,.39,1.19A1.43,1.43,0,0,0,177.14,522.37Z"/><path class="cls-3" d="M184.16,523.44a4.44,4.44,0,0,1-3.24-1.15,4.27,4.27,0,0,1-1.18-3.21,4.74,4.74,0,0,1,1.1-3.29,3.76,3.76,0,0,1,3-1.22,3.63,3.63,0,0,1,2.75,1.06,3.87,3.87,0,0,1,1,2.79v.82h-6.37a3.24,3.24,0,0,0,.82,2.29,3,3,0,0,0,2.2.78,7.87,7.87,0,0,0,2.95-.58v1.16a7.09,7.09,0,0,1-1.4.42A8.2,8.2,0,0,1,184.16,523.44Zm-.38-7.79a2.4,2.4,0,0,0-1.78.68,3,3,0,0,0-.78,1.86h4.84a2.72,2.72,0,0,0-.59-1.88A2.16,2.16,0,0,0,183.78,515.65Z"/><path class="cls-3" d="M195.91,521a2.08,2.08,0,0,1-1,1.84,4.73,4.73,0,0,1-2.7.65,6.27,6.27,0,0,1-2.87-.54v-1.2a7.08,7.08,0,0,0,1.43.49,6.42,6.42,0,0,0,1.47.18,3.55,3.55,0,0,0,1.69-.32,1.07,1.07,0,0,0,.59-1,1,1,0,0,0-.47-.85,7.29,7.29,0,0,0-1.83-.84,10.43,10.43,0,0,1-1.83-.78,2.39,2.39,0,0,1-.81-.76,1.8,1.8,0,0,1-.27-1,1.91,1.91,0,0,1,.92-1.66,4.62,4.62,0,0,1,2.53-.6,8,8,0,0,1,2.91.56l-.49,1.06a7.07,7.07,0,0,0-2.53-.54,3.14,3.14,0,0,0-1.5.29.9.9,0,0,0-.5.8.93.93,0,0,0,.19.59,1.86,1.86,0,0,0,.61.46,16.45,16.45,0,0,0,1.62.63,6.2,6.2,0,0,1,2.22,1.12A1.89,1.89,0,0,1,195.91,521Z"/><path class="cls-3" d="M198.07,512.4a.86.86,0,0,1,.23-.65.87.87,0,0,1,.59-.21.9.9,0,0,1,.59.22.8.8,0,0,1,.24.64.85.85,0,0,1-.24.66.89.89,0,0,1-.59.21.87.87,0,0,1-.59-.21A.88.88,0,0,1,198.07,512.4Zm1.51,10.89h-1.4v-8.57h1.4Z"/><path class="cls-3" d="M208.52,521a2.08,2.08,0,0,1-1,1.84,4.77,4.77,0,0,1-2.7.65,6.24,6.24,0,0,1-2.87-.54v-1.2a7.08,7.08,0,0,0,1.43.49,6.42,6.42,0,0,0,1.47.18,3.55,3.55,0,0,0,1.69-.32,1.07,1.07,0,0,0,.59-1,1,1,0,0,0-.47-.85,7.29,7.29,0,0,0-1.83-.84,10.43,10.43,0,0,1-1.83-.78,2.39,2.39,0,0,1-.81-.76,1.8,1.8,0,0,1-.27-1,1.91,1.91,0,0,1,.92-1.66,4.61,4.61,0,0,1,2.52-.6,8,8,0,0,1,2.92.56l-.49,1.06a7.07,7.07,0,0,0-2.53-.54,3.14,3.14,0,0,0-1.5.29.88.88,0,0,0-.5.8.93.93,0,0,0,.19.59,1.86,1.86,0,0,0,.61.46,16.45,16.45,0,0,0,1.62.63,6.2,6.2,0,0,1,2.22,1.12A1.89,1.89,0,0,1,208.52,521Z"/><path class="cls-3" d="M526.78,53.15a6,6,0,0,1-1.5,4.31A5.47,5.47,0,0,1,521.12,59a5.56,5.56,0,0,1-4.21-1.54,6.07,6.07,0,0,1-1.48-4.36,6,6,0,0,1,1.49-4.32,5.6,5.6,0,0,1,4.22-1.54,5.49,5.49,0,0,1,4.15,1.57A6,6,0,0,1,526.78,53.15Zm-9.83,0A5.14,5.14,0,0,0,518,56.67a3.92,3.92,0,0,0,3.1,1.2,3.87,3.87,0,0,0,3.09-1.2,5.18,5.18,0,0,0,1-3.52,5.21,5.21,0,0,0-1-3.5,3.89,3.89,0,0,0-3.08-1.19,4,4,0,0,0-3.12,1.2A5.1,5.1,0,0,0,517,53.15Z"/><path class="cls-3" d="M533.62,50.17a3.56,3.56,0,0,1,2.83,1.16,4.78,4.78,0,0,1,1,3.26,4.8,4.8,0,0,1-1,3.27A3.54,3.54,0,0,1,533.62,59a4.22,4.22,0,0,1-1.65-.31,2.93,2.93,0,0,1-1.25-.95h-.1l-.3,1.11h-1V46.72h1.4v3c0,.66,0,1.26-.07,1.78h.07A3.43,3.43,0,0,1,533.62,50.17Zm-.2,1.09a2.53,2.53,0,0,0-2.07.76,4.07,4.07,0,0,0-.63,2.57,4,4,0,0,0,.65,2.58,2.55,2.55,0,0,0,2.08.78,2.21,2.21,0,0,0,1.92-.87,4.25,4.25,0,0,0,.64-2.51,4.07,4.07,0,0,0-.64-2.49A2.29,2.29,0,0,0,533.42,51.26Z"/><path class="cls-3" d="M538.78,62.72a3.62,3.62,0,0,1-1.3-.2V61.47a4.62,4.62,0,0,0,1.15.16,1.21,1.21,0,0,0,1-.34,1.4,1.4,0,0,0,.31-1v-10h1.4v9.88A2.23,2.23,0,0,1,538.78,62.72Zm1-14.73a.82.82,0,0,1,.24-.65.85.85,0,0,1,.59-.21.82.82,0,0,1,.58.22.81.81,0,0,1,.25.64.85.85,0,0,1-.25.66.86.86,0,0,1-.58.21.78.78,0,0,1-.83-.87Z"/><path class="cls-3" d="M548.18,59a4.44,4.44,0,0,1-3.24-1.15,4.27,4.27,0,0,1-1.18-3.21,4.69,4.69,0,0,1,1.1-3.29,3.75,3.75,0,0,1,2.95-1.22,3.6,3.6,0,0,1,2.75,1.06,3.83,3.83,0,0,1,1,2.79v.82h-6.36a3.21,3.21,0,0,0,.82,2.29,3,3,0,0,0,2.2.78,7.87,7.87,0,0,0,2.95-.58v1.16a7.17,7.17,0,0,1-1.41.42A8.09,8.09,0,0,1,548.18,59Zm-.38-7.79a2.37,2.37,0,0,0-1.78.68,3,3,0,0,0-.78,1.85h4.83a2.66,2.66,0,0,0-.59-1.87A2.13,2.13,0,0,0,547.8,51.24Z"/><path class="cls-3" d="M557,58a4.17,4.17,0,0,0,.71-.05c.23,0,.42-.07.55-.1v1a2.78,2.78,0,0,1-.67.17,5.93,5.93,0,0,1-.8.06c-1.78,0-2.68-.87-2.68-2.61v-5.1h-1.32V50.7l1.32-.54.59-1.83h.81v2h2.68v1h-2.68v5a1.63,1.63,0,0,0,.4,1.19A1.46,1.46,0,0,0,557,58Z"/><path class="cls-3" d="M559.94,48a.82.82,0,0,1,.24-.65.84.84,0,0,1,.59-.21.82.82,0,0,1,.58.22.8.8,0,0,1,.24.64.85.85,0,0,1-.24.66.86.86,0,0,1-.58.21.84.84,0,0,1-.59-.21A.85.85,0,0,1,559.94,48Zm1.52,10.89h-1.4V50.31h1.4Z"/><path class="cls-3" d="M566.45,58.88l-3.51-8.57h1.5l2,5.08a23.39,23.39,0,0,1,.79,2.31h.07a16,16,0,0,1,.58-1.71q.5-1.31,2.22-5.68h1.5l-3.51,8.57Z"/><path class="cls-3" d="M581.06,54.59a4.52,4.52,0,0,1-1.14,3.27A4.19,4.19,0,0,1,576.78,59a4.47,4.47,0,0,1-2.21-.54A3.67,3.67,0,0,1,573.09,57a5.07,5.07,0,0,1-.52-2.36,4.44,4.44,0,0,1,1.13-3.26,4.16,4.16,0,0,1,3.14-1.17,4.08,4.08,0,0,1,3.08,1.19A4.51,4.51,0,0,1,581.06,54.59Zm-7,0a3.82,3.82,0,0,0,.71,2.5,2.54,2.54,0,0,0,2.08.86,2.57,2.57,0,0,0,2.09-.86,3.84,3.84,0,0,0,.71-2.5,3.78,3.78,0,0,0-.71-2.48,2.6,2.6,0,0,0-2.11-.85,2.54,2.54,0,0,0-2.07.84A3.76,3.76,0,0,0,574,54.59Z"/><path class="cls-3" d="M589.48,56.54a2.08,2.08,0,0,1-1,1.84,4.73,4.73,0,0,1-2.7.65,6.27,6.27,0,0,1-2.87-.54v-1.2a7.08,7.08,0,0,0,1.43.49,6.42,6.42,0,0,0,1.47.18,3.68,3.68,0,0,0,1.69-.32,1.08,1.08,0,0,0,.12-1.85,8.11,8.11,0,0,0-1.83-.84,9.84,9.84,0,0,1-1.83-.77,2.49,2.49,0,0,1-.81-.76,1.8,1.8,0,0,1-.27-1,1.91,1.91,0,0,1,.92-1.66,4.62,4.62,0,0,1,2.53-.6,8,8,0,0,1,2.91.56l-.49,1.05a7.26,7.26,0,0,0-2.53-.53,3.14,3.14,0,0,0-1.5.29.9.9,0,0,0-.5.8.93.93,0,0,0,.19.59,1.86,1.86,0,0,0,.61.46,16.45,16.45,0,0,0,1.62.63,6.11,6.11,0,0,1,2.22,1.12A1.86,1.86,0,0,1,589.48,56.54Z"/><path class="cls-3" d="M503.63,213.68l-4.18-10.12h-.07q.12,1.2.12,2.85v7.27h-1.33V202.26h2.16l3.91,9.42h.07l3.93-9.42h2.15v11.42H509v-7.36c0-.84,0-1.76.12-2.75H509l-4.21,10.11Z"/><path class="cls-3" d="M519.24,213.68l-.28-1.22h-.06a3.86,3.86,0,0,1-1.38,1.09,4.51,4.51,0,0,1-1.72.29,3.21,3.21,0,0,1-2.15-.66,2.31,2.31,0,0,1-.78-1.87c0-1.73,1.49-2.63,4.47-2.72l1.57,0V208a1.7,1.7,0,0,0-2-2,6.64,6.64,0,0,0-2.62.65l-.43-1A7.06,7.06,0,0,1,517,205a3.68,3.68,0,0,1,2.45.68,2.72,2.72,0,0,1,.8,2.18v5.84Zm-3.16-.91a3,3,0,0,0,2-.67,2.35,2.35,0,0,0,.75-1.86v-.77l-1.4.05a5.55,5.55,0,0,0-2.41.48,1.44,1.44,0,0,0-.74,1.33,1.31,1.31,0,0,0,.46,1.07A2.06,2.06,0,0,0,516.08,212.77Z"/><path class="cls-3" d="M527.38,205a5.39,5.39,0,0,1,1.11.1l-.2,1.2a5,5,0,0,0-1-.12,2.55,2.55,0,0,0-1.92.84,3,3,0,0,0-.8,2.11v4.59h-1.4v-8.56h1.16l.16,1.58h.07a3.94,3.94,0,0,1,1.24-1.29A2.94,2.94,0,0,1,527.38,205Z"/><path class="cls-3" d="M533.91,213.84a4.1,4.1,0,0,1-3.11-1.15,4.49,4.49,0,0,1-1.1-3.24,4.6,4.6,0,0,1,1.12-3.32A4.17,4.17,0,0,1,534,205a7.4,7.4,0,0,1,1.33.13,4.56,4.56,0,0,1,1,.32l-.43,1.1a7,7,0,0,0-1-.29,5.33,5.33,0,0,0-1-.11q-2.82,0-2.82,3.33a3.73,3.73,0,0,0,.69,2.42,2.49,2.49,0,0,0,2,.84,6.6,6.6,0,0,0,2.37-.46v1.15A5.36,5.36,0,0,1,533.91,213.84Z"/><path class="cls-3" d="M546.42,209.39a4.49,4.49,0,0,1-1.14,3.27,4.2,4.2,0,0,1-3.15,1.18,4.43,4.43,0,0,1-2.2-.54,3.69,3.69,0,0,1-1.48-1.55,5,5,0,0,1-.53-2.36,4.52,4.52,0,0,1,1.13-3.26,4.17,4.17,0,0,1,3.14-1.17,4.05,4.05,0,0,1,3.08,1.2A4.43,4.43,0,0,1,546.42,209.39Zm-7,0a3.86,3.86,0,0,0,.71,2.5,2.57,2.57,0,0,0,2.09.86,2.52,2.52,0,0,0,2.08-.86,3.78,3.78,0,0,0,.72-2.5,3.74,3.74,0,0,0-.72-2.48,2.59,2.59,0,0,0-2.1-.85,2.56,2.56,0,0,0-2.08.84A3.85,3.85,0,0,0,539.37,209.39Z"/><path class="cls-3" d="M556.34,212.77a5.55,5.55,0,0,0,.72-.05c.23,0,.41-.07.55-.11v1a2.47,2.47,0,0,1-.67.17,6.19,6.19,0,0,1-.8.07,2.34,2.34,0,0,1-2.68-2.62v-5.09h-1.32v-.63l1.32-.54.59-1.83h.81v2h2.68v1h-2.68v5a1.62,1.62,0,0,0,.4,1.19A1.4,1.4,0,0,0,556.34,212.77Z"/><path class="cls-3" d="M563.36,213.84a4.42,4.42,0,0,1-3.23-1.16,4.28,4.28,0,0,1-1.19-3.21,4.74,4.74,0,0,1,1.1-3.29,3.81,3.81,0,0,1,3-1.22,3.62,3.62,0,0,1,2.75,1.06,3.9,3.9,0,0,1,1,2.79v.82h-6.37a3.24,3.24,0,0,0,.82,2.29,3,3,0,0,0,2.2.78,8,8,0,0,0,3-.57v1.15a7.91,7.91,0,0,1-1.4.43A9,9,0,0,1,563.36,213.84Zm-.38-7.79a2.36,2.36,0,0,0-1.77.67,3,3,0,0,0-.78,1.86h4.83a2.72,2.72,0,0,0-.59-1.88A2.18,2.18,0,0,0,563,206.05Z"/><path class="cls-3" d="M577.13,209.39a4.49,4.49,0,0,1-1.14,3.27,4.2,4.2,0,0,1-3.15,1.18,4.43,4.43,0,0,1-2.2-.54,3.63,3.63,0,0,1-1.48-1.55,5,5,0,0,1-.53-2.36,4.52,4.52,0,0,1,1.13-3.26A4.17,4.17,0,0,1,572.9,205a4.05,4.05,0,0,1,3.08,1.2A4.47,4.47,0,0,1,577.13,209.39Zm-7,0a3.86,3.86,0,0,0,.71,2.5,2.56,2.56,0,0,0,2.09.86,2.52,2.52,0,0,0,2.08-.86,3.78,3.78,0,0,0,.72-2.5,3.74,3.74,0,0,0-.72-2.48,2.59,2.59,0,0,0-2.1-.85,2.56,2.56,0,0,0-2.08.84A3.85,3.85,0,0,0,570.08,209.39Zm1.62-5.6c.27-.32.56-.71.88-1.17a13.4,13.4,0,0,0,.73-1.2H575v.17a14.94,14.94,0,0,1-2.38,2.39h-.94Z"/><path class="cls-3" d="M583.8,205a5.22,5.22,0,0,1,1.1.1l-.19,1.2a5,5,0,0,0-1-.12,2.55,2.55,0,0,0-1.92.84,3,3,0,0,0-.8,2.11v4.59h-1.4v-8.56h1.16l.16,1.58H581a4.15,4.15,0,0,1,1.24-1.29A3,3,0,0,1,583.8,205Z"/><path class="cls-3" d="M586.51,202.8a.83.83,0,0,1,.24-.66.9.9,0,0,1,.59-.2.86.86,0,0,1,.58.21,1,1,0,0,1,0,1.3.86.86,0,0,1-.58.21.85.85,0,0,1-.59-.21A.82.82,0,0,1,586.51,202.8ZM588,213.68h-1.4v-8.56H588Z"/><path class="cls-3" d="M594.69,213.84a4.07,4.07,0,0,1-3.1-1.15,4.45,4.45,0,0,1-1.1-3.24,4.64,4.64,0,0,1,1.11-3.32,4.21,4.21,0,0,1,3.19-1.17,7.49,7.49,0,0,1,1.33.13,4.9,4.9,0,0,1,1,.32l-.43,1.1a6.83,6.83,0,0,0-1-.29,5.24,5.24,0,0,0-1-.11q-2.81,0-2.81,3.33a3.79,3.79,0,0,0,.68,2.42,2.49,2.49,0,0,0,2,.84,6.6,6.6,0,0,0,2.37-.46v1.15A5.36,5.36,0,0,1,594.69,213.84Z"/><path class="cls-3" d="M607.2,209.39a4.49,4.49,0,0,1-1.14,3.27,4.16,4.16,0,0,1-3.14,1.18,4.4,4.4,0,0,1-2.2-.54,3.71,3.71,0,0,1-1.49-1.55,5,5,0,0,1-.52-2.36,4.52,4.52,0,0,1,1.13-3.26A4.16,4.16,0,0,1,603,205a4.05,4.05,0,0,1,3.08,1.2A4.47,4.47,0,0,1,607.2,209.39Zm-7,0a3.86,3.86,0,0,0,.71,2.5,3,3,0,0,0,4.17,0,3.84,3.84,0,0,0,.71-2.5,3.8,3.8,0,0,0-.71-2.48,2.63,2.63,0,0,0-2.11-.85,2.55,2.55,0,0,0-2.07.84A3.79,3.79,0,0,0,600.16,209.39Z"/><path class="cls-3" d="M508.94,368.48l-4.18-10.12h-.07c.08.8.12,1.75.12,2.86v7.26h-1.33V357.06h2.16l3.91,9.42h.06l3.94-9.42h2.15v11.42h-1.44v-7.36c0-.84,0-1.76.12-2.75h-.07l-4.21,10.11Z"/><path class="cls-3" d="M522.77,368.64a4.44,4.44,0,0,1-3.23-1.16,4.28,4.28,0,0,1-1.19-3.21,4.76,4.76,0,0,1,1.1-3.29,3.8,3.8,0,0,1,3-1.21,3.65,3.65,0,0,1,2.75,1.05,3.91,3.91,0,0,1,1,2.8v.82H519.8a3.26,3.26,0,0,0,.82,2.29,3,3,0,0,0,2.2.78,8,8,0,0,0,2.95-.58v1.16a7.83,7.83,0,0,1-1.4.42A8.13,8.13,0,0,1,522.77,368.64Zm-.38-7.79a2.36,2.36,0,0,0-1.77.67,3,3,0,0,0-.78,1.86h4.83a2.73,2.73,0,0,0-.59-1.88A2.18,2.18,0,0,0,522.39,360.85Z"/><path class="cls-3" d="M531.54,367.57a5.55,5.55,0,0,0,.72-.05c.23,0,.41-.07.55-.11v1a3,3,0,0,1-.67.16,4.81,4.81,0,0,1-.8.07c-1.79,0-2.68-.87-2.68-2.62v-5.09h-1.33v-.63l1.33-.53.59-1.83h.81v2h2.68v1h-2.68v5a1.69,1.69,0,0,0,.39,1.19A1.47,1.47,0,0,0,531.54,367.57Z"/><path class="cls-3" d="M542.63,364.19a4.53,4.53,0,0,1-1.13,3.27,4.16,4.16,0,0,1-3.15,1.18,4.4,4.4,0,0,1-2.2-.54,3.66,3.66,0,0,1-1.49-1.55,5,5,0,0,1-.52-2.36,4.52,4.52,0,0,1,1.13-3.26,4.15,4.15,0,0,1,3.14-1.16,4,4,0,0,1,3.08,1.19A4.5,4.5,0,0,1,542.63,364.19Zm-7,0a3.84,3.84,0,0,0,.71,2.5,2.52,2.52,0,0,0,2.08.86,2.55,2.55,0,0,0,2.09-.85,3.81,3.81,0,0,0,.71-2.51,3.76,3.76,0,0,0-.71-2.48,2.6,2.6,0,0,0-2.1-.84,2.55,2.55,0,0,0-2.08.83A3.79,3.79,0,0,0,535.59,364.19Z"/><path class="cls-3" d="M551.38,367.34h-.08a3.37,3.37,0,0,1-2.9,1.3,3.54,3.54,0,0,1-2.82-1.15,4.78,4.78,0,0,1-1-3.26,4.84,4.84,0,0,1,1-3.29,4,4,0,0,1,5.7.09h.11l-.06-.62,0-.6v-3.48h1.4v12.15h-1.13Zm-2.8.21a2.66,2.66,0,0,0,2.08-.72,3.45,3.45,0,0,0,.64-2.33v-.27a4,4,0,0,0-.65-2.6,2.57,2.57,0,0,0-2.09-.78,2.19,2.19,0,0,0-1.88.89,4.11,4.11,0,0,0-.66,2.5,4,4,0,0,0,.65,2.48A2.27,2.27,0,0,0,548.58,367.55Z"/><path class="cls-3" d="M563.65,364.19a4.49,4.49,0,0,1-1.14,3.27,4.14,4.14,0,0,1-3.14,1.18,4.4,4.4,0,0,1-2.2-.54,3.66,3.66,0,0,1-1.49-1.55,5,5,0,0,1-.52-2.36,4.52,4.52,0,0,1,1.13-3.26,4.15,4.15,0,0,1,3.14-1.16,4,4,0,0,1,3.08,1.19A4.5,4.5,0,0,1,563.65,364.19Zm-7,0a3.84,3.84,0,0,0,.71,2.5,2.51,2.51,0,0,0,2.08.86,2.57,2.57,0,0,0,2.09-.85,3.87,3.87,0,0,0,.71-2.51,3.82,3.82,0,0,0-.71-2.48,2.62,2.62,0,0,0-2.11-.84,2.54,2.54,0,0,0-2.07.83A3.79,3.79,0,0,0,556.61,364.19Z"/><path class="cls-3" d="M567.51,368.48h-1.4V356.33h1.4Z"/><path class="cls-3" d="M578.45,364.19a4.53,4.53,0,0,1-1.13,3.27,4.16,4.16,0,0,1-3.15,1.18,4.4,4.4,0,0,1-2.2-.54,3.66,3.66,0,0,1-1.49-1.55,5.13,5.13,0,0,1-.52-2.36,4.52,4.52,0,0,1,1.13-3.26,4.15,4.15,0,0,1,3.14-1.16,4,4,0,0,1,3.08,1.19A4.5,4.5,0,0,1,578.45,364.19Zm-7,0a3.84,3.84,0,0,0,.71,2.5,2.52,2.52,0,0,0,2.08.86,2.55,2.55,0,0,0,2.09-.85,3.81,3.81,0,0,0,.71-2.51,3.76,3.76,0,0,0-.71-2.48,2.6,2.6,0,0,0-2.1-.84,2.55,2.55,0,0,0-2.08.83A3.79,3.79,0,0,0,571.41,364.19Z"/><path class="cls-3" d="M588.47,359.92v.82l-1.71.19a2.51,2.51,0,0,1,.42.71,2.48,2.48,0,0,1,.19,1,2.45,2.45,0,0,1-.93,2,4,4,0,0,1-2.55.75,4.72,4.72,0,0,1-.77-.06c-.6.29-.9.65-.9,1.1a.57.57,0,0,0,.32.52,2.45,2.45,0,0,0,1.07.16h1.63a3.9,3.9,0,0,1,2.31.59,2,2,0,0,1,.81,1.7,2.38,2.38,0,0,1-1.24,2.17,7,7,0,0,1-3.59.75,5.15,5.15,0,0,1-2.79-.63,2,2,0,0,1-1-1.76,1.9,1.9,0,0,1,.54-1.35,2.87,2.87,0,0,1,1.52-.78,1.4,1.4,0,0,1-.59-.46,1.16,1.16,0,0,1-.24-.73,1.32,1.32,0,0,1,.27-.82,2.83,2.83,0,0,1,.85-.68,2.42,2.42,0,0,1-1.17-.93,2.56,2.56,0,0,1-.45-1.5,2.64,2.64,0,0,1,.91-2.16,3.91,3.91,0,0,1,2.58-.76,5.3,5.3,0,0,1,1.31.15Zm-7.37,10a1.15,1.15,0,0,0,.64,1.06,3.69,3.69,0,0,0,1.81.36,5.49,5.49,0,0,0,2.61-.49,1.5,1.5,0,0,0,.85-1.33,1,1,0,0,0-.47-1,3.83,3.83,0,0,0-1.74-.27h-1.68a2.36,2.36,0,0,0-1.49.42A1.46,1.46,0,0,0,581.1,369.92Zm.76-7.26a1.65,1.65,0,0,0,.55,1.36,2.29,2.29,0,0,0,1.53.46c1.36,0,2-.61,2-1.84s-.7-1.93-2.08-1.93a2.15,2.15,0,0,0-1.52.49A1.92,1.92,0,0,0,581.86,362.66Z"/><path class="cls-3" d="M590.31,358.59c.27-.32.56-.71.88-1.17s.55-.86.73-1.19h1.71v.16a12.54,12.54,0,0,1-1.11,1.25,11.63,11.63,0,0,1-1.27,1.15h-.94Zm1.46,9.89h-1.4v-8.56h1.4Z"/><path class="cls-3" d="M600.43,368.48l-.28-1.21h-.07a3.84,3.84,0,0,1-1.38,1.08,4.51,4.51,0,0,1-1.72.29,3.23,3.23,0,0,1-2.15-.66,2.29,2.29,0,0,1-.78-1.86q0-2.6,4.48-2.72l1.57,0v-.53a2.08,2.08,0,0,0-.47-1.49,2,2,0,0,0-1.5-.48,6.43,6.43,0,0,0-2.61.66l-.43-1a6.73,6.73,0,0,1,1.49-.54,7.07,7.07,0,0,1,1.64-.2,3.75,3.75,0,0,1,2.45.68,2.71,2.71,0,0,1,.79,2.18v5.84Zm-3.17-.91a3,3,0,0,0,2.06-.66,2.4,2.4,0,0,0,.74-1.86v-.78l-1.4.06a5.3,5.3,0,0,0-2.41.48,1.41,1.41,0,0,0-.73,1.32,1.27,1.27,0,0,0,.46,1.07A2,2,0,0,0,597.26,367.57Z"/><path class="cls-3" d="M511.18,518.54v4.75h-1.43V511.87h3.38a5.61,5.61,0,0,1,3.35.8,2.81,2.81,0,0,1,1.09,2.42,3.07,3.07,0,0,1-2.48,3.06l3.35,5.14h-1.7l-3-4.75Zm0-1.14h2a3.58,3.58,0,0,0,2.22-.56,2,2,0,0,0,.71-1.68,1.84,1.84,0,0,0-.72-1.63,4.17,4.17,0,0,0-2.31-.5h-1.87Z"/><path class="cls-3" d="M524.12,523.44a4.42,4.42,0,0,1-3.23-1.15,4.28,4.28,0,0,1-1.19-3.21,4.74,4.74,0,0,1,1.1-3.29,3.78,3.78,0,0,1,3-1.22,3.62,3.62,0,0,1,2.75,1.06,3.87,3.87,0,0,1,1,2.79v.82h-6.37a3.24,3.24,0,0,0,.82,2.29,3,3,0,0,0,2.2.78,7.83,7.83,0,0,0,3-.58v1.16a7.09,7.09,0,0,1-1.4.42A8.13,8.13,0,0,1,524.12,523.44Zm-.38-7.79a2.37,2.37,0,0,0-1.77.68,2.85,2.85,0,0,0-.78,1.86H526a2.72,2.72,0,0,0-.59-1.88A2.15,2.15,0,0,0,523.74,515.65Z"/><path class="cls-3" d="M535.87,521a2.08,2.08,0,0,1-1,1.84,4.73,4.73,0,0,1-2.7.65,6.27,6.27,0,0,1-2.87-.54v-1.2a7.3,7.3,0,0,0,1.43.49,6.42,6.42,0,0,0,1.47.18,3.53,3.53,0,0,0,1.69-.32,1.07,1.07,0,0,0,.59-1,1,1,0,0,0-.47-.85,7.36,7.36,0,0,0-1.82-.84,10.61,10.61,0,0,1-1.84-.78,2.39,2.39,0,0,1-.81-.76,2,2,0,0,1,.66-2.66,4.56,4.56,0,0,1,2.52-.6,8,8,0,0,1,2.92.56l-.5,1.06a7.07,7.07,0,0,0-2.52-.54,3.08,3.08,0,0,0-1.5.29.89.89,0,0,0-.51.8.93.93,0,0,0,.19.59,2,2,0,0,0,.61.46,16.45,16.45,0,0,0,1.62.63,6,6,0,0,1,2.22,1.12A1.86,1.86,0,0,1,535.87,521Z"/><path class="cls-3" d="M539.46,514.72v5.56a2.08,2.08,0,0,0,.52,1.56,2.17,2.17,0,0,0,1.61.52,2.74,2.74,0,0,0,2.12-.74,3.49,3.49,0,0,0,.67-2.4v-4.5h1.4v8.57h-1.16l-.2-1.15h-.07a2.83,2.83,0,0,1-1.2,1,4.35,4.35,0,0,1-1.74.33,3.67,3.67,0,0,1-2.52-.74,3,3,0,0,1-.84-2.37v-5.61Z"/><path class="cls-3" d="M550.15,523.29h-1.4V511.13h1.4Z"/><path class="cls-3" d="M556.1,522.37a4.21,4.21,0,0,0,.72,0c.23,0,.41-.07.55-.1v1a2.91,2.91,0,0,1-.67.17,6,6,0,0,1-.8.06c-1.79,0-2.68-.87-2.68-2.61v-5.1h-1.33v-.62l1.33-.54.59-1.83h.81v2h2.68v1h-2.68v5A1.63,1.63,0,0,0,555,522,1.4,1.4,0,0,0,556.1,522.37Z"/><path class="cls-3" d="M564.9,523.29l-.28-1.22h-.07a4,4,0,0,1-1.37,1.09,4.52,4.52,0,0,1-1.72.28,3.29,3.29,0,0,1-2.16-.65,2.31,2.31,0,0,1-.78-1.87c0-1.73,1.5-2.64,4.48-2.72l1.57-.05v-.53a2.05,2.05,0,0,0-.47-1.49,2,2,0,0,0-1.49-.48,6.47,6.47,0,0,0-2.62.66l-.43-1a7.26,7.26,0,0,1,3.13-.74,3.73,3.73,0,0,1,2.45.68,2.73,2.73,0,0,1,.8,2.18v5.85Zm-3.16-.92a3,3,0,0,0,2-.66,2.35,2.35,0,0,0,.75-1.86v-.77l-1.4,0a5.52,5.52,0,0,0-2.41.48,1.44,1.44,0,0,0-.74,1.33,1.3,1.3,0,0,0,.46,1.07A2.06,2.06,0,0,0,561.74,522.37Z"/><path class="cls-3" d="M575.11,522.14H575a3.39,3.39,0,0,1-2.9,1.3,3.54,3.54,0,0,1-2.82-1.15,4.73,4.73,0,0,1-1-3.26,4.9,4.9,0,0,1,1-3.29,3.52,3.52,0,0,1,2.82-1.17,3.47,3.47,0,0,1,2.88,1.26h.11l-.06-.61,0-.6v-3.49h1.4v12.16H575.3Zm-2.8.22a2.63,2.63,0,0,0,2.08-.73,3.43,3.43,0,0,0,.65-2.33V519a4.11,4.11,0,0,0-.65-2.6,2.6,2.6,0,0,0-2.09-.78,2.22,2.22,0,0,0-1.89.89,4.2,4.2,0,0,0-.65,2.5,4,4,0,0,0,.65,2.48A2.26,2.26,0,0,0,572.31,522.36Z"/><path class="cls-3" d="M587.39,519a4.52,4.52,0,0,1-1.14,3.27,4.19,4.19,0,0,1-3.15,1.17,4.43,4.43,0,0,1-2.2-.54,3.61,3.61,0,0,1-1.48-1.54,5,5,0,0,1-.53-2.36,4.5,4.5,0,0,1,1.13-3.26,4.17,4.17,0,0,1,3.14-1.17,4.08,4.08,0,0,1,3.08,1.19A4.47,4.47,0,0,1,587.39,519Zm-7,0a3.86,3.86,0,0,0,.71,2.5,3,3,0,0,0,4.17,0,3.78,3.78,0,0,0,.72-2.5,3.73,3.73,0,0,0-.72-2.48,3,3,0,0,0-4.18,0A3.81,3.81,0,0,0,580.34,519Z"/><path class="cls-3" d="M595.8,521a2.08,2.08,0,0,1-1,1.84,4.73,4.73,0,0,1-2.7.65,6.22,6.22,0,0,1-2.86-.54v-1.2a7.21,7.21,0,0,0,1.42.49,6.43,6.43,0,0,0,1.48.18,3.48,3.48,0,0,0,1.68-.32,1.06,1.06,0,0,0,.59-1,1,1,0,0,0-.46-.85,7.48,7.48,0,0,0-1.83-.84,10.43,10.43,0,0,1-1.83-.78,2.21,2.21,0,0,1-.81-.76,1.8,1.8,0,0,1-.27-1,1.91,1.91,0,0,1,.92-1.66,4.56,4.56,0,0,1,2.52-.6,8,8,0,0,1,2.92.56l-.5,1.06a7.07,7.07,0,0,0-2.52-.54,3.14,3.14,0,0,0-1.5.29.89.89,0,0,0-.51.8,1,1,0,0,0,.19.59,2,2,0,0,0,.61.46c.29.14.82.35,1.62.63a6.18,6.18,0,0,1,2.23,1.12A1.88,1.88,0,0,1,595.8,521Z"/><path class="cls-3" d="M905.43,53.06a5.51,5.51,0,0,1-1.66,4.32,6.86,6.86,0,0,1-4.77,1.5h-3.41V47.45h3.77a6.34,6.34,0,0,1,4.47,1.48A5.33,5.33,0,0,1,905.43,53.06Zm-1.52,0a4.36,4.36,0,0,0-1.21-3.36,5.08,5.08,0,0,0-3.6-1.14H897v9.13h1.75a5.58,5.58,0,0,0,3.85-1.17A4.43,4.43,0,0,0,903.91,53.1Z"/><path class="cls-3" d="M907.85,48a.86.86,0,0,1,.23-.65.88.88,0,0,1,.6-.21.84.84,0,0,1,.58.22.8.8,0,0,1,.24.64.85.85,0,0,1-.24.66.82.82,0,0,1-1.41-.66Zm1.52,10.89H908V50.31h1.4Z"/><path class="cls-3" d="M918.3,56.54a2.08,2.08,0,0,1-1,1.84,4.73,4.73,0,0,1-2.7.65,6.27,6.27,0,0,1-2.87-.54v-1.2a7.08,7.08,0,0,0,1.43.49,6.42,6.42,0,0,0,1.47.18,3.65,3.65,0,0,0,1.69-.32,1.08,1.08,0,0,0,.12-1.85,8.11,8.11,0,0,0-1.83-.84,9.84,9.84,0,0,1-1.83-.77,2.49,2.49,0,0,1-.81-.76,1.8,1.8,0,0,1-.27-1,1.91,1.91,0,0,1,.92-1.66,4.62,4.62,0,0,1,2.53-.6,8,8,0,0,1,2.91.56l-.49,1.05a7.26,7.26,0,0,0-2.52-.53,3.15,3.15,0,0,0-1.51.29.9.9,0,0,0-.5.8.93.93,0,0,0,.19.59,1.86,1.86,0,0,0,.61.46,16.45,16.45,0,0,0,1.62.63,6.11,6.11,0,0,1,2.22,1.12A1.86,1.86,0,0,1,918.3,56.54Z"/><path class="cls-3" d="M924.27,59a4.13,4.13,0,0,1-3.11-1.14,4.49,4.49,0,0,1-1.1-3.24,4.6,4.6,0,0,1,1.12-3.32,4.17,4.17,0,0,1,3.18-1.17,6.76,6.76,0,0,1,1.34.13,4.68,4.68,0,0,1,1,.31l-.43,1.1a8.66,8.66,0,0,0-1-.28,4.57,4.57,0,0,0-1-.11q-2.82,0-2.82,3.32a3.76,3.76,0,0,0,.69,2.43,2.49,2.49,0,0,0,2,.84,6.6,6.6,0,0,0,2.37-.46v1.15A5.52,5.52,0,0,1,924.27,59Z"/><path class="cls-3" d="M930.11,50.31v5.56a2.13,2.13,0,0,0,.52,1.56,2.21,2.21,0,0,0,1.61.52,2.74,2.74,0,0,0,2.12-.74,3.49,3.49,0,0,0,.67-2.4v-4.5h1.4v8.57h-1.15l-.21-1.15H935a2.86,2.86,0,0,1-1.19,1,4.37,4.37,0,0,1-1.75.33,3.68,3.68,0,0,1-2.52-.74,3,3,0,0,1-.84-2.37V50.31Z"/><path class="cls-3" d="M945.36,56.54a2.08,2.08,0,0,1-1,1.84,4.73,4.73,0,0,1-2.7.65,6.22,6.22,0,0,1-2.86-.54v-1.2a7.08,7.08,0,0,0,1.43.49,6.35,6.35,0,0,0,1.47.18,3.6,3.6,0,0,0,1.68-.32,1.08,1.08,0,0,0,.13-1.85,8.33,8.33,0,0,0-1.83-.84,9.84,9.84,0,0,1-1.83-.77,2.3,2.3,0,0,1-.81-.76,1.8,1.8,0,0,1-.27-1,1.91,1.91,0,0,1,.92-1.66,4.56,4.56,0,0,1,2.52-.6,8,8,0,0,1,2.92.56l-.5,1.05a7.26,7.26,0,0,0-2.52-.53,3.14,3.14,0,0,0-1.5.29.89.89,0,0,0-.51.8,1,1,0,0,0,.19.59,2,2,0,0,0,.61.46q.43.21,1.62.63a6.18,6.18,0,0,1,2.23,1.12A1.88,1.88,0,0,1,945.36,56.54Z"/><path class="cls-3" d="M947.52,48a.82.82,0,0,1,.24-.65.85.85,0,0,1,.59-.21.82.82,0,0,1,.58.22.81.81,0,0,1,.25.64.85.85,0,0,1-.25.66.86.86,0,0,1-.58.21.78.78,0,0,1-.83-.87ZM949,58.88h-1.4V50.31H949Z"/><path class="cls-3" d="M960,54.59a4.52,4.52,0,0,1-1.14,3.27A4.19,4.19,0,0,1,955.7,59a4.43,4.43,0,0,1-2.2-.54A3.67,3.67,0,0,1,952,57a5.07,5.07,0,0,1-.52-2.36,4.44,4.44,0,0,1,1.13-3.26,4.15,4.15,0,0,1,3.13-1.17,4.11,4.11,0,0,1,3.09,1.19A4.51,4.51,0,0,1,960,54.59Zm-7,0a3.88,3.88,0,0,0,.7,2.5,3,3,0,0,0,4.18,0,3.84,3.84,0,0,0,.71-2.5,3.78,3.78,0,0,0-.71-2.48,2.6,2.6,0,0,0-2.11-.85,2.52,2.52,0,0,0-2.07.84A3.76,3.76,0,0,0,953,54.59Zm1.62-5.6c.27-.33.56-.72.87-1.18a12.43,12.43,0,0,0,.74-1.19h1.7v.16a12.4,12.4,0,0,1-1.1,1.25,11.6,11.6,0,0,1-1.28,1.15h-.93Z"/><path class="cls-3" d="M968.77,58.88V53.34a2.13,2.13,0,0,0-.52-1.57,2.21,2.21,0,0,0-1.61-.51,2.75,2.75,0,0,0-2.12.73,3.45,3.45,0,0,0-.68,2.39v4.5h-1.4V50.31h1.14l.23,1.18h.07a2.72,2.72,0,0,1,1.2-1,4.09,4.09,0,0,1,1.73-.35,3.75,3.75,0,0,1,2.52.74,3.06,3.06,0,0,1,.84,2.39v5.59Z"/><path class="cls-3" d="M895.31,203.28a4.16,4.16,0,0,0-3.2,1.26,4.78,4.78,0,0,0-1.18,3.43,4.92,4.92,0,0,0,1.13,3.46,4.2,4.2,0,0,0,3.24,1.23,12.13,12.13,0,0,0,2.94-.43v1.16a9.61,9.61,0,0,1-3.16.45,5.59,5.59,0,0,1-4.21-1.53,6.07,6.07,0,0,1-1.48-4.36,6.41,6.41,0,0,1,.72-3.09,4.88,4.88,0,0,1,2-2.05,6.65,6.65,0,0,1,3.17-.72,8.1,8.1,0,0,1,3.39.66l-.6,1.14A7,7,0,0,0,895.31,203.28Z"/><path class="cls-3" d="M908.7,209.39a4.49,4.49,0,0,1-1.14,3.27,4.19,4.19,0,0,1-3.14,1.18,4.47,4.47,0,0,1-2.21-.54,3.69,3.69,0,0,1-1.48-1.55,5,5,0,0,1-.52-2.36,4.48,4.48,0,0,1,1.13-3.26,4.15,4.15,0,0,1,3.13-1.17,4.06,4.06,0,0,1,3.09,1.2A4.47,4.47,0,0,1,908.7,209.39Zm-7,0a3.8,3.8,0,0,0,.71,2.5,3,3,0,0,0,4.17,0,3.84,3.84,0,0,0,.71-2.5,3.8,3.8,0,0,0-.71-2.48,2.63,2.63,0,0,0-2.11-.85,2.54,2.54,0,0,0-2.07.84A3.79,3.79,0,0,0,901.66,209.39Z"/><path class="cls-3" d="M917.48,213.68v-5.54a2.12,2.12,0,0,0-.51-1.56,2.19,2.19,0,0,0-1.62-.52,2.79,2.79,0,0,0-2.12.73,3.46,3.46,0,0,0-.68,2.4v4.49h-1.4v-8.56h1.14l.23,1.17h.07a2.85,2.85,0,0,1,1.2-1,4.24,4.24,0,0,1,1.73-.35,3.7,3.7,0,0,1,2.52.75,3,3,0,0,1,.84,2.38v5.59Z"/><path class="cls-3" d="M925.45,213.84a4.1,4.1,0,0,1-3.11-1.15,4.49,4.49,0,0,1-1.1-3.24,4.6,4.6,0,0,1,1.12-3.32,4.19,4.19,0,0,1,3.18-1.17,7.6,7.6,0,0,1,1.34.13,4.62,4.62,0,0,1,1,.32l-.43,1.1a6.69,6.69,0,0,0-1-.29,5.33,5.33,0,0,0-1-.11q-2.82,0-2.82,3.33a3.73,3.73,0,0,0,.69,2.42,2.49,2.49,0,0,0,2,.84,6.6,6.6,0,0,0,2.37-.46v1.15A5.36,5.36,0,0,1,925.45,213.84Z"/><path class="cls-3" d="M931.38,213.68H930V201.52h1.4Z"/><path class="cls-3" d="M935.66,205.12v5.55a2.13,2.13,0,0,0,.52,1.56,2.17,2.17,0,0,0,1.61.52,2.74,2.74,0,0,0,2.12-.73,3.49,3.49,0,0,0,.67-2.4v-4.5H942v8.56h-1.15l-.21-1.15h-.07a2.75,2.75,0,0,1-1.2,1,4.29,4.29,0,0,1-1.74.34,3.68,3.68,0,0,1-2.52-.75,3,3,0,0,1-.84-2.37v-5.6Z"/><path class="cls-3" d="M950.91,211.34a2.1,2.1,0,0,1-1,1.85,4.81,4.81,0,0,1-2.7.65,6.22,6.22,0,0,1-2.86-.54v-1.21a7.23,7.23,0,0,0,1.42.5,6.43,6.43,0,0,0,1.48.18,3.47,3.47,0,0,0,1.68-.33,1.07,1.07,0,0,0,.13-1.84,7.48,7.48,0,0,0-1.83-.84,10.43,10.43,0,0,1-1.83-.78,2.28,2.28,0,0,1-.81-.75,1.84,1.84,0,0,1-.27-1,1.88,1.88,0,0,1,.92-1.65,4.47,4.47,0,0,1,2.52-.61,8,8,0,0,1,2.92.56l-.5,1.06a7,7,0,0,0-2.52-.53,3,3,0,0,0-1.5.29.87.87,0,0,0-.51.79,1,1,0,0,0,.19.59,2,2,0,0,0,.61.46,13.12,13.12,0,0,0,1.62.63,6.34,6.34,0,0,1,2.23,1.12A1.92,1.92,0,0,1,950.91,211.34Z"/><path class="cls-3" d="M953.07,202.8a.83.83,0,0,1,.24-.66.9.9,0,0,1,.59-.2.86.86,0,0,1,.58.21,1,1,0,0,1,0,1.3.86.86,0,0,1-.58.21.85.85,0,0,1-.59-.21A.82.82,0,0,1,953.07,202.8Zm1.52,10.88h-1.4v-8.56h1.4Z"/><path class="cls-3" d="M965.54,209.39a4.49,4.49,0,0,1-1.14,3.27,4.2,4.2,0,0,1-3.15,1.18,4.43,4.43,0,0,1-2.2-.54,3.69,3.69,0,0,1-1.48-1.55,5,5,0,0,1-.52-2.36,4.48,4.48,0,0,1,1.13-3.26,4.13,4.13,0,0,1,3.13-1.17,4.07,4.07,0,0,1,3.09,1.2A4.47,4.47,0,0,1,965.54,209.39Zm-7,0a3.86,3.86,0,0,0,.7,2.5,2.57,2.57,0,0,0,2.09.86,2.52,2.52,0,0,0,2.08-.86,3.78,3.78,0,0,0,.72-2.5,3.74,3.74,0,0,0-.72-2.48,2.59,2.59,0,0,0-2.1-.85,2.52,2.52,0,0,0-2.07.84A3.79,3.79,0,0,0,958.5,209.39Zm1.62-5.6a16.52,16.52,0,0,0,1.61-2.37h1.7v.17a13.61,13.61,0,0,1-1.1,1.25,12.46,12.46,0,0,1-1.28,1.14h-.93Z"/><path class="cls-3" d="M974.32,213.68v-5.54a2.08,2.08,0,0,0-.52-1.56,2.17,2.17,0,0,0-1.61-.52,2.79,2.79,0,0,0-2.12.73,3.46,3.46,0,0,0-.68,2.4v4.49H968v-8.56h1.14l.23,1.17h.07a2.79,2.79,0,0,1,1.2-1,4.24,4.24,0,0,1,1.73-.35,3.72,3.72,0,0,1,2.52.75,3,3,0,0,1,.84,2.38v5.59Z"/><path class="cls-3" d="M888.79,357.06h3.48a7,7,0,0,1,3.55.68,2.34,2.34,0,0,1,1.1,2.15,2.41,2.41,0,0,1-.61,1.68,3,3,0,0,1-1.79.85v.08c1.87.3,2.81,1.21,2.81,2.73a2.83,2.83,0,0,1-1.12,2.39,5,5,0,0,1-3.12.86h-4.3Zm1.43,4.89h2.36a4.08,4.08,0,0,0,2.19-.44,1.65,1.65,0,0,0,.66-1.49,1.45,1.45,0,0,0-.74-1.38,4.85,4.85,0,0,0-2.36-.43h-2.11Zm0,1.13v4.27h2.57a3.93,3.93,0,0,0,2.25-.53,1.94,1.94,0,0,0,.76-1.68,1.71,1.71,0,0,0-.78-1.56,4.28,4.28,0,0,0-2.34-.5Z"/><path class="cls-3" d="M899.65,357.6a.81.81,0,0,1,.24-.65.84.84,0,0,1,.59-.21.86.86,0,0,1,.58.21.87.87,0,0,1-.58,1.52.8.8,0,0,1-.59-.22A.82.82,0,0,1,899.65,357.6Zm1.52,10.88h-1.4v-8.56h1.4Z"/><path class="cls-3" d="M908.44,359.78a3.56,3.56,0,0,1,2.83,1.15,5.77,5.77,0,0,1,0,6.54,3.54,3.54,0,0,1-2.82,1.17,4.22,4.22,0,0,1-1.65-.31,2.93,2.93,0,0,1-1.25-.95h-.1l-.3,1.1h-1V356.33h1.4v2.95c0,.66,0,1.26-.07,1.78h.07A3.43,3.43,0,0,1,908.44,359.78Zm-.2,1.09a2.53,2.53,0,0,0-2.07.76,5.5,5.5,0,0,0,0,5.15,2.54,2.54,0,0,0,2.08.77,2.21,2.21,0,0,0,1.92-.87,4.21,4.21,0,0,0,.64-2.5,4,4,0,0,0-.64-2.49A2.29,2.29,0,0,0,908.24,360.87Z"/><path class="cls-3" d="M916.12,368.48h-1.4V356.33h1.4Z"/><path class="cls-3" d="M919,357.6a.81.81,0,0,1,.24-.65.85.85,0,0,1,.59-.21.86.86,0,0,1,.58.21.87.87,0,0,1-.58,1.52.82.82,0,0,1-.59-.22A.82.82,0,0,1,919,357.6Zm1.52,10.88h-1.4v-8.56h1.4Z"/><path class="cls-3" d="M931.44,364.19a4.49,4.49,0,0,1-1.14,3.27,4.16,4.16,0,0,1-3.15,1.18,4.43,4.43,0,0,1-2.2-.54,3.63,3.63,0,0,1-1.48-1.55,5,5,0,0,1-.52-2.36,4.48,4.48,0,0,1,1.13-3.26,4.14,4.14,0,0,1,3.13-1.16A4.07,4.07,0,0,1,930.3,361,4.5,4.5,0,0,1,931.44,364.19Zm-7,0a3.84,3.84,0,0,0,.7,2.5,2.54,2.54,0,0,0,2.09.86,2.58,2.58,0,0,0,2.09-.85,3.87,3.87,0,0,0,.71-2.51,3.82,3.82,0,0,0-.71-2.48,2.62,2.62,0,0,0-2.11-.84,2.55,2.55,0,0,0-2.07.83A3.79,3.79,0,0,0,924.4,364.19Z"/><path class="cls-3" d="M941.46,359.92v.82l-1.71.19a3.09,3.09,0,0,1,.42.71,2.66,2.66,0,0,1,.18,1,2.47,2.47,0,0,1-.92,2,4,4,0,0,1-2.55.75,4.84,4.84,0,0,1-.78-.06c-.59.29-.89.65-.89,1.1a.56.56,0,0,0,.31.52,2.51,2.51,0,0,0,1.07.16h1.64a3.9,3.9,0,0,1,2.31.59,2,2,0,0,1,.8,1.7,2.39,2.39,0,0,1-1.23,2.17,7,7,0,0,1-3.59.75,5.21,5.21,0,0,1-2.8-.63,2,2,0,0,1-1-1.76,1.9,1.9,0,0,1,.54-1.35,2.83,2.83,0,0,1,1.52-.78,1.43,1.43,0,0,1-.6-.46,1.16,1.16,0,0,1-.24-.73,1.32,1.32,0,0,1,.27-.82,2.83,2.83,0,0,1,.85-.68,2.46,2.46,0,0,1-1.17-.93,2.56,2.56,0,0,1-.45-1.5,2.67,2.67,0,0,1,.91-2.16,3.91,3.91,0,0,1,2.58-.76,5.24,5.24,0,0,1,1.31.15Zm-7.37,10a1.16,1.16,0,0,0,.63,1.06,3.72,3.72,0,0,0,1.81.36,5.43,5.43,0,0,0,2.61-.49,1.48,1.48,0,0,0,.85-1.33,1,1,0,0,0-.46-1,3.86,3.86,0,0,0-1.75-.27H936.1a2.33,2.33,0,0,0-1.48.42A1.43,1.43,0,0,0,934.09,369.92Zm.76-7.26a1.68,1.68,0,0,0,.54,1.36,2.31,2.31,0,0,0,1.53.46c1.37,0,2.05-.61,2.05-1.84s-.69-1.93-2.07-1.93a2.14,2.14,0,0,0-1.52.49A1.88,1.88,0,0,0,934.85,362.66Z"/><path class="cls-3" d="M947.57,359.77a6.23,6.23,0,0,1,1.11.09l-.2,1.2a4.92,4.92,0,0,0-1-.12,2.57,2.57,0,0,0-1.92.85,2.93,2.93,0,0,0-.79,2.1v4.59h-1.4v-8.56h1.15l.16,1.59h.07a3.84,3.84,0,0,1,1.24-1.29A2.94,2.94,0,0,1,947.57,359.77Z"/><path class="cls-3" d="M956.09,368.48l-.28-1.21h-.06a3.84,3.84,0,0,1-1.38,1.08,4.51,4.51,0,0,1-1.72.29,3.21,3.21,0,0,1-2.15-.66,2.29,2.29,0,0,1-.78-1.86q0-2.6,4.47-2.72l1.57,0v-.53a2.08,2.08,0,0,0-.46-1.49,2,2,0,0,0-1.5-.48,6.51,6.51,0,0,0-2.62.66l-.43-1a7.26,7.26,0,0,1,3.13-.74,3.73,3.73,0,0,1,2.45.68,2.72,2.72,0,0,1,.8,2.18v5.84Zm-3.16-.91a3,3,0,0,0,2.05-.66,2.38,2.38,0,0,0,.75-1.86v-.78l-1.4.06a5.27,5.27,0,0,0-2.41.48,1.42,1.42,0,0,0-.74,1.32,1.3,1.3,0,0,0,.46,1.07A2,2,0,0,0,952.93,367.57Z"/><path class="cls-3" d="M964.18,360.93h-2.35v7.55h-1.4v-7.55h-1.66v-.59l1.66-.47v-.47q0-3.16,3-3.16a6.37,6.37,0,0,1,1.73.28l-.37,1a5,5,0,0,0-1.38-.24,1.4,1.4,0,0,0-1.17.49,2.54,2.54,0,0,0-.38,1.57v.55h2.35Z"/><path class="cls-3" d="M965.81,358.59a13.72,13.72,0,0,0,.87-1.17c.31-.46.56-.86.74-1.19h1.7v.16a10.29,10.29,0,0,1-1.1,1.25,11.6,11.6,0,0,1-1.28,1.15h-.93Zm1.46,9.89h-1.4v-8.56h1.4Z"/><path class="cls-3" d="M975.92,368.48l-.28-1.21h-.06a4,4,0,0,1-1.38,1.08,4.51,4.51,0,0,1-1.72.29,3.21,3.21,0,0,1-2.15-.66,2.3,2.3,0,0,1-.79-1.86c0-1.73,1.5-2.64,4.48-2.72l1.57,0v-.53a2,2,0,0,0-.47-1.49,2,2,0,0,0-1.49-.48,6.51,6.51,0,0,0-2.62.66l-.43-1a7.26,7.26,0,0,1,3.13-.74,3.73,3.73,0,0,1,2.45.68,2.72,2.72,0,0,1,.8,2.18v5.84Zm-3.16-.91a3,3,0,0,0,2-.66,2.38,2.38,0,0,0,.75-1.86v-.78l-1.4.06a5.27,5.27,0,0,0-2.41.48,1.42,1.42,0,0,0-.74,1.32,1.3,1.3,0,0,0,.46,1.07A2,2,0,0,0,972.76,367.57Z"/><path class="cls-3" d="M874.46,523.29l-1.53-3.64H868l-1.51,3.64H865l4.87-11.47h1.21L876,523.29Zm-2-4.83-1.43-3.54c-.19-.45-.38-1-.58-1.65a13.47,13.47,0,0,1-.53,1.65l-1.45,3.54Z"/><path class="cls-3" d="M885,514.73v.82l-1.72.18a2.85,2.85,0,0,1,.43.72,2.57,2.57,0,0,1,.18,1,2.45,2.45,0,0,1-.93,2,3.92,3.92,0,0,1-2.54.75,4.75,4.75,0,0,1-.78-.06c-.6.29-.89.66-.89,1.1a.54.54,0,0,0,.31.52,2.45,2.45,0,0,0,1.07.17h1.64a3.85,3.85,0,0,1,2.3.58,2,2,0,0,1,.81,1.71,2.4,2.4,0,0,1-1.23,2.17,7.11,7.11,0,0,1-3.6.74,5.24,5.24,0,0,1-2.79-.62,2,2,0,0,1-1-1.77,1.9,1.9,0,0,1,.54-1.35,2.79,2.79,0,0,1,1.52-.77,1.49,1.49,0,0,1-.59-.47,1.14,1.14,0,0,1-.24-.72,1.3,1.3,0,0,1,.27-.82,2.69,2.69,0,0,1,.85-.68,2.42,2.42,0,0,1-1.17-.93,2.6,2.6,0,0,1-.45-1.5,2.66,2.66,0,0,1,.91-2.17,3.91,3.91,0,0,1,2.58-.76,4.8,4.8,0,0,1,1.31.16Zm-7.38,10a1.15,1.15,0,0,0,.64,1,3.69,3.69,0,0,0,1.81.36,5.32,5.32,0,0,0,2.61-.49,1.48,1.48,0,0,0,.85-1.32,1,1,0,0,0-.47-1,3.81,3.81,0,0,0-1.74-.27h-1.68a2.31,2.31,0,0,0-1.48.42A1.47,1.47,0,0,0,877.62,524.73Zm.76-7.26a1.7,1.7,0,0,0,.55,1.36,2.37,2.37,0,0,0,1.53.46c1.36,0,2-.62,2-1.85s-.69-1.93-2.08-1.93a2.16,2.16,0,0,0-1.52.5A1.89,1.89,0,0,0,878.38,517.47Z"/><path class="cls-3" d="M891.11,514.57a6.23,6.23,0,0,1,1.11.09l-.2,1.21a5,5,0,0,0-1-.12,2.55,2.55,0,0,0-1.92.84,2.94,2.94,0,0,0-.8,2.1v4.6h-1.4v-8.56h1.16l.16,1.58h.07a3.75,3.75,0,0,1,1.24-1.29A2.94,2.94,0,0,1,891.11,514.57Z"/><path class="cls-3" d="M899.63,523.29l-.28-1.22h-.07a3.88,3.88,0,0,1-1.38,1.09,4.47,4.47,0,0,1-1.71.28,3.24,3.24,0,0,1-2.16-.65,2.31,2.31,0,0,1-.78-1.87c0-1.73,1.5-2.64,4.48-2.72l1.57-.05v-.53a2.05,2.05,0,0,0-.47-1.48,2,2,0,0,0-1.49-.49,6.43,6.43,0,0,0-2.62.66l-.43-1a6.82,6.82,0,0,1,1.5-.54,6.93,6.93,0,0,1,1.63-.2,3.73,3.73,0,0,1,2.45.68,2.73,2.73,0,0,1,.8,2.18v5.85Zm-3.16-.92a3,3,0,0,0,2-.66,2.35,2.35,0,0,0,.75-1.86v-.77l-1.4,0a5.52,5.52,0,0,0-2.41.48,1.44,1.44,0,0,0-.74,1.33,1.3,1.3,0,0,0,.46,1.07A2.06,2.06,0,0,0,896.47,522.37Z"/><path class="cls-3" d="M909.84,522.14h-.07a3.39,3.39,0,0,1-2.9,1.3A3.6,3.6,0,0,1,904,522.3a5.85,5.85,0,0,1,0-6.56,3.52,3.52,0,0,1,2.82-1.17,3.47,3.47,0,0,1,2.88,1.26h.11l-.06-.61,0-.6v-3.49h1.4v12.16H910Zm-2.8.22a2.66,2.66,0,0,0,2.08-.72,3.48,3.48,0,0,0,.65-2.34V519a4,4,0,0,0-.66-2.6,2.56,2.56,0,0,0-2.08-.78,2.22,2.22,0,0,0-1.89.89,4.21,4.21,0,0,0-.65,2.51,3.93,3.93,0,0,0,.65,2.47A2.26,2.26,0,0,0,907,522.36Z"/><path class="cls-3" d="M918,523.44a4.43,4.43,0,0,1-3.23-1.15,4.28,4.28,0,0,1-1.19-3.21,4.74,4.74,0,0,1,1.1-3.29,3.81,3.81,0,0,1,3-1.22,3.62,3.62,0,0,1,2.75,1.06,3.87,3.87,0,0,1,1,2.79v.82h-6.37a3.24,3.24,0,0,0,.82,2.29,3,3,0,0,0,2.2.78,7.83,7.83,0,0,0,2.95-.58v1.16a7.09,7.09,0,0,1-1.4.42A8.13,8.13,0,0,1,918,523.44Zm-.38-7.79a2.37,2.37,0,0,0-1.77.68,2.85,2.85,0,0,0-.78,1.86h4.83a2.72,2.72,0,0,0-.59-1.88A2.15,2.15,0,0,0,917.66,515.65Z"/><path class="cls-3" d="M927.52,523.44a4.13,4.13,0,0,1-3.11-1.14,4.49,4.49,0,0,1-1.1-3.24,4.6,4.6,0,0,1,1.12-3.32,4.2,4.2,0,0,1,3.18-1.17,6.76,6.76,0,0,1,1.34.13,4.68,4.68,0,0,1,1,.31l-.43,1.11a6.69,6.69,0,0,0-1-.29,5.33,5.33,0,0,0-1-.11q-2.82,0-2.82,3.33a3.75,3.75,0,0,0,.69,2.42,2.49,2.49,0,0,0,2,.84,6.6,6.6,0,0,0,2.37-.46V523A5.37,5.37,0,0,1,927.52,523.44Z"/><path class="cls-3" d="M931.93,512.4a.82.82,0,0,1,.24-.65.85.85,0,0,1,.59-.2.86.86,0,0,1,.58.21.81.81,0,0,1,.25.64.85.85,0,0,1-.25.66.86.86,0,0,1-.58.21.78.78,0,0,1-.83-.87Zm1.52,10.89h-1.4v-8.56h1.4Z"/><path class="cls-3" d="M948.2,523.29v-5.57a2.22,2.22,0,0,0-.47-1.54,1.9,1.9,0,0,0-1.47-.51,2.45,2.45,0,0,0-1.93.7,3.09,3.09,0,0,0-.62,2.14v4.78h-1.4v-5.57a2.17,2.17,0,0,0-.48-1.54,1.9,1.9,0,0,0-1.47-.51,2.37,2.37,0,0,0-1.93.73,3.74,3.74,0,0,0-.61,2.4v4.49h-1.4v-8.56h1.14l.23,1.17h.06a2.68,2.68,0,0,1,1.12-1,3.7,3.7,0,0,1,1.62-.35,2.78,2.78,0,0,1,2.83,1.45h.07a2.8,2.8,0,0,1,1.19-1.06,4,4,0,0,1,1.79-.39,3.31,3.31,0,0,1,2.35.74,3.2,3.2,0,0,1,.78,2.39v5.59Z"/><path class="cls-3" d="M952.37,512.4a.86.86,0,0,1,.23-.65.87.87,0,0,1,.6-.2.88.88,0,0,1,.58.21.8.8,0,0,1,.24.64.85.85,0,0,1-.24.66.82.82,0,0,1-1.41-.66Zm1.52,10.89h-1.4v-8.56h1.4Z"/><path class="cls-3" d="M960.76,523.44a4.42,4.42,0,0,1-3.23-1.15,4.28,4.28,0,0,1-1.19-3.21,4.74,4.74,0,0,1,1.1-3.29,3.81,3.81,0,0,1,3-1.22,3.62,3.62,0,0,1,2.75,1.06,3.87,3.87,0,0,1,1,2.79v.82h-6.37a3.24,3.24,0,0,0,.82,2.29,3,3,0,0,0,2.2.78,7.83,7.83,0,0,0,3-.58v1.16a7.09,7.09,0,0,1-1.4.42A8.13,8.13,0,0,1,960.76,523.44Zm-.38-7.79a2.37,2.37,0,0,0-1.77.68,2.85,2.85,0,0,0-.78,1.86h4.83a2.72,2.72,0,0,0-.59-1.88A2.16,2.16,0,0,0,960.38,515.65Z"/><path class="cls-3" d="M972.87,523.29v-5.54a2.12,2.12,0,0,0-.51-1.56,2.17,2.17,0,0,0-1.61-.52,2.76,2.76,0,0,0-2.13.73,3.46,3.46,0,0,0-.67,2.4v4.49h-1.4v-8.56h1.14l.22,1.17H968a2.82,2.82,0,0,1,1.21-1,4.18,4.18,0,0,1,1.73-.35,3.72,3.72,0,0,1,2.51.74,3.06,3.06,0,0,1,.84,2.39v5.59Z"/><path class="cls-3" d="M980.13,522.37a4.21,4.21,0,0,0,.72,0c.23,0,.41-.07.55-.1v1a2.91,2.91,0,0,1-.67.17,6,6,0,0,1-.8.06c-1.79,0-2.68-.87-2.68-2.61v-5.1h-1.32v-.62l1.32-.54.59-1.83h.81v2h2.68v1h-2.68v5a1.63,1.63,0,0,0,.4,1.19A1.4,1.4,0,0,0,980.13,522.37Z"/><path class="cls-3" d="M991.23,519a4.52,4.52,0,0,1-1.14,3.27,4.19,4.19,0,0,1-3.15,1.17,4.4,4.4,0,0,1-2.2-.54,3.55,3.55,0,0,1-1.48-1.54,5,5,0,0,1-.53-2.36,4.5,4.5,0,0,1,1.13-3.26,4.17,4.17,0,0,1,3.14-1.17,4.08,4.08,0,0,1,3.08,1.19A4.52,4.52,0,0,1,991.23,519Zm-7.05,0a3.86,3.86,0,0,0,.71,2.5,3,3,0,0,0,4.17,0,3.78,3.78,0,0,0,.71-2.5,3.72,3.72,0,0,0-.71-2.48,3,3,0,0,0-4.18,0A3.81,3.81,0,0,0,984.18,519Z"/><path class="cls-3" d="M999.64,521a2.11,2.11,0,0,1-1,1.85,4.81,4.81,0,0,1-2.7.64,6.29,6.29,0,0,1-2.87-.54v-1.2a7.53,7.53,0,0,0,1.43.49,6.43,6.43,0,0,0,1.48.18,3.48,3.48,0,0,0,1.68-.32,1.06,1.06,0,0,0,.59-1,1,1,0,0,0-.46-.85,7.67,7.67,0,0,0-1.83-.84,11,11,0,0,1-1.84-.78,2.39,2.39,0,0,1-.81-.76,1.88,1.88,0,0,1-.26-1,1.91,1.91,0,0,1,.92-1.66,4.56,4.56,0,0,1,2.52-.6,8,8,0,0,1,2.92.56l-.5,1.06a7.07,7.07,0,0,0-2.52-.54,3.14,3.14,0,0,0-1.5.29.89.89,0,0,0-.51.8.91.91,0,0,0,.19.59,2,2,0,0,0,.61.46,16.45,16.45,0,0,0,1.62.63,6,6,0,0,1,2.22,1.12A1.86,1.86,0,0,1,999.64,521Z"/></g></g></svg>