<svg xmlns="http://www.w3.org/2000/svg" width="90.841" height="63.39" viewBox="0 0 90.841 63.39">
  <g id="Grupo_10136" data-name="Grupo 10136" transform="translate(-3243.823 203.082)">
    <path id="Trazado_2081" data-name="Trazado 2081" d="M3274.828-143.022H3329.5a3.66,3.66,0,0,0,3.66-3.66V-172.3l-6.684-26.414a3.659,3.659,0,0,0-3.572-2.866h-67.329a3.659,3.659,0,0,0-3.573,2.866l-6.683,26.414v25.62a3.659,3.659,0,0,0,3.66,3.66h10.98" fill="none" stroke="#26a79a" stroke-linecap="round" stroke-linejoin="round" stroke-width="3"/>
    <line id="Línea_93" data-name="Línea 93" x1="25.62" transform="translate(3300.223 -164.982)" fill="none" stroke="#26a79a" stroke-linecap="round" stroke-linejoin="round" stroke-width="3"/>
    <line id="Línea_94" data-name="Línea 94" x2="3.66" transform="translate(3259.963 -194.262)" fill="none" stroke="#26a79a" stroke-linecap="round" stroke-linejoin="round" stroke-width="3"/>
    <line id="Línea_95" data-name="Línea 95" x1="25.62" transform="translate(3300.223 -157.662)" fill="none" stroke="#26a79a" stroke-linecap="round" stroke-linejoin="round" stroke-width="3"/>
    <line id="Línea_96" data-name="Línea 96" x1="25.62" transform="translate(3300.223 -150.342)" fill="none" stroke="#26a79a" stroke-linecap="round" stroke-linejoin="round" stroke-width="3"/>
    <line id="Línea_97" data-name="Línea 97" x2="58.335" transform="translate(3274.828 -172.302)" fill="none" stroke="#26a79a" stroke-linecap="round" stroke-linejoin="round" stroke-width="3"/>
    <line id="Línea_98" data-name="Línea 98" x2="14.413" transform="translate(3245.323 -172.302)" fill="none" stroke="#26a79a" stroke-linecap="round" stroke-linejoin="round" stroke-width="3"/>
    <circle id="Elipse_248" data-name="Elipse 248" cx="16.47" cy="16.47" r="16.47" transform="translate(3250.813 -174.132)" stroke-width="3" stroke="#26a79a" stroke-linecap="round" stroke-linejoin="round" fill="none"/>
    <circle id="Elipse_249" data-name="Elipse 249" cx="9.15" cy="9.15" r="9.15" transform="translate(3258.133 -166.812)" stroke-width="3" stroke="#26a79a" stroke-linecap="round" stroke-linejoin="round" fill="none"/>
  </g>
</svg>
