<svg xmlns="http://www.w3.org/2000/svg" width="90.841" height="92.671" viewBox="0 0 90.841 92.671">
  <g id="Grupo_10134" data-name="Grupo 10134" transform="translate(-3243.823 718.863)">
    <circle id="Elipse_245" data-name="Elipse 245" cx="7.32" cy="7.32" r="7.32" transform="translate(3281.923 -677.102)" stroke-width="3" stroke="#26a79a" stroke-linecap="round" stroke-linejoin="round" fill="none"/>
    <circle id="Elipse_246" data-name="Elipse 246" cx="7.32" cy="7.32" r="7.32" transform="translate(3245.323 -677.102)" stroke-width="3" stroke="#26a79a" stroke-linecap="round" stroke-linejoin="round" fill="none"/>
    <line id="Línea_82" data-name="Línea 82" x2="47.58" transform="translate(3265.453 -636.842)" fill="none" stroke="#26a79a" stroke-linecap="round" stroke-linejoin="round" stroke-width="3"/>
    <path id="Trazado_2073" data-name="Trazado 2073" d="M3254.773-646.929l5.98,8.528a3.66,3.66,0,0,0,3,1.559H3279.9a3.8,3.8,0,0,0,3.806-3.045,3.663,3.663,0,0,0-3.61-4.275h-14.586l-7.073-10.088a7.124,7.124,0,0,0-5.608-2.722h-2.013a5.49,5.49,0,0,0-5.49,5.49" fill="none" stroke="#26a79a" stroke-linecap="round" stroke-linejoin="round" stroke-width="3"/>
    <circle id="Elipse_247" data-name="Elipse 247" cx="7.32" cy="7.32" r="7.32" transform="translate(3318.523 -677.102)" stroke-width="3" stroke="#26a79a" stroke-linecap="round" stroke-linejoin="round" fill="none"/>
    <path id="Trazado_2074" data-name="Trazado 2074" d="M3318.523-639.528v10.007h-58.561v-10.007" fill="none" stroke="#26a79a" stroke-linecap="round" stroke-linejoin="round" stroke-width="3"/>
    <path id="Trazado_2075" data-name="Trazado 2075" d="M3323.713-646.929l-5.98,8.528a3.658,3.658,0,0,1-3,1.559h-16.147a3.8,3.8,0,0,1-3.806-3.045,3.663,3.663,0,0,1,3.61-4.275h14.587l7.072-10.088a7.125,7.125,0,0,1,5.609-2.722h2.013a5.49,5.49,0,0,1,5.49,5.49" fill="none" stroke="#26a79a" stroke-linecap="round" stroke-linejoin="round" stroke-width="3"/>
    <line id="Línea_83" data-name="Línea 83" y2="23.79" transform="translate(3245.323 -651.482)" fill="none" stroke="#26a79a" stroke-linecap="round" stroke-linejoin="round" stroke-width="3"/>
    <line id="Línea_84" data-name="Línea 84" y2="23.79" transform="translate(3333.164 -651.482)" fill="none" stroke="#26a79a" stroke-linecap="round" stroke-linejoin="round" stroke-width="3"/>
    <path id="Trazado_2076" data-name="Trazado 2076" d="M3303.883-644.162V-651.1a3.641,3.641,0,0,0-2.136-3.331,30.464,30.464,0,0,0-12.426-2.537,31.236,31.236,0,0,0-12.558,2.548,3.643,3.643,0,0,0-2.16,3.341v6.921" fill="none" stroke="#26a79a" stroke-linecap="round" stroke-linejoin="round" stroke-width="3"/>
    <path id="Trazado_2077" data-name="Trazado 2077" d="M3252.643-717.363h73.2a3.66,3.66,0,0,1,3.66,3.66v21.961a3.66,3.66,0,0,1-3.66,3.66h-53.071l-9.15,9.15v-9.15h-10.98a3.66,3.66,0,0,1-3.66-3.66V-713.7A3.66,3.66,0,0,1,3252.643-717.363Z" fill="none" stroke="#26a79a" stroke-linecap="round" stroke-linejoin="round" stroke-width="3"/>
  </g>
</svg>
